<svg id="Layer_1" enable-background="new 0 0 256 256" height="512" viewBox="0 0 256 256" width="512" xmlns="http://www.w3.org/2000/svg"><path d="m137.095 174.141 28.031 63.231c3.733 8.42 13.255 12.622 21.991 9.705 7.45-2.488 12.401-9.551 12.2-17.403l-1.916-74.785c-.037-1.443.378-2.862 1.186-4.059l7.493-11.093c9.329-13.812 13.878-30.298 12.95-46.94l-.356-6.39c-.885-15.885-10.879-29.825-25.639-35.764-11.59-4.663-24.673-3.788-35.54 2.376l-21.012 11.919c-1.318.748-2.807 1.14-4.322 1.14h-8.321c-1.515 0-3.004-.393-4.322-1.14l-21.013-11.919c-10.866-6.164-23.95-7.039-35.54-2.376-14.76 5.938-24.754 19.878-25.639 35.764l-.356 6.39c-.927 16.641 3.621 33.128 12.95 46.939l7.493 11.093c.808 1.197 1.223 2.616 1.186 4.059l-1.916 74.785c-.201 7.852 4.75 14.915 12.2 17.403 8.736 2.918 18.259-1.285 21.991-9.705l28.031-63.231c1.595-3.597 5.16-5.917 9.095-5.917 3.935.001 7.5 2.321 9.095 5.918z" fill="#e0ebfc"/><path d="m74.6 250.014c-2.104 0-4.244-.336-6.35-1.039-8.34-2.786-13.792-10.563-13.566-19.352l1.916-74.785c.027-1.033-.265-2.032-.844-2.89l-7.492-11.093c-9.516-14.088-14.236-31.195-13.29-48.17l.356-6.39c.924-16.585 11.479-31.308 26.89-37.508 12.225-4.919 25.811-4.01 37.273 2.492l21.012 11.919c1.016.575 2.169.88 3.335.88h8.321c1.167 0 2.32-.305 3.336-.881l21.011-11.918c11.462-6.503 25.049-7.41 37.273-2.492 15.411 6.2 25.965 20.923 26.89 37.508l.356 6.39c.946 16.975-3.774 34.082-13.29 48.17l-7.493 11.093c-.578.857-.87 1.856-.843 2.889l1.916 74.786c.225 8.789-5.227 16.565-13.566 19.352-9.769 3.256-20.28-1.379-24.454-10.792l-28.031-63.23c-1.273-2.872-4.125-4.728-7.267-4.728s-5.994 1.855-7.267 4.728l-28.031 63.23c-3.272 7.383-10.446 11.83-18.101 11.831zm3.699-200.355c-4.924 0-9.867.94-14.587 2.84-13.978 5.623-23.551 18.977-24.389 34.02l-.356 6.39c-.897 16.107 3.581 32.341 12.61 45.709l7.493 11.093c1.048 1.552 1.576 3.36 1.528 5.23l-1.916 74.784c-.18 7.021 4.174 13.231 10.834 15.455 7.801 2.604 16.196-1.101 19.529-8.618l28.031-63.23c1.914-4.317 6.202-7.106 10.924-7.106s9.01 2.789 10.924 7.106l28.031 63.23c3.332 7.517 11.727 11.227 19.529 8.618 6.66-2.224 11.014-8.435 10.834-15.455l-1.916-74.785c-.048-1.869.48-3.678 1.527-5.229l7.493-11.093c9.029-13.368 13.508-29.602 12.61-45.709l-.356-6.39c-.838-15.043-10.411-28.396-24.389-34.02-11.088-4.462-23.41-3.636-33.807 2.26l-21.01 11.919c-1.617.917-3.453 1.401-5.309 1.401h-8.321c-1.856 0-3.692-.484-5.309-1.4l-21.012-11.92c-5.971-3.387-12.578-5.1-19.22-5.1z" fill="#3762cc"/><path d="m123.395 44.559c-1.367.241-2.776-.399-3.403-1.652l-8.587-17.167-3.701 4.574c-.655.81-1.686 1.259-2.74 1.198-1.058-.061-2.007-.624-2.531-1.503l-10.387-17.4c-.869-1.456-.335-3.331 1.194-4.187 1.526-.857 3.472-.37 4.341 1.086l8.045 13.476 3.941-4.871c.68-.841 1.758-1.291 2.854-1.19 1.094.101 2.048.739 2.522 1.687l10.795 21.582c.757 1.514.085 3.349-1.503 4.099-.272.129-.555.218-.84.268z" fill="#f9a7a7"/><path d="m152.016 44.559c1.367.241 2.776-.399 3.403-1.652l8.587-17.167 3.701 4.574c.655.81 1.686 1.259 2.74 1.198 1.058-.061 2.007-.624 2.531-1.503l10.387-17.4c.869-1.456.335-3.331-1.194-4.187-1.526-.857-3.472-.37-4.341 1.086l-8.045 13.476-3.941-4.871c-.68-.841-1.758-1.291-2.854-1.19-1.094.101-2.048.739-2.522 1.687l-10.795 21.582c-.757 1.514-.085 3.349 1.503 4.099.272.129.555.218.84.268z" fill="#f9a7a7"/><path d="m180.358 104.297-22.831 6.428-11.575-6.809c-1.805-1.062-3.029-2.857-3.357-4.925l-5.344-33.651c-.04-.253-.12-.489-.217-.714l-.551.313c-1.318.748-2.807 1.141-4.322 1.141h-.847c.006.067.001.134.012.202l5.344 33.651c.61 3.844 2.885 7.181 6.24 9.155l22.024 12.955c1.657.975 2.834 2.612 3.23 4.492l2.614 12.416c.297 1.413 1.544 2.383 2.933 2.383.205 0 .413-.021.621-.065 1.621-.341 2.659-1.933 2.317-3.554l-2.614-12.416c-.743-3.527-2.951-6.599-6.059-8.428l-3.283-1.931 17.291-4.868c1.595-.449 2.524-2.105 2.075-3.701-.45-1.594-2.103-2.521-3.701-2.074z" fill="#4671c6"/><g fill="#f9a7a7"><path d="m137.706 117.556c-15.732 0-28.531-12.799-28.531-28.531 0-15.731 12.799-28.53 28.531-28.53 15.731 0 28.53 12.799 28.53 28.53 0 15.732-12.799 28.531-28.53 28.531zm0-52.062c-12.975 0-23.531 10.556-23.531 23.53 0 12.976 10.556 23.531 23.531 23.531s23.53-10.556 23.53-23.531c0-12.974-10.556-23.53-23.53-23.53z"/><path d="m137.706 131.424c-23.379 0-42.399-19.021-42.399-42.399s19.021-42.399 42.399-42.399 42.399 19.021 42.399 42.399-19.021 42.399-42.399 42.399zm0-79.799c-20.622 0-37.399 16.777-37.399 37.399s16.777 37.399 37.399 37.399 37.399-16.777 37.399-37.399-16.777-37.399-37.399-37.399z"/><circle cx="137.705" cy="89.024" r="12.162"/></g></svg>