<svg id="Layer_1" enable-background="new 0 0 256 256" height="512" viewBox="0 0 256 256" width="512" xmlns="http://www.w3.org/2000/svg"><g><g><g><path d="m97.003 84.451c8.018 4.606 12.961 13.148 12.961 22.394v79.763c0 8.7-2.434 17.226-7.027 24.614-6.224 10.011-16.009 17.293-27.386 20.38l-37.761 10.246c-9.454 2.565-19.539-.545-25.907-7.988-5.385-6.295-7.356-14.825-5.277-22.844l22.278-85.95c4.575-17.651 17.531-31.927 34.657-38.188 11.459-4.191 21.202-9.471 33.462-2.427z" fill="#f9a7a7"/></g></g><g><g><path d="m158.997 84.451c-8.018 4.606-12.961 13.148-12.961 22.394v79.763c0 8.7 2.434 17.226 7.027 24.614 6.224 10.011 16.009 17.293 27.386 20.38l37.761 10.245c9.454 2.565 19.539-.545 25.907-7.988 5.385-6.295 7.356-14.825 5.277-22.844l-22.278-85.95c-4.575-17.651-17.531-31.927-34.657-38.188-11.459-4.19-21.202-9.47-33.462-2.426z" fill="#4671c6"/></g></g><g><g><path d="m31.212 244.723c-7.892 0-15.594-3.42-20.85-9.563-5.806-6.788-7.934-16.001-5.693-24.646l22.278-85.95c4.74-18.287 18.163-33.078 35.906-39.565 1.323-.483 2.623-.982 3.906-1.474 10.07-3.86 19.583-7.504 31.239-.807 8.614 4.949 13.965 14.195 13.965 24.129v79.763c0 9.08-2.534 17.957-7.329 25.67-6.513 10.476-16.656 18.024-28.561 21.254l-37.761 10.246c-2.342.634-4.729.943-7.1.943zm53.514-161.699c-5.485 0-10.773 2.027-16.534 4.235-1.303.499-2.622 1.005-3.965 1.496-16.508 6.036-28.997 19.797-33.407 36.812l-22.278 85.95c-1.913 7.381-.096 15.248 4.861 21.042 5.833 6.82 15.199 9.709 23.863 7.359l37.762-10.246c10.925-2.964 20.234-9.891 26.211-19.505 4.4-7.079 6.726-15.225 6.726-23.558v-79.763c0-8.506-4.582-16.423-11.958-20.66-3.974-2.284-7.671-3.162-11.281-3.162z" fill="#3762cc"/></g></g><g><g><path d="m224.788 244.723c-2.371 0-4.758-.309-7.102-.944l-37.761-10.246c-11.905-3.229-22.048-10.778-28.561-21.253-4.795-7.712-7.329-16.588-7.329-25.67v-79.763c0-9.934 5.351-19.18 13.965-24.129 11.66-6.697 21.169-3.052 31.24.808 1.283.492 2.583.99 3.905 1.474 17.744 6.487 31.167 21.278 35.906 39.565l22.277 85.95c2.241 8.646.112 17.86-5.693 24.646-5.252 6.141-12.955 9.561-20.847 9.562zm-64.795-158.537c-7.375 4.237-11.957 12.154-11.957 20.66v79.763c0 8.335 2.326 16.481 6.726 23.558 5.977 9.614 15.285 16.542 26.211 19.505l37.761 10.246c8.664 2.351 18.029-.539 23.864-7.358 4.957-5.794 6.773-13.661 4.86-21.043l-22.277-85.95c-4.41-17.015-16.898-30.776-33.407-36.812-1.343-.491-2.662-.997-3.965-1.496-9.553-3.662-17.803-6.826-27.816-1.073z" fill="#3762cc"/></g></g><g><g><g><path d="m123.871 81.018c-1.636 0-2.962 1.326-2.962 2.962v19.284c0 1.473-.781 2.866-2.037 3.636-30.394 18.608-28.828 18.06-30.859 17.81l-19.363-2.36c-2.136-.26-3.747-2.08-3.747-4.231v-10.117c0-1.636-1.326-2.962-2.962-2.962s-2.962 1.326-2.962 2.962v10.117c0 5.143 3.85 9.49 8.954 10.113l14.242 1.737-17.462 12.34c-1.885 1.332-3.274 3.287-3.912 5.505l-4.537 15.785c-.575 2.003-2.495 3.292-4.569 3.059l-9.382-1.045c-1.619-.183-3.091.989-3.272 2.616-.181 1.626.99 3.091 2.616 3.272 9.581 1.068 9.624 1.109 10.527 1.109 4.499 0 8.504-2.959 9.773-7.375l4.537-15.785c.267-.928.848-1.746 1.637-2.303l7.108-5.023v39.542c0 1.277-.565 2.475-1.55 3.288l-10.011 8.261c-3.104 2.561-4.411 6.72-3.329 10.596l2.866 10.269c1.057 3.787 6.766 2.202 5.707-1.593l-2.866-10.269c-.452-1.622.094-3.362 1.393-4.434l10.012-8.261c2.353-1.943 3.703-4.807 3.703-7.858v-11.693l10.385 5.346c.434.223.897.329 1.353.329 1.074 0 2.111-.586 2.636-1.607.749-1.455.176-3.241-1.278-3.99l-13.097-6.742v-25.372c.525-.371 10.798-7.558 11.219-8.043 1.189-.485-1.011.79 29.581-17.94 3.003-1.838 4.868-5.168 4.868-8.689v-19.283c.003-1.636-1.324-2.963-2.96-2.963z" fill="#f9cfcf"/></g></g><g><g><path d="m216.959 168.227c-.181-1.626-1.648-2.796-3.272-2.616l-9.382 1.045c-2.068.23-3.993-1.056-4.568-3.059l-4.537-15.785c-.637-2.218-2.027-4.173-3.912-5.506l-17.462-12.339 14.242-1.737c5.105-.622 8.954-4.97 8.954-10.113v-10.117c0-1.636-1.326-2.962-2.962-2.962s-2.962 1.326-2.962 2.962v10.117c0 2.152-1.611 3.971-3.747 4.231l-19.363 2.361c-2.03.248-.47.795-30.859-17.81-1.257-.77-2.037-2.162-2.037-3.636v-19.282c0-1.636-1.326-2.962-2.962-2.962s-2.962 1.326-2.962 2.962v19.284c0 3.521 1.865 6.85 4.868 8.689 30.572 18.717 28.39 17.454 29.581 17.94.421.485 10.695 7.672 11.219 8.042v25.372l-13.097 6.742c-1.455.749-2.027 2.535-1.278 3.99.75 1.456 2.537 2.026 3.99 1.278l10.385-5.346v11.693c0 3.052 1.35 5.916 3.704 7.858l10.011 8.261c1.298 1.072 1.845 2.812 1.393 4.433l-2.866 10.269c-1.053 3.773 4.646 5.395 5.707 1.593l2.866-10.27c1.081-3.876-.226-8.035-3.329-10.596l-10.011-8.261c-.985-.813-1.55-2.012-1.55-3.288v-39.542l7.108 5.023c.789.558 1.37 1.376 1.637 2.304l4.537 15.785c1.376 4.788 5.969 7.863 10.919 7.31l9.382-1.045c1.625-.181 2.796-1.646 2.615-3.272z" fill="#f9cfcf"/></g></g></g><g><g><g><path d="m65.974 218.251c-2.169 0-4.06-1.396-4.685-3.634l-2.866-10.27c-1.294-4.637.27-9.612 3.982-12.676l10.012-8.261c.522-.432.823-1.068.823-1.746v-35.68l-3.955 2.794c-.418.296-.728.73-.869 1.223l-4.537 15.785c-1.493 5.194-6.302 8.822-11.696 8.822-.774 0-1.008-.026-4.92-.468l-5.829-.654c-1.317-.147-2.499-.798-3.326-1.833s-1.203-2.331-1.056-3.648c.147-1.319.8-2.501 1.838-3.33 1.037-.828 2.334-1.202 3.646-1.052l9.379 1.045c1.099.125 2.119-.559 2.425-1.623l4.537-15.786c.763-2.653 2.425-4.992 4.68-6.586l13.229-9.349-9.097-1.109c-6.106-.744-10.712-5.945-10.712-12.098v-10.117c0-2.736 2.226-4.962 4.962-4.962s4.962 2.226 4.962 4.962v10.117c0 1.142.855 2.107 1.989 2.246l19.576 2.389c.083.011.155.026.231.027.722-.112 4.453-2.41 13.467-7.963 3.953-2.435 9.052-5.576 15.662-9.623.667-.409 1.082-1.148 1.082-1.93v-19.282c0-2.736 2.226-4.962 4.962-4.962s4.962 2.226 4.962 4.962v19.284c0 4.212-2.231 8.195-5.824 10.395-7.127 4.364-12.475 7.641-16.5 10.108-11.678 7.159-12.363 7.578-13.087 7.867-.785.628-3.032 2.27-10.258 7.341v23.113l12.013 6.183c2.433 1.253 3.393 4.251 2.141 6.684-.855 1.66-2.546 2.691-4.415 2.691-.785 0-1.569-.19-2.27-.551l-7.469-3.845v8.414c0 3.65-1.615 7.077-4.43 9.401l-10.013 8.261c-.689.569-.979 1.493-.739 2.354l2.866 10.268c.759 2.72-.723 5.343-3.447 6.104-.48.134-.96.198-1.426.198zm9.267-78.128c.314 0 .63.074.92.224.664.344 1.08 1.028 1.08 1.776v39.542c0 1.875-.83 3.636-2.276 4.831l-10.012 8.261c-2.495 2.059-3.545 5.401-2.676 8.516l2.866 10.27c.211.757.761.777 1.185.657.422-.118.881-.417.669-1.176l-2.866-10.268c-.665-2.383.139-4.939 2.046-6.514l10.013-8.261c1.891-1.562 2.976-3.863 2.976-6.316v-11.692c0-.697.363-1.344.958-1.708.595-.363 1.337-.389 1.957-.071l10.385 5.346c.138.071.286.107.438.107.285 0 .66-.137.858-.522.159-.309.106-.592.061-.734s-.167-.403-.476-.562l-13.097-6.742c-.666-.343-1.084-1.029-1.084-1.778v-25.372c0-.65.315-1.259.847-1.634l.432-.303c8.568-6.012 10.229-7.27 10.534-7.527.186-.185.407-.331.651-.43l.215-.085c.481-.186 1.395-.746 12.576-7.6 4.025-2.468 9.373-5.746 16.501-10.109 2.414-1.478 3.913-4.153 3.913-6.983v-19.285c0-.531-.432-.962-.962-.962s-.962.432-.962.962v19.284c0 2.165-1.147 4.211-2.993 5.341-6.606 4.044-11.702 7.184-15.653 9.618-14.246 8.776-14.247 8.775-16.332 8.494l-.163-.021-19.361-2.361c-3.138-.382-5.505-3.055-5.505-6.216v-10.117c0-.531-.432-.962-.962-.962-.531 0-.962.432-.962.962v10.117c0 4.133 3.094 7.627 7.196 8.127l14.242 1.737c.821.1 1.495.695 1.697 1.497s-.11 1.645-.785 2.122l-17.462 12.34c-1.515 1.071-2.631 2.642-3.144 4.425l-4.537 15.785c-.846 2.945-3.67 4.837-6.714 4.494l-9.38-1.045c-.345-.042-.589.112-.705.204-.117.093-.319.302-.358.646-.059.527.322 1.004.85 1.063l5.834.655c3.813.43 3.938.442 4.472.442 3.677 0 6.833-2.382 7.851-5.927l4.537-15.785c.392-1.363 1.246-2.565 2.404-3.384l7.109-5.023c.344-.246.748-.37 1.154-.37zm17.076-10.165h.01z" fill="#3762cc"/></g></g><g><g><path d="m190.031 218.251c-.465 0-.942-.064-1.423-.199-2.729-.762-4.216-3.386-3.458-6.104l2.866-10.269c.24-.86-.05-1.784-.739-2.354l-10.011-8.261c-2.816-2.324-4.432-5.75-4.432-9.401v-8.414l-7.471 3.845c-1.177.606-2.519.719-3.783.314-1.263-.404-2.293-1.276-2.899-2.455-.606-1.178-.718-2.522-.313-3.785.404-1.263 1.276-2.292 2.455-2.899l12.012-6.183v-23.113c-7.227-5.073-9.473-6.714-10.258-7.341-.728-.29-1.409-.708-13.089-7.868-4.024-2.467-9.371-5.744-16.497-10.107-3.593-2.199-5.825-6.183-5.825-10.395v-19.281c0-2.736 2.227-4.962 4.963-4.962s4.962 2.226 4.962 4.962v19.284c0 .782.415 1.521 1.082 1.93 6.589 4.034 11.677 7.168 15.625 9.601 9.04 5.568 12.781 7.874 13.522 7.986.059-.002.13-.017.213-.028l.211-.028 19.363-2.361c1.134-.138 1.989-1.104 1.989-2.246v-10.117c0-2.736 2.227-4.962 4.963-4.962s4.962 2.226 4.962 4.962v10.117c0 6.152-4.605 11.354-10.712 12.098l-9.097 1.109 13.229 9.348c2.255 1.594 3.917 3.933 4.68 6.586l4.537 15.785c.306 1.063 1.328 1.745 2.426 1.624l9.381-1.045c2.735-.296 5.179 1.666 5.481 4.382v.001c.303 2.719-1.663 5.177-4.382 5.48l-9.382 1.045c-5.922.66-11.417-3.017-13.063-8.746l-4.537-15.785c-.142-.492-.451-.927-.871-1.224l-3.952-2.793v35.68c0 .678.3 1.314.822 1.746l10.011 8.261c3.714 3.064 5.277 8.04 3.984 12.676l-2.866 10.27c-.624 2.237-2.513 3.633-4.679 3.634zm-15.196-50.279c.361 0 .723.098 1.041.292.596.363.959 1.01.959 1.708v11.692c0 2.453 1.085 4.754 2.977 6.316l10.011 8.261c1.908 1.574 2.712 4.131 2.048 6.513l-2.866 10.27c-.211.756.253 1.057.68 1.176.609.17 1.005-.051 1.174-.658l2.866-10.27c.869-3.114-.182-6.457-2.676-8.516l-10.011-8.261c-1.447-1.194-2.277-2.955-2.277-4.831v-39.542c0-.748.417-1.432 1.08-1.776.665-.344 1.465-.289 2.074.143l7.108 5.023c1.16.821 2.013 2.023 2.404 3.384l4.537 15.786c1.106 3.849 4.802 6.318 8.775 5.875l9.382-1.045c.527-.059.909-.536.851-1.063-.06-.526-.548-.905-1.065-.849l-9.38 1.045c-3.053.331-5.868-1.553-6.712-4.495l-4.537-15.784c-.513-1.783-1.63-3.354-3.145-4.425l-17.461-12.339c-.675-.477-.987-1.32-.785-2.122s.877-1.396 1.697-1.497l14.241-1.737c4.103-.5 7.196-3.994 7.196-8.127v-10.117c0-.531-.432-.962-.962-.962-.531 0-.963.432-.963.962v10.117c0 3.162-2.367 5.834-5.505 6.216l-19.523 2.382c-2.081.279-2.08.285-16.368-8.517-3.946-2.431-9.031-5.563-15.616-9.595-1.847-1.131-2.993-3.178-2.993-5.341v-19.283c0-.531-.432-.962-.962-.962-.531 0-.963.432-.963.962v19.284c0 2.83 1.5 5.505 3.913 6.983 7.128 4.363 12.475 7.641 16.499 10.108 11.182 6.854 12.095 7.414 12.58 7.601l.213.084c.243.099.465.246.65.43.304.256 1.958 1.508 10.496 7.5l.472.331c.53.375.846.984.846 1.633v25.372c0 .749-.419 1.436-1.085 1.778l-13.097 6.742c-.309.159-.431.42-.477.563-.045.142-.098.425.062.734.158.309.42.431.562.476.144.045.428.097.733-.061l10.387-5.346c.287-.147.601-.221.915-.221z" fill="#3762cc"/></g></g></g><g><g><path d="m113.632 33.694h28.736v21.92h-28.736z" fill="#e0ebfc"/></g></g><g><g><path d="m113.632 55.029h28.736v21.92h-28.736z" fill="#e0ebfc"/></g></g><g><g><path d="m136.566 98.868h-17.131c-3.204 0-5.802-2.598-5.802-5.802v-16.118h28.736v16.117c-.001 3.205-2.599 5.803-5.803 5.803z" fill="#e0ebfc"/></g></g><g><g><path d="m119.81 13.438 2.93.789c3.445.928 7.074.928 10.519 0l2.93-.789c3.115-.839 6.178 1.508 6.178 4.734v15.522h-28.736v-15.522c.001-3.226 3.064-5.573 6.179-4.734z" fill="#e0ebfc"/></g></g><g><g><path d="m142.368 57.614h-28.736c-1.104 0-2-.896-2-2v-21.92c0-1.104.896-2 2-2h28.736c1.104 0 2 .896 2 2v21.92c0 1.104-.895 2-2 2zm-26.736-4h24.736v-17.92h-24.736z" fill="#3762cc"/></g></g><g><g><path d="m142.368 78.948h-28.736c-1.104 0-2-.896-2-2v-21.919c0-1.104.896-2 2-2h28.736c1.104 0 2 .896 2 2v21.919c0 1.105-.895 2-2 2zm-26.736-4h24.736v-17.919h-24.736z" fill="#3762cc"/></g></g><g><g><path d="m136.565 100.868h-17.131c-4.302 0-7.802-3.5-7.802-7.802v-16.118c0-1.104.896-2 2-2h28.736c1.104 0 2 .896 2 2v16.117c0 4.303-3.5 7.803-7.803 7.803zm-20.933-21.92v14.117c0 2.097 1.706 3.802 3.802 3.802h17.131c2.097 0 3.803-1.706 3.803-3.802v-14.117z" fill="#3762cc"/></g></g><g><g><path d="m142.368 35.694h-28.736c-1.104 0-2-.896-2-2v-15.522c0-2.165.985-4.162 2.704-5.479 1.718-1.318 3.903-1.75 5.994-1.187l2.93.789c3.101.835 6.379.835 9.479 0l2.932-.789c2.09-.563 4.275-.13 5.993 1.187 1.719 1.317 2.704 3.314 2.704 5.479v15.521c0 1.105-.895 2.001-2 2.001zm-26.736-4h24.736v-13.522c0-.911-.414-1.75-1.137-2.304-.723-.553-1.638-.736-2.521-.5l-2.931.789c-3.78 1.019-7.778 1.019-11.559 0l-2.93-.789c-.881-.236-1.799-.055-2.521.5-.723.554-1.137 1.394-1.137 2.304z" fill="#3762cc"/></g></g><g><g><g><path d="m240.657 202.665c-.839 0-1.521.642-1.6 1.46h-2.539c-.329-3.491-1.706-6.677-3.82-9.234l1.792-1.792c.297.245.657.375 1.022.375.413 0 .827-.158 1.142-.473.631-.631.631-1.654 0-2.285l-1.032-1.033-1.032-1.032c-.631-.631-1.654-.631-2.285 0-.593.593-.621 1.529-.099 2.164l-1.792 1.792c-2.557-2.115-5.743-3.492-9.234-3.82v-2.539c.818-.079 1.46-.761 1.46-1.6 0-.892-.723-1.615-1.615-1.615h-2.921c-.892 0-1.615.723-1.615 1.615 0 .839.642 1.521 1.461 1.6v2.539c-3.491.329-6.677 1.706-9.234 3.82l-1.792-1.792c1.302-1.58-.946-3.601-2.383-2.164-.736.736-1.322 1.322-2.066 2.065-.631.631-.631 1.654 0 2.285.316.316.729.473 1.142.473.364 0 .725-.13 1.022-.375l1.792 1.792c-2.115 2.557-3.492 5.743-3.82 9.234h-2.539c-.079-.818-.761-1.46-1.6-1.46-.892 0-1.615.723-1.615 1.615v2.921c0 .892.723 1.615 1.615 1.615.839 0 1.521-.642 1.6-1.461h2.539c.329 3.491 1.706 6.677 3.82 9.234l-1.792 1.792c-.634-.523-1.571-.495-2.164.098-.631.631-.631 1.654 0 2.285l1.033 1.033c.001 0 1.032 1.032 1.033 1.033.315.315.729.473 1.142.473s.827-.158 1.142-.473c.593-.593.621-1.529.098-2.164l1.792-1.792c2.557 2.115 5.743 3.492 9.234 3.82v2.539c-.818.079-1.461.761-1.461 1.6 0 .892.723 1.615 1.615 1.615h2.921c.892 0 1.615-.723 1.615-1.615 0-.839-.642-1.521-1.46-1.6v-2.539c3.491-.329 6.677-1.706 9.234-3.82l1.792 1.792c-.523.635-.495 1.571.099 2.164.315.315.729.473 1.142.473s.827-.158 1.142-.473l1.032-1.033 1.032-1.033c.631-.631.631-1.654 0-2.285-.593-.593-1.529-.621-2.164-.099l-1.792-1.792c2.115-2.557 3.492-5.743 3.82-9.234h2.539c.079.818.761 1.461 1.6 1.461.892 0 1.615-.723 1.615-1.615v-2.921c.003-.891-.721-1.614-1.613-1.614z" fill="#6bdddd"/></g></g><g><g><circle cx="219.564" cy="205.741" fill="#e0ebfc" r="12.979"/></g></g><g><g><g><circle cx="216.812" cy="202.497" fill="#a4c9ff" r="5.281"/></g></g><g><g><circle cx="224.659" cy="211.328" fill="#a4c9ff" r="2.938"/></g></g></g></g><g><g><g><path d="m227.738 140.978c-.598 0-1.083.458-1.14 1.041h-1.809c-.234-2.487-1.215-4.757-2.722-6.579l1.277-1.277c.212.174.468.267.728.267.294 0 .589-.112.814-.337.45-.449.45-1.178 0-1.628l-.736-.736s-.598-.598-.736-.736c-.449-.449-1.178-.45-1.628 0-.423.423-.443 1.09-.07 1.542l-1.277 1.277c-1.822-1.507-4.092-2.488-6.579-2.722v-1.809c.583-.056 1.04-.542 1.04-1.14 0-.636-.515-1.151-1.151-1.151h-2.081c-.636 0-1.151.515-1.151 1.151 0 .598.458 1.083 1.041 1.14v1.809c-2.487.234-4.757 1.215-6.579 2.722l-1.277-1.277c.372-.452.352-1.119-.07-1.542-.449-.449-1.178-.45-1.628 0-.416.416-.811.811-1.472 1.472-.45.45-.45 1.178 0 1.628.225.225.519.337.814.337.259 0 .516-.092.728-.267l1.277 1.277c-1.507 1.822-2.488 4.092-2.722 6.579h-1.809c-.056-.583-.542-1.041-1.14-1.041-.636 0-1.151.515-1.151 1.151v2.081c0 .636.515 1.151 1.151 1.151.598 0 1.084-.457 1.14-1.041h1.809c.234 2.487 1.215 4.757 2.722 6.579l-1.277 1.277c-.452-.373-1.119-.353-1.542.07-.449.449-.449 1.178 0 1.628l.736.736s.733.733.736.736c.225.225.519.337.814.337.294 0 .589-.112.814-.337.423-.423.443-1.09.07-1.542l1.277-1.277c1.822 1.507 4.092 2.488 6.579 2.722v1.809c-.583.056-1.041.542-1.041 1.14 0 .636.515 1.151 1.151 1.151h2.081c.636 0 1.151-.515 1.151-1.151 0-.598-.457-1.083-1.04-1.14v-1.809c2.487-.234 4.757-1.215 6.579-2.722l1.277 1.277c-.372.452-.352 1.119.07 1.542.225.225.519.337.814.337s.589-.112.814-.337l.736-.736s.733-.733.736-.736c.449-.449.449-1.178 0-1.628-.423-.423-1.089-.443-1.542-.07l-1.277-1.277c1.507-1.822 2.488-4.092 2.722-6.579h1.809c.056.583.542 1.041 1.14 1.041.636 0 1.151-.515 1.151-1.151v-2.081c0-.636-.515-1.151-1.151-1.151z" fill="#6bdddd"/></g></g><g><g><circle cx="212.709" cy="143.17" fill="#e0ebfc" r="9.247"/></g></g><g><g><g><circle cx="210.749" cy="140.858" fill="#a4c9ff" r="3.762"/></g></g><g><g><circle cx="216.339" cy="147.15" fill="#a4c9ff" r="2.093"/></g></g></g></g></g></svg>