<svg id="Layer_1" enable-background="new 0 0 128 128" height="512" viewBox="0 0 128 128" width="512" xmlns="http://www.w3.org/2000/svg"><g><path d="m119.974 36.109c-4.908-6.877-12.348-10.601-20.409-10.222-9.669.457-18.089 6.594-20.44 8.464-.788.626-1.797.739-2.699.305-.901-.435-1.439-1.293-1.439-2.297v-20.378c0-.267-.106-.522-.296-.71-.096-.096-2.42-2.342-7.646-2.342-5.165 0-7.952 2.178-8.068 2.271-.238.19-.376.478-.376.782v28.392c0 5.33 2.25 9.065 4.426 12.678 2.542 4.221 4.739 7.867 3.249 13.596-2.811 10.81-13.891 14.101-20.813 12.321-1.537-.396-3.226-1.409-5.014-2.481-3.578-2.146-8.029-4.818-13.989-4.233-1.089.106-2.267.349-3.501.721-9.987 3.014-16.961 12.643-16.961 23.415v23.628c0 .277.115.542.318.731.102.095 2.551 2.321 8.013 2.321 5.484 0 7.236-2.216 7.418-2.468.122-.17.188-.375.188-.584v-20.49c0-1.362.889-2.189 1.72-2.51.832-.319 2.047-.301 2.96.71 6.454 7.145 15.634 13.284 24.56 16.421 20.768 7.3 56.619-.406 69.92-33.862 6.914-17.391 6.505-33.493-1.121-44.179z" fill="#e6e7e8"/><g><path d="m55.599 7.981v28.392s10.565 15.286 7.643 26.525-14.438 14.992-22.029 13.039c-4.863-1.251-10.059-7.53-18.658-6.688-1.075.105-2.186.345-3.309.684-9.773 2.95-16.248 12.249-16.248 22.458v23.628s2.2 2.052 7.33 2.052 6.607-2.052 6.607-2.052v-20.49c0-3.38 4.157-4.979 6.423-2.47 5.486 6.074 14.375 12.712 24.149 16.148 20.135 7.078 55.605-.453 68.659-33.288 12.924-32.507-2.177-53.9-20.554-53.031-7.406.35-14.908 4.304-19.865 8.247-2.33 1.853-5.761.202-5.761-2.775v-20.379s-2.068-2.052-6.942-2.052-7.445 2.052-7.445 2.052z" fill="#fa759e"/><g><path d="m69.986 10.981v-3s-2.068-2.052-6.942-2.052-7.444 2.052-7.444 2.052 0 1.134 0 3c0 0 2.57-2.052 7.444-2.052s6.942 2.052 6.942 2.052z" fill="#fff"/></g><path d="m112.975 59.284c-3.333 1.875-2.478 6.072-6.333 8-3.75 1.875-10.25-3.833-16 .333s-3.042 10.167-8.333 11.667-10.583-5.375-20-2-10.125 10.334-18.334 10.334-12.954-6.755-19.333-8c-1.22-.238-2.515-.2-3.818.024-7.116 1.22-12.182 7.622-12.182 14.842v23.507c.524.05 1.083.081 1.686.081 5.13 0 6.607-2.052 6.607-2.052v-20.49c0-3.38 4.157-4.979 6.423-2.47 5.486 6.074 14.375 12.712 24.149 16.148 20.135 7.078 55.605-.453 68.659-33.288 2.363-5.943 3.768-11.503 4.406-16.633 0-.003-4.263-1.878-7.597-.003z" fill="#d4fbff"/><g fill="#3a2c60"><path d="m115.974 32.109c-4.908-6.877-12.348-10.599-20.409-10.222-9.668.457-18.089 6.594-20.44 8.464-.788.626-1.797.738-2.699.305-.901-.435-1.439-1.293-1.439-2.297v-20.378c0-.267-.106-.522-.296-.71-.096-.096-2.42-2.342-7.646-2.342-5.165 0-7.952 2.178-8.068 2.271-.238.19-.376.478-.376.782v6.678c0 .552.448 1 1 1s1-.448 1-1v-6.144c.836-.502 3.034-1.586 6.444-1.586 3.367 0 5.259 1.056 5.942 1.533v19.896c0 1.763.985 3.334 2.57 4.099 1.587.767 3.432.559 4.813-.541 2.232-1.776 10.22-7.603 19.29-8.031 7.369-.343 14.182 3.072 18.687 9.386 4.586 6.426 6.381 14.988 5.384 24.666-1.651-.473-4.651-.984-7.244.476-1.879 1.057-2.634 2.746-3.301 4.236-.694 1.553-1.294 2.894-2.99 3.741-1.221.61-3.038.137-5.141-.409-3.232-.841-7.253-1.887-10.999.828-3.081 2.232-3.957 4.986-4.66 7.2-.708 2.225-1.175 3.695-3.359 4.314-1.88.531-3.913-.226-6.265-1.105-3.542-1.324-7.95-2.972-13.8-.875-4.479 1.605-7.05 3.967-9.318 6.051-2.569 2.36-4.598 4.224-8.678 4.224-4.451 0-7.884-2.156-11.204-4.242-2.602-1.634-5.059-3.178-7.938-3.74-1.262-.247-2.667-.239-4.179.019-7.54 1.293-13.013 7.95-13.013 15.828v22.357c-1.929-.34-3.122-.976-3.644-1.321v-23.129c0-9.897 6.389-18.739 15.537-21.5 1.109-.334 2.159-.552 3.118-.646 5.307-.52 9.268 1.859 12.766 3.958 1.916 1.149 3.726 2.235 5.545 2.703 7.729 1.991 20.109-1.685 23.247-13.755 1.702-6.543-.928-10.909-3.472-15.131-2.035-3.378-4.139-6.872-4.139-11.646v-6.589c0-.552-.448-1-1-1s-1 .448-1 1v6.589c0 5.33 2.25 9.065 4.426 12.678 2.542 4.221 4.739 7.867 3.249 13.596-2.811 10.81-13.891 14.101-20.813 12.321-1.537-.396-3.226-1.409-5.014-2.481-3.578-2.146-8.031-4.818-13.99-4.233-1.089.107-2.267.35-3.5.721-9.986 3.014-16.96 12.643-16.96 23.415v23.628c0 .277.115.542.318.731.102.095 2.551 2.321 8.013 2.321 5.484 0 7.236-2.216 7.418-2.468.122-.17.188-.375.188-.584v-20.49c0-1.363.889-2.19 1.721-2.51.831-.319 2.047-.301 2.96.71 6.454 7.145 15.634 13.284 24.56 16.421 20.767 7.299 56.619-.405 69.92-33.862 6.913-17.391 6.504-33.493-1.122-44.179zm-.737 43.439c-12.838 32.292-47.39 39.749-67.398 32.715-10.155-3.57-18.921-10.541-23.738-15.875-1.312-1.452-3.338-1.937-5.163-1.236-1.824.702-3.002 2.42-3.002 4.377v20.082c-.517.438-2.1 1.46-5.606 1.46-.242 0-.459-.016-.687-.025v-22.563c0-6.901 4.773-12.729 11.351-13.856 1.273-.217 2.437-.227 3.458-.028 2.514.49 4.818 1.938 7.257 3.471 3.394 2.132 7.24 4.548 12.268 4.548 4.859 0 7.371-2.308 10.031-4.751 2.128-1.955 4.541-4.172 8.64-5.641 5.162-1.85 9.021-.407 12.425.865 2.57.961 4.996 1.869 7.511 1.156 3.219-.912 3.982-3.312 4.72-5.632.678-2.134 1.38-4.34 3.928-6.187 2.981-2.161 6.205-1.322 9.321-.511 2.39.622 4.646 1.208 6.539.263 2.335-1.167 3.177-3.052 3.921-4.714.618-1.382 1.152-2.576 2.456-3.309 2.122-1.195 4.785-.592 6.019-.202-.704 4.973-2.112 10.212-4.251 15.593z"/><path d="m55.599 26.659c.552 0 1-.448 1-1v-7.25c0-.552-.448-1-1-1s-1 .448-1 1v7.25c0 .552.448 1 1 1z"/></g><g fill="#6dc9f7"><circle cx="68.134" cy="99.42" r="6.136"/><circle cx="99.702" cy="55.693" r="4.909"/><circle cx="77.768" cy="58.497" r="3.497"/><circle cx="106.249" cy="38.269" r="2.273"/><circle cx="114.923" cy="50.42" r="2.273"/><circle cx="69.309" cy="69.268" r="2.273"/><circle cx="86.93" cy="90.716" r="3.681"/><circle cx="98.93" cy="77.466" r="3.681"/><circle cx="52.27" cy="92.556" r="1.841"/><circle cx="110.809" cy="75.625" r="1.841"/><circle cx="38.475" cy="96.237" r="1.841"/></g></g></g></svg>