<svg id="Layer_1" enable-background="new 0 0 256 256" height="512" viewBox="0 0 256 256" width="512" xmlns="http://www.w3.org/2000/svg"><path d="m222.979 98.183-.001.006c-6.508-7.107-14.019-13.591-22.525-19.235-21.377-14.186-45.85-21.055-70.118-21.195v.056c-25.784-.77-52.038 6.042-74.788 21.139-8.505 5.644-16.017 12.127-22.525 19.235l-.001-.006s-14.365 14.906-25.021 32.484l29.356 29.511c1.774 1.842 3.603 3.613 5.477 5.326.015.017.032.033.047.05l-.001-.009c23.843 21.771 55.504 33.071 87.455 32.689v-.031c30.349-.719 60.105-11.949 82.786-32.658l-.001.009c.015-.017.032-.033.047-.05 1.874-1.713 3.704-3.484 5.477-5.326l29.357-29.511c-10.657-17.578-25.021-32.484-25.021-32.484z" fill="#f9cfcf"/><path d="m209.197 128c0-23.161-9.921-44-25.739-58.515-16.917-7.789-35.076-11.622-53.124-11.727v.056c-17.123-.511-34.446 2.343-50.82 8.725-17.78 14.563-29.132 36.684-29.132 61.461 0 23.866 10.543 45.256 27.209 59.813 16.571 7.088 34.61 10.639 52.744 10.422v-.031c19.216-.456 38.192-5.13 55.288-13.751 14.552-14.395 23.574-34.368 23.574-56.453z" fill="#e0ebfc"/><g fill="#f9a7a7"><path d="m245.44 126.602-19.398-9.642-14.113-18.094c-.847-1.088-2.419-1.283-3.509-.434-1.089.849-1.283 2.42-.434 3.509l4.652 5.964h-9.727c-1.381 0-2.5 1.119-2.5 2.5s1.119 2.5 2.5 2.5h13.627l5.911 7.578c.23.295.523.534.858.701l6.633 3.297-7.83 4.161h-17.345c-1.381 0-2.5 1.119-2.5 2.5s1.119 2.5 2.5 2.5h8.648c-.249.393-.394.851-.394 1.334v7.704c0 1.381 1.119 2.5 2.5 2.5s2.5-1.119 2.5-2.5v-6.201l17.426-9.261 10.695 5.316 1.858-1.868c-.831-1.373-1.688-2.728-2.558-4.064z"/><path d="m42.111 143.083 10.473 13.723c.473.62 1.208.983 1.987.983h5.934c1.381 0 2.5-1.119 2.5-2.5s-1.119-2.5-2.5-2.5h-4.697l-7.966-10.438 7.046-.899c1.37-.175 2.338-1.427 2.164-2.796-.175-1.37-1.428-2.338-2.796-2.164l-16.423 2.097-11.771-8.847 5.665-2.155c.569-.216 1.039-.632 1.323-1.171l4.007-7.599c.028.001.055.008.083.008.121 0 .244-.009.368-.027l17.43-2.571c1.366-.202 2.31-1.472 2.108-2.838-.201-1.366-1.469-2.309-2.838-2.109l-14.289 2.107 3.885-7.368c.644-1.221.176-2.734-1.045-3.377s-2.733-.176-3.377 1.045l-10.316 19.563-19.595 7.452c-.339.129-.63.326-.872.567l3.691 3.71 8.245-3.135 15.104 11.352c.435.327.963.501 1.502.501.105 0 .211-.007.316-.02z"/><circle cx="129.789" cy="128" r="65.817"/></g><path d="m129.789 169.522c-22.895 0-41.521-18.626-41.521-41.521s18.626-41.522 41.521-41.522 41.522 18.627 41.522 41.522-18.627 41.521-41.522 41.521z" fill="#4671c6"/><path d="m128.717 200.244c-32.727.001-63.579-11.722-87.067-33.113-.079-.062-.154-.13-.225-.205-1.941-1.777-3.795-3.58-5.51-5.361l-29.333-29.488c-.648-.652-.769-1.662-.292-2.448 10.649-17.565 25.146-32.684 25.292-32.834.02-.021.041-.042.062-.062 6.725-7.328 14.395-13.87 22.798-19.446 22.271-14.78 48.359-22.21 75.5-21.484.133-.029.271-.037.405-.044 25.587.148 50.212 7.592 71.212 21.528 8.403 5.576 16.072 12.118 22.799 19.446.021.02.041.041.062.062.145.15 14.643 15.27 25.291 32.835.477.786.356 1.795-.292 2.447l-29.356 29.511c-1.702 1.768-3.571 3.585-5.533 5.38-.02.018-.04.036-.06.053-22.53 20.572-52.255 32.345-83.737 33.172-.12.025-.245.039-.372.041-.548.007-1.098.01-1.644.01zm-84.52-36.203c.01.009.021.018.031.027 22.76 20.782 52.713 32.176 84.49 32.176.418 0 .829-.002 1.247-.006.105-.02.213-.032.322-.035 30.646-.726 59.585-12.139 81.484-32.136.014-.012.026-.024.04-.035.002-.002.003-.003.005-.005 1.904-1.741 3.717-3.503 5.387-5.237l28.27-28.419c-9.874-15.88-22.633-29.434-23.843-30.705-.044-.04-.087-.083-.127-.127-6.529-7.131-13.983-13.496-22.155-18.919-20.229-13.424-43.938-20.632-68.585-20.858-.158.039-.321.056-.487.051-26.466-.783-51.92 6.405-73.623 20.807-8.173 5.423-15.627 11.789-22.156 18.919-.041.044-.083.087-.127.127-1.208 1.27-13.968 14.824-23.842 30.706l28.247 28.396c1.696 1.761 3.508 3.523 5.409 5.261.004.003.008.007.013.012z" fill="#3762cc"/><path d="m153.085 116.325c-10.05 0-18.227-8.176-18.227-18.227s8.176-18.227 18.227-18.227 18.227 8.177 18.227 18.227-8.177 18.227-18.227 18.227z" fill="#e0ebfc"/><path d="m128.717 200.244c-32.727.001-63.579-11.722-87.067-33.113-.079-.062-.154-.13-.225-.205-1.941-1.777-3.795-3.58-5.51-5.361l-29.333-29.488c-.648-.652-.769-1.662-.292-2.448 10.649-17.565 25.146-32.684 25.292-32.834.02-.021.041-.042.062-.062 6.725-7.328 14.395-13.87 22.798-19.446 22.271-14.78 48.359-22.21 75.5-21.484.133-.029.271-.037.405-.044 25.587.148 50.212 7.592 71.212 21.528 8.403 5.576 16.072 12.118 22.799 19.446.021.02.041.041.062.062.145.15 14.643 15.27 25.291 32.835.477.786.356 1.795-.292 2.447l-29.356 29.511c-1.702 1.768-3.571 3.585-5.533 5.38-.02.018-.04.036-.06.053-22.53 20.572-52.255 32.345-83.737 33.172-.12.025-.245.039-.372.041-.548.007-1.098.01-1.644.01zm-84.52-36.203c.01.009.021.018.031.027 22.76 20.782 52.713 32.176 84.49 32.176.418 0 .829-.002 1.247-.006.105-.02.213-.032.322-.035 30.646-.726 59.585-12.139 81.484-32.136.014-.012.026-.024.04-.035.002-.002.003-.003.005-.005 1.904-1.741 3.717-3.503 5.387-5.237l28.27-28.419c-9.874-15.88-22.633-29.434-23.843-30.705-.044-.04-.087-.083-.127-.127-6.529-7.131-13.983-13.496-22.155-18.919-20.229-13.424-43.938-20.632-68.585-20.858-.158.039-.321.056-.487.051-26.466-.783-51.92 6.405-73.623 20.807-8.173 5.423-15.627 11.789-22.156 18.919-.041.044-.083.087-.127.127-1.208 1.27-13.968 14.824-23.842 30.706l28.247 28.396c1.696 1.761 3.508 3.523 5.409 5.261.004.003.008.007.013.012z" fill="#3762cc"/></svg>