<svg height="486pt" viewBox="-47 0 486 486.29348" width="486pt" xmlns="http://www.w3.org/2000/svg"><path d="m9.460938 306.90625 25.894531-160.027344h321.648437l25.863282 159.855469.046874.171875c3.527344 13.289062 5.316407 26.953125 5.316407 40.671875v.007813c0 33.660156-28.164063 60.949218-62.910157 60.949218h-258.261718c-34.746094 0-62.910156-27.289062-62.910156-60.949218v-.007813c0-13.71875 1.785156-27.382813 5.3125-40.671875zm0 0" fill="#4671c6"/><path d="m325.320312 412.535156h-258.261718c-36.894532 0-66.910156-29.136718-66.910156-64.953125 0-13.996093 1.816406-27.957031 5.398437-41.511719l25.828125-159.636718c5.019531-70.941406 64.648438-126.480469 135.835938-126.480469h57.765624c70.867188 0 130.285157 55.042969 135.769532 125.527344.09375.242187.164062.496093.207031.761719l25.828125 159.644531c3.617188 13.617187 5.449219 27.644531 5.449219 41.691406 0 35.820313-30.015625 64.957031-66.910157 64.957031zm-158.109374-384.582031c-67.058594 0-123.226563 52.367187-127.867188 119.21875-.007812.121094-.023438.242187-.042969.363281l-25.886719 160.007813c-.019531.128906-.050781.261719-.082031.386719-3.4375 12.945312-5.183593 26.285156-5.183593 39.648437 0 31.40625 26.425781 56.957031 58.910156 56.957031h258.261718c32.484376 0 58.910157-25.546875 58.910157-56.953125 0-13.363281-1.742188-26.703125-5.183594-39.652343-.035156-.125-.109375-.429688-.128906-.558594l-25.695313-158.828125c-.210937-.425781-.34375-.890625-.378906-1.386719-4.648438-66.84375-60.8125-119.203125-127.867188-119.203125zm-157.746094 278.953125h.019531zm0 0" fill="#3762cc"/><path d="m39.519531 482.296875h308.234375c12.886719 0 23.328125-10.445313 23.328125-23.328125 0-61.296875-49.6875-110.984375-110.984375-110.984375h-132.921875c-61.296875 0-110.984375 49.6875-110.984375 110.984375 0 12.882812 10.441406 23.328125 23.328125 23.328125zm0 0" fill="#6bdddd"/><path d="m194.578125 397.03125c-25.746094 0-50.011719-6.3125-71.351563-17.457031v20.113281c0 22.617188 18.335938 40.953125 40.953126 40.953125h63.882812c22.617188 0 40.953125-18.332031 40.953125-40.953125v-21.777344c-22.074219 12.175782-47.4375 19.121094-74.4375 19.121094zm0 0" fill="#f9cfcf"/><path d="m167.210938 23.953125h57.769531c73.023437 0 132.21875 59.195313 132.21875 132.21875v33.640625h-322.207031v-33.640625c0-73.019531 59.195312-132.21875 132.21875-132.21875zm0 0" fill="#4671c6"/><path d="m347.753906 486.292969h-308.234375c-15.070312 0-27.328125-12.257813-27.328125-27.324219 0-63.402344 51.582032-114.984375 114.984375-114.984375h132.921875c63.402344 0 114.984375 51.582031 114.984375 114.984375 0 15.066406-12.261719 27.324219-27.328125 27.324219zm-220.578125-134.308594c-58.992187 0-106.984375 47.992187-106.984375 106.984375 0 10.65625 8.667969 19.324219 19.328125 19.324219h308.234375c10.65625 0 19.328125-8.667969 19.328125-19.324219 0-58.992188-47.992187-106.984375-106.984375-106.984375zm0 0" fill="#3762cc"/><path d="m348.0625 189.8125c.664062 5.828125 1.042969 11.742188 1.042969 17.75v34.941406c0 85.34375-69.183594 154.527344-154.527344 154.527344s-154.527344-69.183594-154.527344-154.527344v-34.941406c0-6.007812.378907-11.921875 1.046875-17.75zm0 0" fill="#f9cfcf"/><path d="m319.925781 331.90625c23.515625 0 42.578125-19.0625 42.578125-42.578125s-19.0625-42.578125-42.578125-42.578125-42.578125 19.0625-42.578125 42.578125 19.066406 42.578125 42.578125 42.578125zm0 0" fill="#f9cfcf"/><path d="m70.183594 331.90625c23.515625 0 42.578125-19.0625 42.578125-42.578125s-19.0625-42.578125-42.578125-42.578125-42.578125 19.0625-42.578125 42.578125 19.0625 42.578125 42.578125 42.578125zm0 0" fill="#f9cfcf"/><g fill="#3762cc"><path d="m284.199219 331.335938c-.589844 0-1.1875-.128907-1.753907-.410157l-38.660156-18.933593c-1.359375-.664063-2.226562-2.042969-2.238281-3.558594s.832031-2.90625 2.183594-3.597656l41.8125-21.300782c1.972656-1.007812 4.378906-.21875 5.382812 1.75 1 1.964844.21875 4.375-1.75 5.378906l-34.679687 17.667969 31.464844 15.410157c1.984374.972656 2.804687 3.371093 1.832031 5.351562-.691407 1.417969-2.113281 2.242188-3.59375 2.242188zm0 0"/><path d="m227.433594 373.050781c-2.207032 0-4-1.792969-4-4 0-9.070312-12.414063-16.738281-27.109375-16.738281-14.695313 0-27.109375 7.667969-27.109375 16.738281 0 2.207031-1.789063 4-4 4-2.207032 0-4-1.792969-4-4 0-13.871093 15.421875-24.738281 35.109375-24.738281s35.109375 10.867188 35.109375 24.738281c0 2.210938-1.792969 4-4 4zm0 0"/><path d="m194.578125 401.03125c-50.605469 0-98.382813-24.386719-128.199219-65.332031-24.140625-1.941407-42.773437-21.945313-42.773437-46.375 0-12.191407 4.636719-23.597657 13.101562-32.332031-.4375-4.816407-.660156-9.683594-.660156-14.488282v-34.945312c0-5.867188.363281-11.992188 1.074219-18.203125.230468-2.019531 1.941406-3.542969 3.972656-3.542969h306.964844c2.035156 0 3.742187 1.523438 3.972656 3.542969.710938 6.199219 1.070312 12.324219 1.070312 18.203125v34.945312c0 4.457032-.195312 9.027344-.589843 13.609375 8.917969 8.75 13.992187 20.738281 13.992187 33.210938 0 24.585937-19.464844 45.015625-43.796875 46.46875-29.824219 40.886719-77.570312 65.238281-128.128906 65.238281zm-149.875-207.21875c-.433594 4.6875-.652344 9.300781-.652344 13.75v34.941406c0 5.175782.269531 10.417969.800781 15.582032.128907 1.234374-.324218 2.457031-1.222656 3.308593-7.753906 7.375-12.023437 17.292969-12.023437 27.933594 0 20.78125 16.285156 37.6875 37.066406 38.496094 1.242187.046875 2.390625.667969 3.105469 1.683593 28.234375 39.777344 74.140625 63.527344 122.800781 63.527344 48.632813 0 94.527344-23.730468 122.761719-63.476562.738281-1.042969 1.925781-1.664063 3.199218-1.683594 20.9375-.328125 37.964844-17.625 37.964844-38.546875 0-10.882813-4.671875-21.328125-12.824218-28.660156-.945313-.847657-1.429688-2.097657-1.304688-3.359375.484375-4.988282.730469-9.96875.730469-14.800782v-34.945312c0-4.453125-.21875-9.066406-.652344-13.746094h-299.75zm0 0"/><path d="m127.785156 321.027344c-6.558594 0-11.894531-5.335938-11.894531-11.898438v-19.824218c0-6.5625 5.335937-11.898438 11.894531-11.898438s11.898438 5.335938 11.898438 11.898438v19.824218c-.003906 6.5625-5.339844 11.898438-11.898438 11.898438zm0 0"/><path d="m354.96875 405.347656c-1.355469 0-2.671875-.691406-3.417969-1.921875-12.242187-20.113281-31.050781-35.84375-52.957031-44.292969-1.285156-.496093-2.226562-1.621093-2.488281-2.972656-.261719-1.351562.1875-2.742187 1.195312-3.683594 7.429688-6.945312 14.171875-14.65625 20.042969-22.917968.734375-1.042969 1.921875-1.664063 3.195312-1.683594 20.9375-.328125 37.964844-17.625 37.964844-38.546875 0-10.882813-4.671875-21.328125-12.824218-28.660156-.945313-.847657-1.429688-2.097657-1.304688-3.359375.484375-4.988282.730469-9.96875.730469-14.804688v-34.941406c0-4.457031-.21875-9.066406-.652344-13.746094h-299.75c-.433594 4.6875-.652344 9.296875-.652344 13.746094v34.941406c0 5.175782.269531 10.417969.800781 15.585938.125 1.230468-.324218 2.457031-1.222656 3.308594-7.753906 7.371093-12.023437 17.292968-12.023437 27.929687 0 20.785156 16.28125 37.691406 37.066406 38.5 1.238281.046875 2.386719.667969 3.105469 1.679687 5.722656 8.0625 12.300781 15.625 19.554687 22.472657 1.003907.949219 1.449219 2.347656 1.175781 3.703125-.277343 1.359375-1.234374 2.472656-2.527343 2.957031-21.644531 8.035156-40.449219 23.21875-52.953125 42.75-1.167969 1.832031-3.585938 2.390625-5.445313 1.261719-19.683593-11.976563-31.433593-32.558594-31.433593-55.0625 0-13.992188 1.8125-27.957032 5.394531-41.515625l25.828125-159.632813c5.019531-70.941406 64.652344-126.480468 135.839844-126.480468h57.765624c70.863282 0 130.285157 55.042968 135.765626 125.523437.097656.242187.167968.496094.207031.761719l25.832031 159.664062c3.613281 13.609375 5.445312 27.632813 5.445312 41.675782 0 24.019531-13.570312 45.980468-35.417968 57.316406-.585938.300781-1.214844.445312-1.839844.445312zm-47.804688-51.304687c19.9375 8.96875 37.128907 23.636719 49.160157 41.964843 17.300781-10.359374 27.90625-28.601562 27.90625-48.425781 0-13.363281-1.746094-26.703125-5.183594-39.652343-.003906-.003907-.003906-.011719-.003906-.015626l-.042969-.171874c-.035156-.121094-.058594-.246094-.082031-.371094l-25.695313-158.832032c-.210937-.425781-.34375-.890624-.378906-1.386718-4.648438-66.839844-60.8125-119.199219-127.867188-119.199219h-57.765624c-67.0625 0-123.230469 52.367187-127.871094 119.214844-.007813.125-.019532.242187-.042969.363281l-25.886719 160.011719c-.019531.128906-.046875.257812-.082031.386719-3.4375 12.945312-5.179687 26.285156-5.179687 39.648437 0 18.4375 9.042968 35.417969 24.375 46.132813 12.210937-17.65625 29.304687-31.714844 48.902343-40.253907-5.453125-5.558593-10.496093-11.511719-15.050781-17.761719-24.140625-1.941406-42.773438-21.941406-42.773438-46.375 0-12.191406 4.640626-23.597656 13.101563-32.332031-.433594-4.816406-.65625-9.683593-.65625-14.492187v-34.941406c0-5.871094.359375-11.996094 1.070313-18.203126.230468-2.019531 1.941406-3.542968 3.976562-3.542968h306.964844c2.03125 0 3.738281 1.523437 3.972656 3.542968.710938 6.199219 1.070312 12.320313 1.070312 18.203126v34.941406c0 4.460937-.199218 9.027344-.589843 13.613281 8.914062 8.75 13.988281 20.738281 13.988281 33.210937 0 24.585938-19.464844 45.015626-43.796875 46.46875-4.699219 6.453126-9.90625 12.566407-15.539063 18.253907zm76.960938-47.511719-1.210938.375 1.726563-.457031zm0 0"/></g><path d="m76.039062 266.214844h37.019532c45.914062 0 83.128906-37.21875 83.128906-83.128906v-11.164063h-161.195312v53.246094c0 22.667969 18.378906 41.046875 41.046874 41.046875zm0 0" fill="#4671c6"/><path d="m239.789062 266.214844h76.289063c22.707031 0 41.121094-18.410156 41.121094-41.121094v-53.171875h-200.6875v11.011719c0 45.996094 37.285156 83.28125 83.277343 83.28125zm0 0" fill="#4671c6"/><path d="m218.257812 34.457031c12.09375.777344 22.089844 9.765625 23.417969 21.097657.464844 3.9375-.101562 7.707031-1.464843 11.109374-.238282.597657 0 1.261719.59375 1.574219.007812.003907.011718.007813.019531.011719.421875.222656.929687.210938 1.34375-.019531 3.910156-2.167969 8.488281-3.382813 13.375-3.289063 13.664062.257813 24.847656 11.007813 24.835937 23.867188 0 3.960937-1.035156 7.691406-2.855468 10.980468-.492188.882813.09375 1.9375 1.148437 2.066407 12.414063 1.546875 21.996094 11.539062 21.996094 23.644531 0 8.253906-4.457031 15.53125-11.230469 19.8125v2.359375c6.773438 4.285156 11.230469 11.558594 11.230469 19.816406 0 13.175781-11.351563 23.855469-25.359375 23.855469-.011719 0-.019532 0-.03125 0-1.179688-.003906-1.917969 1.175781-1.3125 2.128906 2.691406 4.25 4.019531 9.351563 3.410156 14.773438-1.273438 11.363281-11.234375 20.390625-23.351562 21.203125-6.863282.460937-13.195313-1.652344-18.019532-5.414063-.878906-.6875-2.222656-.207031-2.410156.851563-2.003906 11.289062-12.4375 19.894531-25.007812 19.894531-4.503907 0-8.730469-1.109375-12.394532-3.046875v-197.792969c4.953125-6.207031 13.050782-10.066406 22.066406-9.484375zm0 0" fill="#a4c9ff"/><path d="m174.117188 34.457031c-12.089844.777344-22.085938 9.765625-23.417969 21.097657-.460938 3.9375.105469 7.707031 1.46875 11.109374.238281.597657-.003907 1.261719-.59375 1.574219-.007813.003907-.011719.007813-.019531.011719-.421876.222656-.929688.210938-1.347657-.019531-3.90625-2.167969-8.484375-3.382813-13.371093-3.289063-13.667969.257813-24.847657 11.007813-24.839844 23.867188.003906 3.960937 1.035156 7.691406 2.855468 10.980468.492188.882813-.089843 1.9375-1.144531 2.066407-12.417969 1.546875-22 11.539062-22 23.644531 0 8.253906 4.457031 15.53125 11.230469 19.8125v2.359375c-6.773438 4.285156-11.230469 11.558594-11.230469 19.816406 0 13.175781 11.355469 23.855469 25.363281 23.855469h.027344c1.179688-.003906 1.917969 1.175781 1.316406 2.128906-2.691406 4.25-4.019531 9.351563-3.414062 14.773438 1.273438 11.363281 11.238281 20.390625 23.351562 21.203125 6.863282.460937 13.195313-1.652344 18.023438-5.414063.878906-.6875 2.21875-.207031 2.40625.851563 2.007812 11.289062 12.441406 19.894531 25.011719 19.894531 4.503906 0 8.730469-1.109375 12.394531-3.046875v-197.792969c-4.953125-6.207031-13.050781-10.066406-22.070312-9.484375zm0 0" fill="#f9a7a7"/><path d="m115.789062 153.535156c-5.285156 0-10.601562-1.613281-15.046874-4.9375-1.769532-1.320312-2.132813-3.828125-.8125-5.597656 1.324218-1.769531 3.832031-2.132812 5.597656-.808594 7.152344 5.335938 17.570312 4.230469 23.234375-2.472656 2.640625-3.125 3.84375-7.019531 3.394531-10.964844-.464844-4.042968-2.601562-7.675781-6.023438-10.230468-1.769531-1.320313-2.132812-3.828126-.808593-5.601563 1.320312-1.769531 3.828125-2.125 5.597656-.808594 5.203125 3.886719 8.460937 9.472657 9.179687 15.730469.707032 6.15625-1.152343 12.207031-5.230468 17.039062-4.800782 5.683594-11.914063 8.652344-19.082032 8.652344zm0 0" fill="#3762cc"/><path d="m294.613281 146.496094c6.355469-5.257813 10.054688-12.871094 10.054688-20.996094 0-12.828125-9.300781-23.914062-22.128907-27 1.210938-3.089844 1.839844-6.382812 1.839844-9.6875.015625-15.070312-12.886718-27.570312-28.761718-27.875-3.449219-.082031-6.875.445312-10.109376 1.496094.386719-2.402344.433594-4.859375.140626-7.347656-1.542969-13.140626-13.207032-23.726563-27.132813-24.625-8.355469-.53125-16.402344 2.320312-22.328125 7.710937-5.921875-5.386719-13.960938-8.238281-22.324219-7.710937-13.929687.898437-25.59375 11.484374-27.132812 24.625-.292969 2.488281-.246094 4.945312.136719 7.347656-3.234376-1.046875-6.632813-1.570313-10.109376-1.496094-15.871093.300781-28.773437 12.804688-28.761718 27.875.003906 3.304688.632812 6.597656 1.84375 9.6875-12.832032 3.085938-22.132813 14.171875-22.132813 27 0 8.125 3.703125 15.738281 10.058594 20.996094-6.355469 5.253906-10.058594 12.875-10.058594 20.992187 0 14.058594 11.03125 25.714844 25.339844 27.59375-1.855469 4.265625-2.550781 8.902344-2.019531 13.613281 1.476562 13.171876 13.109375 23.808594 27.054687 24.75 6.292969.4375 12.445313-1.042968 17.691407-4.160156 3.769531 11.496094 14.988281 19.5 28.019531 19.5 4.285156 0 8.527343-.902344 12.394531-2.609375 3.871094 1.707031 8.109375 2.609375 12.394531 2.609375 13.03125 0 24.25-8.003906 28.019531-19.5 5.246094 3.117188 11.410157 4.585938 17.691407 4.160156 13.949219-.941406 25.578125-11.578124 27.058593-24.75.527344-4.710937-.167968-9.347656-2.019531-13.609374 14.289063-1.867188 25.335938-13.53125 25.335938-27.597657 0-8.121093-3.703125-15.738281-10.054688-20.992187zm-131.890625 77.699218c-.332031-1.878906-1.605468-3.410156-3.410156-4.105468-.644531-.25-1.320312-.371094-1.992188-.371094-1.21875 0-2.421874.398438-3.402343 1.160156-4.273438 3.328125-9.707031 4.957032-15.296875 4.582032-10.144532-.683594-18.59375-8.277344-19.644532-17.660157-.367187-3.269531.113282-6.492187 1.386719-9.460937 3.804688-7.71875 13.636719-11.058594 21.917969-7.449219 4.074219 1.777344 7.113281 4.933594 8.558594 8.886719 1.347656 3.675781 1.128906 7.644531-.613282 11.183594-.976562 1.980468-.160156 4.375 1.820313 5.355468.570313.28125 1.171875.410156 1.765625.410156 1.476562 0 2.894531-.816406 3.589844-2.230468 2.71875-5.515625 3.054687-11.71875.953125-17.46875-2.203125-6.023438-6.777344-10.804688-12.875-13.464844-9.183594-4.007812-19.699219-2.089844-26.734375 4.050781-.535156-.164062-1.085938-.269531-1.667969-.269531 0 0-.003906 0-.007813 0-11.78125 0-21.363281-8.902344-21.363281-19.855469 0-6.578125 3.503907-12.722656 9.371094-16.433593 1.160156-.730469 1.859375-2.007813 1.859375-3.378907v-2.363281c0-1.371094-.703125-2.648438-1.863281-3.378906-5.867188-3.707032-9.367188-9.851563-9.367188-16.433594 0-9.902344 7.949219-18.359375 18.492188-19.675781 1.832031-.226563 3.421875-1.328125 4.246093-2.949219.804688-1.582031.769532-3.460938-.09375-5.027344-1.5625-2.816406-2.355468-5.863281-2.355468-9.042968-.007813-10.734376 9.371094-19.648438 20.914062-19.867188 4.035156-.097656 7.933594.886719 11.359375 2.789062 1 .558594 2.121094.734376 3.21875.613282 3.464844 3.769531 8.488281 6.011718 13.777344 6.011718 1.890625 0 3.816406-.28125 5.703125-.875 4.789062-1.507812 8.621094-4.734374 10.785156-9.082031 2.050782-4.121093 2.332032-8.769531.792969-13.089843-.742187-2.082032-3.03125-3.167969-5.109375-2.425782-2.082031.738282-3.167969 3.027344-2.425781 5.109375.804687 2.253907.652343 4.683594-.417969 6.84375-1.1875 2.382813-3.328125 4.164063-6.027344 5.015625-5.441406 1.707032-11.328125-.976562-13.117187-6.003906-.011719-.027344-.027344-.046875-.035157-.074219-.78125-2.5-1.050781-5.089843-.742187-7.746093 1.097656-9.367188 9.570313-16.921876 19.703125-17.570313 6.851562-.457031 13.417969 2.140625 17.8125 6.960937v193.773438c-2.644531 1.050781-5.503906 1.601562-8.394531 1.601562-10.5-.003906-19.363281-6.984374-21.070313-16.59375zm112.5625-36.851562c-.003906 0-.007812 0-.007812 0-.574219 0-1.121094.105469-1.648438.269531-7.035156-6.136719-17.546875-8.050781-26.730468-4.050781-6.097657 2.660156-10.667969 7.441406-12.875 13.464844-2.101563 5.75-1.765626 11.957031.953124 17.46875.699219 1.414062 2.117188 2.234375 3.59375 2.230468.589844 0 1.195313-.132812 1.761719-.410156 1.984375-.976562 2.796875-3.375 1.820313-5.355468-1.742188-3.539063-1.960938-7.507813-.617188-11.183594 1.449219-3.953125 4.488282-7.109375 8.5625-8.886719 8.285156-3.613281 18.113282-.265625 21.917969 7.449219v.003906c1.269531 2.96875 1.75 6.1875 1.386719 9.457031-1.054688 9.382813-9.5 16.976563-19.648438 17.660157-5.574218.371093-11.019531-1.25-15.292968-4.582032-1.519532-1.183594-3.582032-1.484375-5.394532-.792968-1.804687.699218-3.078125 2.230468-3.410156 4.105468-1.707031 9.613282-10.570312 16.59375-21.070312 16.59375-2.890626 0-5.753907-.550781-8.394532-1.601562v-193.773438c4.394532-4.816406 10.925782-7.417968 17.8125-6.960937 10.132813.648437 18.601563 8.207031 19.703125 17.570312.308594 2.65625.039063 5.257813-.742187 7.753907-.011719.023437-.023438.042968-.03125.066406-1.792969 5.027344-7.679688 7.714844-13.121094 6.003906-2.699219-.851562-4.839844-2.628906-6.027344-5.015625-1.074218-2.15625-1.21875-4.585937-.417968-6.84375.742187-2.078125-.34375-4.367187-2.425782-5.109375-2.082031-.742188-4.371094.34375-5.109375 2.425781-1.542969 4.320313-1.257812 8.96875.789063 13.089844 2.164062 4.347656 5.992187 7.574219 10.785156 9.082031 1.886719.597656 3.808594.878906 5.703125.878906 5.292969 0 10.3125-2.246093 13.78125-6.015624 1.097656.125 2.21875-.054688 3.21875-.609376 3.425781-1.902343 7.355469-2.90625 11.355469-2.792968 11.542968.21875 20.925781 9.132812 20.914062 19.871094 0 3.183593-.789062 6.226562-2.355468 9.042968-.863282 1.566406-.898438 3.445313-.09375 5.027344.824218 1.621094 2.410156 2.71875 4.246093 2.949219 10.539063 1.3125 18.492188 9.769531 18.492188 19.675781 0 6.542969-3.464844 12.644531-9.261719 16.359375-.191406.097656-.378906.199219-.554688.332031-7.148437 5.34375-17.570312 4.234375-23.230468-2.472656-2.640625-3.125-3.847656-7.019531-3.394532-10.964844.464844-4.042968 2.601563-7.675781 6.023438-10.230468 1.769531-1.320313 2.128906-3.828126.808594-5.601563-1.324219-1.769531-3.828125-2.125-5.601563-.808594-1.789062 1.339844-3.335937 2.890625-4.640625 4.59375-.859375-1.40625-1.867187-2.738281-3.039062-3.964843-4.546875-4.75-10.777344-7.441407-17.535156-7.582032-.175782 0-.355469-.003906-.535157-.003906-13.210937 0-24.109375 10.078125-24.394531 22.699219-.050781 2.207031 1.695312 4.039062 3.902344 4.089843 2.175781.128907 4.042968-1.699218 4.09375-3.90625.191406-8.277343 7.511718-14.878906 16.402344-14.878906.125 0 .246093 0 .367187.003906 4.617187.09375 8.851563 1.90625 11.921875 5.113282 2.75 2.875 4.214844 6.570312 4.128906 10.410156-.003906.226562.023438.449219.054688.664062-.265625 5.632813 1.578125 11.097657 5.324218 15.53125 4.800782 5.6875 11.910157 8.65625 19.082032 8.65625 3.6875 0 7.390625-.804687 10.804687-2.410156 5.808594 3.714844 9.273438 9.820313 9.273438 16.363282 0 10.949218-9.582031 19.851562-21.382813 19.851562zm0 0" fill="#3762cc"/><path d="m207.445312 150.234375c-.003906 0-.007812 0-.011718 0-2.203125 0-3.992188 1.785156-4 3.988281-.003906 2.207032 1.78125 4.007813 3.988281 4.011719 4.429687.011719 8.578125 1.636719 11.679687 4.570313 3.03125 2.875 4.695313 6.667968 4.683594 10.683593-.027344 8.367188-7.382812 15.15625-16.414062 15.15625-.019532 0-.042969-.003906-.0625 0-2.203125 0-3.992188 1.78125-4 3.988281-.003906 2.207032 1.78125 4.003907 3.988281 4.011719h.074219c13.429687 0 24.375-10.363281 24.414062-23.132812.023438-6.246094-2.53125-12.109375-7.183594-16.515625-4.589843-4.339844-10.679687-6.742188-17.15625-6.761719zm0 0" fill="#3762cc"/><path d="m185.070312 188.644531c-.023437 0-.042968 0-.066406 0-9.027344 0-16.382812-6.792969-16.410156-15.160156-.015625-4.015625 1.648438-7.804687 4.683594-10.679687 3.101562-2.933594 7.246094-4.558594 11.675781-4.570313 2.210937-.003906 3.996094-1.800781 3.992187-4.011719-.007812-2.207031-1.796874-3.988281-4-3.988281-.003906 0-.007812 0-.011718 0-6.476563.019531-12.566406 2.421875-17.15625 6.761719-4.652344 4.40625-7.203125 10.269531-7.183594 16.515625.042969 12.773437 10.984375 23.132812 24.414062 23.132812h.078126c2.207031-.007812 3.996093-1.804687 3.988281-4.011719-.011719-2.207031-1.800781-3.988281-4.003907-3.988281zm0 0" fill="#3762cc"/><path d="m173.070312 128.035156c.046876 2.207032 1.882813 4.035156 4.089844 3.90625 2.207032-.050781 3.957032-1.878906 3.90625-4.089844-.292968-12.621093-11.183594-22.699218-24.398437-22.699218-.175781 0-.351563.003906-.53125.003906-6.757813.140625-12.984375 2.832031-17.535157 7.582031-4.234374 4.417969-6.488281 10.144531-6.351562 16.125.050781 2.179688 1.832031 3.90625 4 3.90625h.09375c2.207031-.046875 3.957031-1.878906 3.90625-4.089843-.085938-3.839844 1.378906-7.539063 4.128906-10.410157 3.070313-3.203125 7.304688-5.019531 11.925782-5.113281.121093-.003906.242187-.003906.367187-.003906 8.882813.003906 16.207031 6.609375 16.398437 14.882812zm0 0" fill="#3762cc"/><path d="m282.878906 110.140625c.171875.976563.558594 1.925781 1.179688 2.78125 2.175781 3.011719 6.382812 3.691406 9.398437 1.511719l30.777344-22.230469 1.816406 10.394531c.398438 2.285156 1.945313 4.203125 4.09375 5.078125 2.148438.875 4.597657.582031 6.476563-.773437l39.585937-28.554688c3.015625-2.175781 3.699219-6.375 1.523438-9.398437-2.175781-3.015625-6.382813-3.699219-9.398438-1.523438l-30.867187 22.269531-1.816406-10.410156c-.402344-2.289062-1.949219-4.207031-4.097657-5.078125-2.148437-.875-4.597656-.582031-6.476562.777344l-39.5 28.539063c-2.164063 1.558593-3.125 4.160156-2.695313 6.617187zm0 0" fill="#ffea92"/><path d="m289.472656 143.222656c-.457031.878906-.726562 1.867188-.753906 2.925782-.097656 3.71875 2.835938 6.808593 6.554688 6.902343l37.957031.992188-4.863281 9.367187c-1.070313 2.058594-1.003907 4.519532.171874 6.519532 1.183594 1.996093 3.300782 3.25 5.621094 3.3125l48.789063 1.308593c3.71875.097657 6.8125-2.828125 6.914062-6.550781.097657-3.714844-2.832031-6.808594-6.546875-6.910156l-38.046875-1.019532 4.867188-9.375c1.070312-2.0625 1.003906-4.527343-.179688-6.523437-1.175781-2-3.300781-3.25-5.621093-3.308594l-48.714844-1.273437c-2.660156-.066406-5.003906 1.417968-6.148438 3.632812zm0 0" fill="#ffea92"/><path d="m253.4375 96.28125c.808594.566406 1.757812.964844 2.796875 1.132812 3.671875.59375 7.125-1.902343 7.714844-5.574218l6.042969-37.484375 8.632812 6.066406c1.898438 1.332031 4.351562 1.597656 6.488281.699219 2.136719-.902344 3.660157-2.839844 4.03125-5.128906l7.800781-48.183594c.59375-3.671875-1.890624-7.125-5.570312-7.7226565-3.667969-.5937495-7.125 1.9023435-7.71875 5.5703125l-6.082031 37.570312-8.648438-6.078124c-1.898437-1.332032-4.347656-1.59375-6.488281-.691407-2.136719.902344-3.660156 2.839844-4.027344 5.128907l-7.75 48.113281c-.421875 2.628906.738282 5.148437 2.777344 6.582031zm0 0" fill="#ffea92"/><path d="m285.503906 184.570312c-.859375.492188-1.621094 1.179688-2.214844 2.054688-2.089843 3.074219-1.292968 7.261719 1.785157 9.351562l31.394531 21.351563-9.15625 5.25c-2.011719 1.15625-3.289062 3.261719-3.378906 5.582031-.085938 2.316406 1.019531 4.515625 2.9375 5.824219l40.339844 27.480469c3.074218 2.089844 7.257812 1.300781 9.355468-1.773438 2.09375-3.074218 1.300782-7.261718-1.773437-9.355468l-31.457031-21.425782 9.167968-5.257812c2.011719-1.15625 3.289063-3.265625 3.375-5.582032.089844-2.320312-1.023437-4.519531-2.941406-5.824218l-40.296875-27.40625c-2.199219-1.496094-4.976563-1.507813-7.136719-.269532zm0 0" fill="#ffea92"/></svg>