<?xml version="1.0" encoding="UTF-8" standalone="no"?>
<svg
   xmlns:dc="http://purl.org/dc/elements/1.1/"
   xmlns:cc="http://creativecommons.org/ns#"
   xmlns:rdf="http://www.w3.org/1999/02/22-rdf-syntax-ns#"
   xmlns:svg="http://www.w3.org/2000/svg"
   xmlns="http://www.w3.org/2000/svg"
   xmlns:sodipodi="http://sodipodi.sourceforge.net/DTD/sodipodi-0.dtd"
   xmlns:inkscape="http://www.inkscape.org/namespaces/inkscape"
   inkscape:version="1.0 (1.0+r73+1)"
   sodipodi:docname="infection.svg"
   version="1.1"
   width="512"
   viewBox="0 0 256 256"
   height="512"
   enable-background="new 0 0 256 256"
   id="Layer_1">
  <metadata
     id="metadata259">
    <rdf:RDF>
      <cc:Work
         rdf:about="">
        <dc:format>image/svg+xml</dc:format>
        <dc:type
           rdf:resource="http://purl.org/dc/dcmitype/StillImage" />
      </cc:Work>
    </rdf:RDF>
  </metadata>
  <defs
     id="defs257" />
  <sodipodi:namedview
     inkscape:current-layer="g252"
     inkscape:window-maximized="1"
     inkscape:window-y="0"
     inkscape:window-x="0"
     inkscape:cy="256"
     inkscape:cx="256"
     inkscape:zoom="1.125"
     showgrid="false"
     id="namedview255"
     inkscape:window-height="742"
     inkscape:window-width="1366"
     inkscape:pageshadow="2"
     inkscape:pageopacity="0"
     guidetolerance="10"
     gridtolerance="10"
     objecttolerance="10"
     borderopacity="1"
     bordercolor="#666666"
     pagecolor="#ffffff" />
  <g
     id="g252">
    <g
       transform="translate(51.411852,0.74688721)"
       id="g202">
      <g
         id="g6">
        <g
           id="g4">
          <path
             id="path2"
             fill="#4671c6"
             d="M 121.928,138.57 H 42.131 c -12.962,0 -23.469,10.508 -23.469,23.469 v 29.453 H 39.53 v 21.536 h 85 v -21.536 h 20.868 c 0,-10.996 0,-18.411 0,-29.453 -0.001,-12.961 -10.509,-23.469 -23.47,-23.469 z" />
        </g>
      </g>
      <g
         id="g12">
        <g
           id="g10">
          <path
             id="path8"
             fill="#f9cfcf"
             d="m 58.091,118.153 v 22.295 0.003 c 0,12.948 10.497,23.445 23.445,23.445 12.942,0 23.445,-10.489 23.445,-23.448 0,-4.51 0,-17.633 0,-22.295 z" />
        </g>
      </g>
      <g
         id="g18">
        <g
           id="g16">
          <path
             id="path14"
             fill="#f9cfcf"
             d="M 18.662,191.493 H 39.53 v 21.536 H 18.662 Z" />
        </g>
      </g>
      <g
         id="g24">
        <g
           id="g22">
          <path
             id="path20"
             fill="#f9cfcf"
             d="m 124.529,191.493 h 20.868 v 21.536 h -20.868 z" />
        </g>
      </g>
      <g
         id="g30">
        <g
           id="g28">
          <path
             id="path26"
             fill="#3762cc"
             d="M 145.397,215.029 H 18.662 c -1.104,0 -2,-0.896 -2,-2 V 162.04 c 0,-14.044 11.426,-25.47 25.47,-25.47 h 13.96 v -18.417 c 0,-1.104 0.896,-2 2,-2 h 46.89 c 1.104,0 2,0.896 2,2 v 18.417 h 14.947 c 14.044,0 25.469,11.426 25.469,25.47 v 50.989 c -0.001,1.104 -0.897,2 -2.001,2 z m -124.735,-4 H 143.397 V 162.04 c 0,-11.838 -9.631,-21.47 -21.469,-21.47 h -16.947 c -1.104,0 -2,-0.896 -2,-2 v -18.417 h -42.89 v 18.417 c 0,1.104 -0.896,2 -2,2 h -15.96 c -11.838,0 -21.47,9.631 -21.47,21.47 v 48.989 z" />
        </g>
      </g>
      <g
         id="g36">
        <g
           id="g34">
          <path
             id="path32"
             fill="#4671c6"
             d="m 82.029,122.096 c -30.364,0 -54.978,-24.614 -54.978,-54.978 V 44.091 c 0,-7.632 6.187,-13.819 13.819,-13.819 h 96.137 v 36.847 c 0,30.363 -24.614,54.977 -54.978,54.977 z" />
        </g>
      </g>
      <g
         id="g42">
        <g
           id="g40">
          <path
             id="path38"
             fill="#3762cc"
             d="m 82.029,124.096 c -31.418,0 -56.978,-25.56 -56.978,-56.978 V 44.091 c 0,-8.723 7.097,-15.819 15.819,-15.819 h 96.137 c 1.104,0 2,0.896 2,2 v 36.847 c 0,31.417 -25.56,56.977 -56.978,56.977 z M 40.871,32.272 c -6.517,0 -11.819,5.302 -11.819,11.819 v 23.028 c 0,29.212 23.766,52.978 52.978,52.978 29.212,0 52.978,-23.766 52.978,-52.978 V 32.272 Z" />
        </g>
      </g>
      <g
         id="g48">
        <g
           id="g46">
          <path
             id="path44"
             fill="#f9cfcf"
             d="M 128.854,70.835 V 66.45 c 0,-25.628 -20.964,-46.403 -46.825,-46.403 -25.861,0 -46.825,20.775 -46.825,46.403 v 4.384 c -8.131,-0.165 -14.582,6.312 -14.582,14.142 0,8.361 7.299,14.974 15.818,14.073 4.832,20.53 23.403,35.826 45.588,35.826 22.187,0 40.756,-15.297 45.588,-35.826 8.508,0.9 15.818,-5.701 15.818,-14.073 0.002,-7.833 -6.454,-14.306 -14.58,-14.141 z" />
        </g>
      </g>
      <g
         id="g54">
        <g
           id="g52">
          <path
             id="path50"
             fill="#3762cc"
             d="m 82.029,136.875 c -22.244,0 -41.386,-14.615 -47.124,-35.746 -4.026,-0.003 -7.935,-1.483 -10.936,-4.183 -3.398,-3.058 -5.347,-7.42 -5.347,-11.97 0,-4.355 1.72,-8.439 4.844,-11.5 2.66,-2.607 6.062,-4.188 9.737,-4.56 V 66.45 c 0,-26.689 21.903,-48.403 48.825,-48.403 26.922,0 48.825,21.713 48.825,48.403 v 2.467 c 3.676,0.372 7.076,1.953 9.737,4.561 3.124,3.061 4.844,7.145 4.844,11.499 0,4.549 -1.948,8.911 -5.345,11.968 -3.002,2.701 -6.912,4.181 -10.938,4.185 -5.736,21.13 -24.878,35.745 -47.122,35.745 z M 36.443,97.05 c 0.918,0 1.731,0.631 1.945,1.542 4.751,20.186 22.697,34.284 43.641,34.284 20.944,0 38.89,-14.098 43.642,-34.284 0.231,-0.98 1.153,-1.641 2.157,-1.531 3.497,0.37 6.994,-0.756 9.587,-3.09 2.556,-2.299 4.021,-5.578 4.021,-8.994 0,-3.271 -1.294,-6.34 -3.644,-8.642 -2.374,-2.326 -5.531,-3.582 -8.897,-3.5 -0.53,0.011 -1.056,-0.195 -1.44,-0.571 -0.384,-0.376 -0.6,-0.891 -0.6,-1.429 V 66.45 c 0,-24.484 -20.108,-44.403 -44.825,-44.403 -24.716,0 -44.825,19.919 -44.825,44.403 v 4.385 c 0,0.538 -0.216,1.052 -0.6,1.429 -0.384,0.375 -0.906,0.579 -1.44,0.571 -3.373,-0.05 -6.524,1.175 -8.897,3.5 -2.35,2.303 -3.644,5.372 -3.644,8.643 0,3.417 1.466,6.696 4.022,8.996 2.592,2.333 6.092,3.46 9.585,3.088 0.071,-0.009 0.142,-0.012 0.212,-0.012 z" />
        </g>
      </g>
      <g
         id="g60">
        <g
           id="g58">
          <path
             id="path56"
             fill="#4671c6"
             d="M 137.007,61.834 H 63.544 c -15.652,0 -28.34,-12.688 -28.34,-28.34 0,-15.652 12.688,-28.34 28.34,-28.34 h 48.086 c 14.016,0 25.377,11.362 25.377,25.377 z" />
        </g>
      </g>
      <g
         id="g66">
        <g
           id="g64">
          <path
             id="path62"
             fill="#3762cc"
             d="M 137.007,63.834 H 63.544 c -16.729,0 -30.339,-13.61 -30.339,-30.34 0,-16.729 13.61,-30.339 30.339,-30.339 h 48.086 c 15.096,0 27.377,12.281 27.377,27.377 v 31.302 c 0,1.105 -0.895,2 -2,2 z M 63.544,7.155 c -14.523,0 -26.339,11.816 -26.339,26.339 0,14.524 11.816,26.34 26.339,26.34 h 71.463 V 30.532 c 0,-12.89 -10.487,-23.377 -23.377,-23.377 z" />
        </g>
      </g>
      <g
         id="g72">
        <g
           id="g70">
          <path
             id="path68"
             fill="#3762cc"
             d="M 48.69,101.05 H 36.441 c -1.104,0 -2,-0.896 -2,-2 0,-1.104 0.896,-2 2,-2 h 9.076 L 33.4,71.697 c -0.476,-0.997 -0.054,-2.19 0.942,-2.667 0.996,-0.475 2.191,-0.054 2.667,0.942 l 13.485,28.215 c 0.296,0.62 0.253,1.348 -0.113,1.929 -0.366,0.581 -1.004,0.934 -1.691,0.934 z" />
        </g>
      </g>
      <g
         id="g78">
        <g
           id="g76">
          <path
             id="path74"
             fill="#3762cc"
             d="m 127.616,101.05 h -12.249 c -0.687,0 -1.326,-0.353 -1.692,-0.934 -0.366,-0.581 -0.409,-1.309 -0.113,-1.929 l 13.485,-28.215 c 0.477,-0.996 1.671,-1.417 2.667,-0.942 0.997,0.477 1.418,1.67 0.942,2.667 L 118.54,97.05 h 9.076 c 1.104,0 2,0.896 2,2 0,1.104 -0.896,2 -2,2 z" />
        </g>
      </g>
      <g
         id="g84">
        <g
           id="g82">
          <path
             id="path80"
             fill="#e0ebfc"
             d="m 48.69,121.036 c 8.488,8.541 20.286,13.84 33.339,13.84 13.053,0 24.85,-5.298 33.338,-13.838 V 99.05 H 48.69 Z" />
        </g>
      </g>
      <g
         id="g92">
        <g
           id="g90">
          <g
             id="g88">
            <path
               id="path86"
               fill="#a4c9ff"
               d="M 97.588,109.508 H 66.471 c -1.021,0 -1.848,-0.828 -1.848,-1.848 0,-1.021 0.828,-1.848 1.848,-1.848 h 31.117 c 1.021,0 1.848,0.828 1.848,1.848 0,1.02 -0.827,1.848 -1.848,1.848 z" />
          </g>
        </g>
      </g>
      <g
         id="g100">
        <g
           id="g98">
          <g
             id="g96">
            <path
               id="path94"
               fill="#a4c9ff"
               d="M 97.588,117.509 H 66.471 c -1.021,0 -1.848,-0.828 -1.848,-1.848 0,-1.021 0.828,-1.848 1.848,-1.848 h 31.117 c 1.021,0 1.848,0.828 1.848,1.848 0,1.021 -0.827,1.848 -1.848,1.848 z" />
          </g>
        </g>
      </g>
      <g
         id="g108">
        <g
           id="g106">
          <g
             id="g104">
            <path
               id="path102"
               fill="#a4c9ff"
               d="M 97.588,125.511 H 66.471 c -1.021,0 -1.848,-0.828 -1.848,-1.848 0,-1.021 0.828,-1.848 1.848,-1.848 h 31.117 c 1.021,0 1.848,0.828 1.848,1.848 0,1.02 -0.827,1.848 -1.848,1.848 z" />
          </g>
        </g>
      </g>
      <g
         id="g114">
        <g
           id="g112">
          <path
             id="path110"
             fill="#3762cc"
             d="m 82.029,136.875 c -13.165,0 -25.509,-5.125 -34.758,-14.43 -0.373,-0.375 -0.582,-0.882 -0.582,-1.41 V 99.05 c 0,-1.104 0.896,-2 2,-2 h 66.677 c 1.104,0 2,0.896 2,2 v 21.987 c 0,0.528 -0.209,1.035 -0.582,1.41 -9.247,9.304 -21.59,14.428 -34.755,14.428 z M 50.69,120.201 c 8.425,8.18 19.521,12.675 31.339,12.675 11.818,0 22.913,-4.494 31.338,-12.674 V 101.05 H 50.69 Z" />
        </g>
      </g>
      <g
         id="g160">
        <g
           id="g120">
          <g
             id="g118">
            <path
               id="path116"
               fill="#6bdddd"
               d="m 116.512,208.265 c -1.385,0 -2.511,1.06 -2.642,2.412 h -4.187 c -0.543,-5.766 -2.821,-11.026 -6.314,-15.249 l 2.959,-2.959 c 0.491,0.404 1.085,0.619 1.687,0.619 0.683,0 1.365,-0.261 1.886,-0.781 1.042,-1.042 1.042,-2.731 0,-3.773 l -1.705,-1.705 -1.705,-1.705 c -1.042,-1.042 -2.731,-1.042 -3.773,0 -0.98,0.979 -1.026,2.525 -0.163,3.573 l -2.959,2.959 c -4.223,-3.492 -9.483,-5.771 -15.249,-6.313 v -4.188 c 1.351,-0.131 2.412,-1.256 2.412,-2.642 0,-1.474 -1.194,-2.668 -2.668,-2.668 h -4.824 c -1.473,0 -2.668,1.194 -2.668,2.668 0,1.386 1.06,2.511 2.412,2.642 v 4.188 c -5.766,0.542 -11.026,2.821 -15.249,6.313 l -2.959,-2.959 c 0.863,-1.048 0.817,-2.594 -0.163,-3.573 -1.041,-1.042 -2.731,-1.042 -3.773,0 l -1.705,1.705 c 0,0 -10e-4,0 -10e-4,0.001 0,0 0,0 -0.001,10e-4 l -1.704,1.704 c -1.042,1.042 -1.042,2.731 0,3.772 0.521,0.521 1.204,0.782 1.886,0.782 0.601,0 1.196,-0.214 1.687,-0.619 l 2.959,2.959 c -3.492,4.223 -5.771,9.483 -6.314,15.249 h -4.187 c -0.131,-1.352 -1.256,-2.412 -2.642,-2.412 -1.473,0 -2.668,1.194 -2.668,2.668 v 4.823 c 0,1.473 1.194,2.668 2.668,2.668 1.386,0 2.511,-1.06 2.642,-2.412 h 4.187 c 0.543,5.766 2.821,11.026 6.314,15.249 l -2.959,2.959 c -1.048,-0.863 -2.594,-0.817 -3.574,0.163 -1.042,1.042 -1.042,2.731 0,3.773 l 1.704,1.705 c 0,0 0,0 10e-4,0.001 0,0 0.001,0 0.001,0.001 l 1.705,1.705 c 0.521,0.521 1.204,0.781 1.886,0.781 0.682,0 1.365,-0.261 1.886,-0.781 0.98,-0.98 1.026,-2.525 0.163,-3.573 l 2.959,-2.959 c 4.223,3.492 9.483,5.771 15.249,6.313 v 4.187 c -1.352,0.131 -2.412,1.256 -2.412,2.642 0,1.473 1.194,2.668 2.668,2.668 h 4.824 c 1.473,0 2.668,-1.194 2.668,-2.668 0,-1.385 -1.06,-2.511 -2.412,-2.642 v -4.188 c 5.766,-0.542 11.026,-2.821 15.249,-6.313 l 2.959,2.959 c -0.863,1.048 -0.817,2.594 0.163,3.573 0.521,0.521 1.204,0.781 1.886,0.781 0.682,0 1.365,-0.261 1.886,-0.781 l 1.705,-1.705 1.705,-1.705 c 1.042,-1.042 1.042,-2.731 0,-3.773 -0.979,-0.979 -2.525,-1.026 -3.573,-0.163 l -2.959,-2.959 c 3.492,-4.223 5.771,-9.483 6.314,-15.249 h 4.187 c 0.131,1.352 1.256,2.412 2.642,2.412 1.473,0 2.668,-1.194 2.668,-2.668 v -4.823 c 0.002,-1.475 -1.192,-2.67 -2.665,-2.67 z" />
          </g>
        </g>
        <g
           id="g126">
          <g
             id="g124">
            <circle
               id="circle122"
               r="21.433001"
               fill="#4671c6"
               cy="213.345"
               cx="81.679001" />
          </g>
        </g>
        <g
           id="g140">
          <g
             id="g132">
            <g
               id="g130">
              <circle
                 id="circle128"
                 r="7.928"
                 fill="#e0ebfc"
                 cy="208.47501"
                 cx="77.547997" />
            </g>
          </g>
          <g
             id="g138">
            <g
               id="g136">
              <circle
                 id="circle134"
                 r="4.4099998"
                 fill="#e0ebfc"
                 cy="221.73199"
                 cx="89.328003" />
            </g>
          </g>
        </g>
        <g
           id="g146">
          <g
             id="g144">
            <path
               id="path142"
               fill="#a4c9ff"
               d="m 97.133,208.919 c -0.938,0.938 -2.457,0.938 -3.395,0 l -3.395,-3.395 c -0.938,-0.938 -0.938,-2.457 0,-3.395 0.937,-0.938 2.457,-0.938 3.395,0 l 3.395,3.395 c 0.938,0.937 0.938,2.457 0,3.395 z" />
          </g>
        </g>
        <g
           id="g152">
          <g
             id="g150">
            <path
               id="path148"
               fill="#f9a7a7"
               d="m 75.65,225.896 c -0.938,0.938 -2.457,0.938 -3.395,0 l -3.395,-3.395 c -0.937,-0.938 -0.937,-2.457 0,-3.395 0.937,-0.938 2.457,-0.938 3.395,0 l 3.395,3.395 c 0.937,0.937 0.937,2.457 0,3.395 z" />
          </g>
        </g>
        <g
           id="g158">
          <g
             id="g156">
            <path
               id="path154"
               fill="#3762cc"
               d="m 84.091,252.845 h -4.824 c -2.574,0 -4.667,-2.094 -4.667,-4.667 0,-1.753 0.961,-3.286 2.412,-4.08 v -0.984 c -4.741,-0.736 -9.206,-2.585 -13.083,-5.417 l -0.695,0.695 c 0.464,1.587 0.061,3.35 -1.179,4.589 -0.882,0.882 -2.054,1.367 -3.3,1.367 -1.247,0 -2.419,-0.485 -3.3,-1.367 l -3.411,-3.411 c -0.881,-0.881 -1.367,-2.053 -1.367,-3.3 0,-1.247 0.485,-2.419 1.367,-3.301 1.24,-1.24 3.003,-1.644 4.59,-1.179 l 0.695,-0.695 c -2.833,-3.876 -4.681,-8.341 -5.417,-13.083 h -0.984 c -0.794,1.451 -2.326,2.412 -4.08,2.412 -2.574,0 -4.667,-2.094 -4.667,-4.667 v -4.824 c 0,-2.574 2.094,-4.668 4.667,-4.668 1.753,0 3.286,0.961 4.08,2.412 h 0.984 c 0.736,-4.742 2.584,-9.206 5.417,-13.083 L 56.635,194.9 c -1.612,0.475 -3.4,0.011 -4.591,-1.18 -0.882,-0.881 -1.368,-2.053 -1.367,-3.3 0,-1.248 0.486,-2.419 1.368,-3.301 l 1.703,-1.704 c 0.009,-0.009 0.018,-0.018 0.027,-0.026 l 1.68,-1.68 c 0.881,-0.882 2.054,-1.367 3.3,-1.367 1.247,0 2.419,0.486 3.3,1.367 1.24,1.239 1.644,3.002 1.179,4.589 l 0.695,0.695 c 3.877,-2.833 8.341,-4.681 13.083,-5.417 v -0.984 c -1.451,-0.793 -2.412,-2.326 -2.412,-4.079 0,-2.574 2.094,-4.667 4.667,-4.667 h 4.824 c 2.574,0 4.668,2.094 4.668,4.667 0,1.753 -0.961,3.285 -2.412,4.079 v 0.985 c 4.742,0.736 9.206,2.584 13.083,5.417 l 0.695,-0.695 c -0.465,-1.587 -0.061,-3.35 1.179,-4.59 1.82,-1.82 4.781,-1.82 6.601,0 l 3.411,3.411 c 1.82,1.82 1.819,4.782 0,6.601 -1.191,1.191 -2.979,1.655 -4.59,1.18 l -0.694,0.694 c 2.832,3.876 4.681,8.341 5.417,13.083 h 0.984 c 0.794,-1.451 2.326,-2.412 4.079,-2.412 2.574,0 4.667,2.094 4.667,4.668 v 4.824 c 0,2.574 -2.094,4.667 -4.667,4.667 -1.753,0 -3.286,-0.961 -4.08,-2.412 h -0.984 c -0.736,4.741 -2.585,9.206 -5.417,13.083 l 0.695,0.695 c 1.586,-0.464 3.35,-0.061 4.589,1.179 1.82,1.82 1.82,4.781 0,6.601 l -3.41,3.411 c -0.883,0.882 -2.055,1.367 -3.301,1.367 -1.246,0 -2.418,-0.485 -3.3,-1.366 -1.24,-1.24 -1.644,-3.003 -1.18,-4.59 l -0.695,-0.695 c -3.877,2.833 -8.342,4.682 -13.083,5.417 v 0.984 c 1.451,0.793 2.412,2.326 2.412,4.079 0.001,2.573 -2.093,4.667 -4.667,4.667 z M 63.763,233.034 c 0.451,0 0.903,0.152 1.274,0.459 4.044,3.345 8.941,5.373 14.162,5.864 1.027,0.097 1.813,0.959 1.813,1.991 v 4.187 c 0,1.03 -0.783,1.892 -1.808,1.991 -0.344,0.033 -0.604,0.313 -0.604,0.651 0,0.368 0.299,0.667 0.667,0.667 h 4.824 c 0.368,0 0.668,-0.299 0.668,-0.667 0,-0.338 -0.26,-0.618 -0.604,-0.651 -1.025,-0.099 -1.808,-0.96 -1.808,-1.991 v -4.188 c 0,-1.032 0.785,-1.895 1.813,-1.991 5.22,-0.491 10.118,-2.519 14.163,-5.864 0.794,-0.658 1.96,-0.603 2.689,0.127 l 2.959,2.959 c 0.728,0.729 0.784,1.891 0.129,2.686 -0.22,0.267 -0.206,0.648 0.033,0.888 0.17,0.17 0.369,0.195 0.472,0.195 0.104,0 0.302,-0.025 0.473,-0.196 l 3.41,-3.41 c 0.17,-0.17 0.195,-0.369 0.195,-0.472 0,-0.104 -0.025,-0.302 -0.196,-0.473 -0.24,-0.238 -0.621,-0.252 -0.888,-0.033 -0.794,0.655 -1.957,0.598 -2.685,-0.13 l -2.959,-2.958 c -0.729,-0.729 -0.785,-1.894 -0.127,-2.689 3.344,-4.044 5.372,-8.941 5.864,-14.162 0.097,-1.027 0.959,-1.813 1.991,-1.813 h 4.187 c 1.03,0 1.892,0.783 1.991,1.808 0.033,0.344 0.313,0.604 0.651,0.604 0.368,0 0.667,-0.299 0.667,-0.667 v -4.824 c 0,-0.368 -0.299,-0.668 -0.667,-0.668 -0.338,0 -0.618,0.26 -0.651,0.605 -0.099,1.025 -0.961,1.807 -1.991,1.807 h -4.187 c -1.032,0 -1.895,-0.785 -1.991,-1.813 -0.492,-5.221 -2.52,-10.118 -5.864,-14.162 -0.658,-0.795 -0.603,-1.959 0.127,-2.688 l 2.959,-2.959 c 0.728,-0.729 1.891,-0.785 2.686,-0.129 0.128,0.106 0.272,0.162 0.415,0.162 0.103,0 0.302,-0.025 0.473,-0.196 0.26,-0.26 0.26,-0.684 0,-0.944 l -3.411,-3.411 c -0.171,-0.171 -0.391,-0.159 -0.472,-0.195 -0.103,0 -0.302,0.025 -0.472,0.195 -0.239,0.239 -0.253,0.621 -0.033,0.888 0.655,0.795 0.599,1.958 -0.129,2.686 l -2.959,2.959 c -0.729,0.729 -1.895,0.785 -2.688,0.126 -4.044,-3.345 -8.942,-5.372 -14.162,-5.863 -1.027,-0.097 -1.813,-0.959 -1.813,-1.991 v -4.188 c 0,-1.03 0.782,-1.892 1.807,-1.991 0.345,-0.033 0.605,-0.313 0.605,-0.651 0,-0.368 -0.3,-0.667 -0.668,-0.667 h -4.824 c -0.368,0 -0.667,0.299 -0.667,0.667 0,0.338 0.26,0.618 0.604,0.651 1.025,0.099 1.808,0.96 1.808,1.991 v 4.188 c 0,1.032 -0.785,1.895 -1.813,1.991 -5.22,0.491 -10.118,2.519 -14.162,5.863 -0.794,0.657 -1.959,0.602 -2.688,-0.126 l -2.959,-2.959 c -0.729,-0.729 -0.785,-1.891 -0.129,-2.686 0.22,-0.267 0.206,-0.648 -0.033,-0.887 -0.17,-0.17 -0.369,-0.196 -0.472,-0.196 -0.103,0 -0.302,0.025 -0.472,0.195 l -1.705,1.705 c -0.008,0.009 -0.017,0.018 -0.026,0.026 l -1.68,1.68 c -0.171,0.171 -0.196,0.369 -0.196,0.472 0,0.104 0.025,0.302 0.195,0.472 0.17,0.171 0.369,0.196 0.472,0.196 0.141,0 0.288,-0.058 0.415,-0.162 0.795,-0.656 1.958,-0.599 2.687,0.129 l 2.959,2.959 c 0.729,0.729 0.784,1.894 0.126,2.688 -3.345,4.044 -5.372,8.941 -5.863,14.162 -0.097,1.027 -0.959,1.813 -1.991,1.813 h -4.188 c -1.03,0 -1.892,-0.783 -1.991,-1.808 -0.033,-0.344 -0.313,-0.604 -0.651,-0.604 -0.368,0 -0.667,0.3 -0.667,0.668 v 4.824 c 0,0.368 0.299,0.667 0.667,0.667 0.338,0 0.618,-0.26 0.651,-0.604 0.099,-1.025 0.96,-1.808 1.991,-1.808 h 4.188 c 1.032,0 1.895,0.785 1.991,1.813 0.491,5.221 2.519,10.118 5.863,14.162 0.658,0.795 0.603,1.959 -0.127,2.688 l -2.959,2.959 c -0.728,0.727 -1.891,0.784 -2.686,0.129 -0.267,-0.219 -0.648,-0.205 -0.888,0.033 -0.17,0.17 -0.195,0.369 -0.195,0.472 0,0.103 0.025,0.301 0.195,0.471 l 1.699,1.699 c 0.005,0.005 0.01,0.011 0.016,0.016 l 1.697,1.697 c 0.17,0.17 0.369,0.195 0.472,0.195 0.103,0 0.302,-0.025 0.473,-0.196 0.238,-0.238 0.252,-0.62 0.033,-0.887 -0.655,-0.795 -0.599,-1.958 0.129,-2.686 l 2.959,-2.959 c 0.386,-0.386 0.898,-0.583 1.412,-0.583 z" />
          </g>
        </g>
      </g>
      <g
         id="g166">
        <g
           id="g164">
          <path
             id="path162"
             fill="#3762cc"
             d="m 39.529,215.029 c -1.104,0 -2,-0.896 -2,-2 V 175.8 c 0,-1.104 0.896,-2 2,-2 1.104,0 2,0.896 2,2 v 37.229 c 0,1.104 -0.895,2 -2,2 z" />
        </g>
      </g>
      <g
         id="g172">
        <g
           id="g170">
          <path
             id="path168"
             fill="#3762cc"
             d="m 124.529,215.029 c -1.104,0 -2,-0.896 -2,-2 V 175.8 c 0,-1.104 0.896,-2 2,-2 1.104,0 2,0.896 2,2 v 37.229 c 0,1.104 -0.895,2 -2,2 z" />
        </g>
      </g>
      <g
         id="g178">
        <g
           id="g176">
          <path
             id="path174"
             fill="#3762cc"
             d="M 39.529,215.029 H 18.662 c -1.104,0 -2,-0.896 -2,-2 v -21.536 c 0,-1.104 0.896,-2 2,-2 H 39.53 c 1.104,0 2,0.896 2,2 v 21.536 c -10e-4,1.104 -0.896,2 -2.001,2 z m -18.867,-4 H 37.53 V 193.493 H 20.662 Z" />
        </g>
      </g>
      <g
         id="g184">
        <g
           id="g182">
          <path
             id="path180"
             fill="#3762cc"
             d="m 145.397,215.029 h -20.868 c -1.104,0 -2,-0.896 -2,-2 v -21.536 c 0,-1.104 0.896,-2 2,-2 h 20.868 c 1.104,0 2,0.896 2,2 v 21.536 c 0,1.104 -0.896,2 -2,2 z m -18.868,-4 h 16.868 v -17.536 h -16.868 z" />
        </g>
      </g>
      <g
         id="g200">
        <g
           id="g198">
          <g
             id="g190">
            <g
               id="g188">
              <path
                 id="path186"
                 fill="#3762cc"
                 d="m 54.712,94.632 c -0.704,0 -1.386,-0.372 -1.751,-1.031 -0.535,-0.966 -0.186,-2.184 0.78,-2.719 L 64.276,85.046 53.741,79.211 c -0.966,-0.535 -1.315,-1.752 -0.78,-2.719 0.535,-0.967 1.752,-1.315 2.719,-0.78 l 13.693,7.585 c 0.636,0.353 1.031,1.022 1.031,1.75 0,0.728 -0.395,1.397 -1.031,1.75 L 55.68,94.381 c -0.307,0.17 -0.64,0.251 -0.968,0.251 z" />
            </g>
          </g>
          <g
             id="g196">
            <g
               id="g194">
              <path
                 id="path192"
                 fill="#3762cc"
                 d="m 109.301,94.632 c -0.328,0 -0.66,-0.081 -0.967,-0.251 L 94.64,86.796 c -0.636,-0.353 -1.031,-1.022 -1.031,-1.75 0,-0.728 0.395,-1.397 1.031,-1.75 l 13.694,-7.585 c 0.968,-0.535 2.184,-0.186 2.719,0.78 0.535,0.966 0.186,2.184 -0.78,2.719 l -10.536,5.835 10.536,5.836 c 0.966,0.535 1.315,1.752 0.78,2.719 -0.365,0.66 -1.048,1.032 -1.752,1.032 z" />
            </g>
          </g>
        </g>
      </g>
    </g>
  </g>
</svg>
