<svg id="Layer_1" enable-background="new 0 0 256 256" height="512" viewBox="0 0 256 256" width="512" xmlns="http://www.w3.org/2000/svg"><path d="m204.258 248h-149.053v-20.956c0-19.208 15.571-34.779 34.779-34.779h79.495c19.208 0 34.779 15.571 34.779 34.779z" fill="#6bdddd"/><path d="m194.755 101.107c-.138 0-.271.018-.408.02v-6.042c0-35.316-28.929-63.945-64.615-63.945-35.686 0-64.615 28.629-64.615 63.945v6.042c-.137-.003-.271-.02-.408-.02-10.887 0-19.713 8.734-19.713 19.509 0 10.774 8.826 19.509 19.713 19.509.715 0 1.42-.042 2.115-.116 6.668 28.289 32.292 49.369 62.908 49.369 30.616 0 56.24-21.08 62.908-49.369.695.073 1.4.116 2.115.116 10.887 0 19.713-8.734 19.713-19.509-.001-10.775-8.826-19.509-19.713-19.509z" fill="#f9cfcf"/><path d="m142.224 161.093c-1.104 0-2-.896-2-2 0-1.589-.701-3.124-2.029-4.438-1.17-1.159-2.767-2.063-4.616-2.616-1.114-.333-2.375-.495-3.854-.495-1.48 0-2.741.162-3.854.495-1.85.553-3.446 1.458-4.618 2.616-1.327 1.314-2.028 2.849-2.028 4.438 0 1.104-.896 2-2 2s-2-.896-2-2c0-2.642 1.142-5.227 3.214-7.28 1.636-1.62 3.81-2.867 6.287-3.606 1.49-.445 3.126-.662 5-.662 1.873 0 3.509.217 5 .663 2.476.739 4.649 1.986 6.285 3.605 2.073 2.052 3.215 4.638 3.215 7.28-.002 1.104-.898 2-2.002 2z" fill="#3762cc"/><path d="m97.76 134.494c-4.086 0-7.411-3.319-7.411-7.399v-12.333c0-4.08 3.324-7.4 7.411-7.4 4.085 0 7.409 3.32 7.409 7.4v12.333c.001 4.08-3.323 7.399-7.409 7.399z" fill="#3762cc"/><path d="m161.672 134.494c-4.086 0-7.411-3.319-7.411-7.399v-12.333c0-4.08 3.324-7.4 7.411-7.4 4.085 0 7.409 3.32 7.409 7.4v12.333c.001 4.08-3.323 7.399-7.409 7.399z" fill="#3762cc"/><path d="m134.507 189.184c-.261.02-.521.042-.783.06-.405.025-.811.046-1.219.063-.92.041-1.844.07-2.774.07-.931 0-1.855-.029-2.775-.07-.408-.017-.814-.039-1.219-.063-.261-.017-.52-.039-.78-.059-9.516-.689-18.461-3.402-26.384-7.733v7.425c0 17.262 13.501 31.256 30.156 31.256h2.005c16.655 0 30.156-13.994 30.156-31.256v-7.425c-7.923 4.33-16.868 7.043-26.383 7.732z" fill="#f9cfcf"/><path d="m204.258 250h-149.053c-1.104 0-2-.896-2-2v-20.957c0-20.28 16.499-36.779 36.779-36.779h6.619c-.02-.467-.029-.931-.029-1.389v-7.424c0-.706.373-1.36.98-1.72.607-.361 1.361-.373 1.979-.035 7.894 4.314 16.497 6.835 25.57 7.493l.766.059c.383.023.777.044 1.173.061 1.793.08 3.592.08 5.375 0 .401-.017.795-.038 1.188-.062l.745-.057c9.085-.658 17.687-3.18 25.581-7.494.619-.338 1.372-.326 1.979.035s.979 1.014.979 1.72v7.425c0 .458-.01.922-.029 1.389h6.618c20.28 0 36.779 16.499 36.779 36.779v20.956c.001 1.104-.895 2-1.999 2zm-147.053-4h145.053v-18.957c0-18.074-14.705-32.779-32.779-32.779h-8.769c-.566 0-1.106-.24-1.485-.661-.38-.421-.563-.983-.504-1.546.112-1.074.169-2.145.169-3.181v-4.146c-7.575 3.665-15.712 5.832-24.238 6.449l-.797.061c-.427.026-.846.048-1.265.065-1.889.086-3.822.086-5.724 0-.413-.018-.832-.04-1.25-.064l-.816-.063c-8.516-.617-16.652-2.783-24.227-6.448v4.146c0 1.035.057 2.106.168 3.182.059.563-.125 1.125-.504 1.546-.379.42-.919.661-1.485.661h-8.769c-18.075 0-32.779 14.705-32.779 32.779v18.956z" fill="#3762cc"/><path d="m129.731 191.377c-30.546 0-56.805-20.17-64.444-49.262-.195.005-.388.008-.579.008-11.973 0-21.713-9.648-21.713-21.508 0-11.33 8.889-20.642 20.122-21.452v-4.078c0-36.362 29.883-65.945 66.615-65.945s66.614 29.583 66.614 65.945v4.078c11.232.81 20.122 10.122 20.122 21.452 0 12.05-10.076 21.858-22.292 21.5-7.64 29.092-33.898 49.262-64.445 49.262zm-62.906-53.369c.917 0 1.73.63 1.945 1.541 6.638 28.161 31.706 47.828 60.961 47.828 29.256 0 54.324-19.667 60.962-47.828.23-.981 1.155-1.643 2.157-1.53.663.07 1.286.104 1.904.104 9.767 0 17.713-7.854 17.713-17.508 0-9.653-7.943-17.506-17.707-17.509-.182.012-.28.019-.38.02-.544.007-1.055-.197-1.437-.573-.383-.376-.599-.89-.599-1.427v-6.042c0-34.157-28.089-61.945-62.614-61.945-34.526 0-62.615 27.788-62.615 61.945v6.042c0 .537-.216 1.051-.599 1.427-.382.376-.872.608-1.437.573-.1-.001-.198-.008-.296-.015-.003 0-.007 0-.01 0-9.839 0-17.78 7.852-17.78 17.503 0 9.654 7.946 17.508 17.713 17.508.618 0 1.24-.034 1.904-.104.074-.007.144-.01.215-.01z" fill="#3762cc"/><path d="m43.888 78.471c-2.924-7.829-3.132-16.414-.59-24.376l.218-.684c4.158-13.024 15.113-22.727 28.544-25.282 6.34-1.206 12.884-.745 18.992 1.337l.713.243c.041.37.103.742.194 1.111 2.933 11.989 8.317 23.038 15.632 32.533-6.349 17.689-14.117 27.773-20.039 33.357v.002l-7.773 7.889-15.072-3.494c-4.118 0-7.939 1.253-11.101 3.39z" fill="#4671c6"/><path d="m206.305 51.659c-5.07-15.73-16.649-28.23-31.454-34.392l.001-.008c-52.045-25.619-80.51 5.289-80.51 5.289-2.142 2.062-3.136 5.197-2.384 8.273 5.975 24.423 22.073 44.985 44.102 56.333l.031.016c4.756 2.45 9.721 4.45 14.835 5.976 1.272.38 2.297-1.093 1.527-2.192l-10.701-15.271c-.933-1.331.706-2.956 1.978-1.959 11.833 9.266 34.824 24.616 58.08 25.387l3.787-10.371c4.354-11.921 4.603-24.997.708-37.081z" fill="#4671c6"/><path d="m79.78 106.601c-.15 0-.302-.017-.452-.052l-14.843-3.441c-3.5.042-6.869 1.094-9.758 3.046-.508.343-1.146.435-1.729.248-.584-.187-1.05-.631-1.264-1.205l-9.719-26.027c-3.067-8.212-3.288-17.333-.622-25.684l.219-.685c4.385-13.735 15.909-23.943 30.075-26.637 6.667-1.268 13.585-.781 20.011 1.409l.713.243c.734.25 1.257.902 1.343 1.673.033.301.083.589.149.858 2.845 11.63 7.984 22.325 15.274 31.786.416.54.528 1.255.298 1.896-6.619 18.441-14.828 28.742-20.549 34.136l-7.72 7.839c-.382.387-.897.597-1.426.597zm-15.072-7.495c.152 0 .304.018.452.052l13.98 3.242 6.987-7.092c5.351-5.047 12.931-14.559 19.211-31.612-7.279-9.688-12.431-20.582-15.323-32.4-.006-.024-.012-.049-.018-.073-5.654-1.852-11.718-2.242-17.565-1.129-12.722 2.42-23.072 11.587-27.01 23.925l-.219.685c-2.394 7.499-2.195 15.691.559 23.067l8.882 23.785c3.094-1.609 6.528-2.45 10.064-2.45z" fill="#3762cc"/><path d="m201.811 101.111c-.021 0-.044 0-.066-.001-21.966-.728-43.603-14.088-56.174-23.463l8.521 12.159c.854 1.218.843 2.784-.027 3.989-.856 1.188-2.314 1.684-3.709 1.268-5.218-1.557-10.325-3.614-15.179-6.115-22.593-11.638-39.042-32.646-45.16-57.652-.895-3.657.216-7.54 2.899-10.15.688-.731 7.984-8.247 21.535-12.748 12.783-4.247 33.793-6.467 61.285 7.066.018.008.034.017.051.026 15.41 6.472 27.223 19.422 32.423 35.555 4.016 12.458 3.755 26.089-.732 38.38l-3.787 10.371c-.291.792-1.043 1.315-1.88 1.315zm-58.936-29.7c.727 0 1.458.245 2.089.738 11.25 8.809 33.216 23.569 55.472 24.896l3.283-8.991c4.184-11.459 4.427-24.166.684-35.782-4.859-15.076-15.91-27.162-30.319-33.16-.095-.039-.185-.085-.271-.137-20.655-10.129-40.669-12.499-57.891-6.851-13.048 4.279-20.041 11.706-20.11 11.781-.026.028-.055.058-.082.084-1.689 1.625-2.389 4.061-1.828 6.356 5.842 23.88 21.542 43.938 43.076 55.031 4.146 2.136 8.461 3.925 12.868 5.341l-9.731-13.886c-.988-1.41-.8-3.292.448-4.475.661-.627 1.484-.945 2.312-.945z" fill="#3762cc"/><path d="m173.501 111.745c-.133 0-.267-.013-.401-.041l-23.352-4.764c-1.083-.221-1.781-1.277-1.561-2.359s1.279-1.783 2.359-1.56l23.352 4.764c1.083.221 1.781 1.277 1.561 2.359-.193.947-1.027 1.601-1.958 1.601z" fill="#3762cc"/><path d="m85.945 111.745c-.931 0-1.764-.653-1.958-1.601-.221-1.083.478-2.139 1.56-2.359l23.352-4.764c1.083-.225 2.139.478 2.359 1.56.221 1.083-.478 2.139-1.56 2.359l-23.352 4.764c-.134.027-.268.041-.401.041z" fill="#3762cc"/><g fill="#f9a7a7"><path d="m129.731 240.403c-15.856 0-28.757-12.9-28.757-28.757s12.9-28.757 28.757-28.757 28.757 12.9 28.757 28.757-12.9 28.757-28.757 28.757zm0-53.514c-13.651 0-24.757 11.106-24.757 24.757s11.106 24.757 24.757 24.757 24.757-11.106 24.757-24.757-11.105-24.757-24.757-24.757z"/><path d="m129.731 231.637c-11.023 0-19.991-8.968-19.991-19.991s8.968-19.991 19.991-19.991 19.991 8.968 19.991 19.991-8.967 19.991-19.991 19.991zm0-35.982c-8.817 0-15.991 7.174-15.991 15.991s7.174 15.991 15.991 15.991 15.991-7.174 15.991-15.991-7.173-15.991-15.991-15.991z"/><circle cx="129.731" cy="211.646" r="9.545"/><path d="m167.178 223.621c.827.146 1.679-.241 2.058-.999l5.194-10.385 2.239 2.767c.396.49 1.02.762 1.657.725.64-.037 1.214-.378 1.531-.909l6.283-10.525c.526-.881.203-2.015-.722-2.533-.923-.518-2.1-.224-2.626.657l-4.866 8.152-2.384-2.947c-.411-.509-1.064-.781-1.727-.72-.662.061-1.239.447-1.526 1.021l-6.53 13.055c-.458.916-.051 2.026.909 2.479.167.078.338.131.51.162z"/><path d="m92.284 223.621c-.827.146-1.679-.241-2.058-.999l-5.194-10.385-2.239 2.767c-.396.49-1.02.762-1.657.725-.64-.037-1.214-.378-1.531-.909l-6.283-10.525c-.526-.881-.203-2.015.722-2.533.923-.518 2.1-.224 2.626.657l4.866 8.152 2.384-2.947c.411-.509 1.064-.781 1.727-.72.662.061 1.239.447 1.526 1.021l6.53 13.055c.458.916.051 2.026-.909 2.479-.166.078-.337.131-.51.162z"/><path d="m167.178 202.757c.827.146 1.679-.241 2.058-.999l5.194-10.385 2.239 2.767c.396.49 1.02.762 1.657.725.64-.037 1.214-.378 1.531-.909l6.283-10.525c.526-.881.203-2.015-.722-2.533-.923-.518-2.1-.224-2.626.657l-4.866 8.152-2.384-2.947c-.411-.509-1.064-.781-1.727-.72-.662.061-1.239.447-1.526 1.021l-6.53 13.055c-.458.916-.051 2.026.909 2.479.167.078.338.131.51.162z"/><path d="m92.284 202.757c-.827.146-1.679-.241-2.058-.999l-5.194-10.385-2.239 2.767c-.396.49-1.02.762-1.657.725-.64-.037-1.214-.378-1.531-.909l-6.283-10.525c-.526-.881-.203-2.015.722-2.533.923-.518 2.1-.224 2.626.657l4.866 8.152 2.384-2.947c.411-.509 1.064-.781 1.727-.72.662.061 1.239.447 1.526 1.021l6.53 13.055c.458.916.051 2.026-.909 2.479-.166.078-.337.131-.51.162z"/></g></svg>