<?xml version="1.0" encoding="UTF-8" standalone="no"?>
<svg
   xmlns:dc="http://purl.org/dc/elements/1.1/"
   xmlns:cc="http://creativecommons.org/ns#"
   xmlns:rdf="http://www.w3.org/1999/02/22-rdf-syntax-ns#"
   xmlns:svg="http://www.w3.org/2000/svg"
   xmlns="http://www.w3.org/2000/svg"
   xmlns:sodipodi="http://sodipodi.sourceforge.net/DTD/sodipodi-0.dtd"
   xmlns:inkscape="http://www.inkscape.org/namespaces/inkscape"
   id="b6fe4ea4-91cd-4e88-acbb-2663d3326f54"
   data-name="Layer 1"
   width="1013.02965"
   height="844.99456"
   viewBox="0 0 1013.02965 844.99456"
   version="1.1"
   sodipodi:docname="thingking-new-employee.svg"
   inkscape:version="1.0 (1.0+r73+1)">
  <metadata
     id="metadata79">
    <rdf:RDF>
      <cc:Work
         rdf:about="">
        <dc:format>image/svg+xml</dc:format>
        <dc:type
           rdf:resource="http://purl.org/dc/dcmitype/StillImage" />
        <dc:title>new_ideas</dc:title>
      </cc:Work>
    </rdf:RDF>
  </metadata>
  <defs
     id="defs77" />
  <sodipodi:namedview
     inkscape:document-rotation="0"
     pagecolor="#ffffff"
     bordercolor="#666666"
     borderopacity="1"
     objecttolerance="10"
     gridtolerance="10"
     guidetolerance="10"
     inkscape:pageopacity="0"
     inkscape:pageshadow="2"
     inkscape:window-width="1366"
     inkscape:window-height="742"
     id="namedview75"
     showgrid="false"
     inkscape:zoom="0.51749004"
     inkscape:cx="969.99171"
     inkscape:cy="402.23426"
     inkscape:window-x="0"
     inkscape:window-y="0"
     inkscape:window-maximized="1"
     inkscape:current-layer="g105" />
  <title
     id="title2">new_ideas</title>
  <g
     id="g111">
    <path
       transform="translate(-93.48517 -27.50272)"
       id="path4"
       fill="#0072c6"
       d="M1050.48389,297.81272c0,35.17-8.33,64.12-22.7799,88.92a177.67758,177.67758,0,0,1-16.19,23.25c-53.12,64.97-151.88,100.53-241.14,158.13-263.48,170.02-292.02-102.42-280.12-270.3,4.8-67.74,31.18-129.79,73.09-177.3a278.22062,278.22062,0,0,1,28.45-27.97c47.58-40.52,109.05-65.04,178.58-65.04,119.29,0,221.16,71.95,261.55,173.34a261.84957,261.84957,0,0,1,18.55993,96.97Z" />
    <g
       transform="translate(-396.74265,417.94682)"
       id="g1424">
      <path
         id="path340"
         style="fill:#d2e4ff;fill-opacity:1;fill-rule:nonzero;stroke:none;stroke-width:0.0666835"
         d="m 1050.0284,-322.90078 v 113.82908 c 0,7.28186 -2.6273,13.94356 -6.9884,19.09821 -5.4214,6.4083 -13.5301,10.48268 -22.5858,10.48268 H 906.61849 c -7.47524,0 -14.29699,-2.76738 -19.49831,-7.34188 -6.18158,-5.42138 -10.08258,-13.37008 -10.08258,-22.23901 v -113.82908 c 0,-16.33751 13.24338,-29.58089 29.58089,-29.58089 h 113.83571 c 16.3375,0 29.5742,13.24338 29.5742,29.58089" />
      <path
         id="path342"
         style="fill:#2c3a64;fill-opacity:1;fill-rule:nonzero;stroke:none;stroke-width:0.0666835"
         d="m 951.44994,-246.56128 c 0,0 -18.57141,-0.93357 -19.09154,-11.64964 -0.52013,-10.71607 -15.86406,-18.5314 -11.41625,-27.1336 5.44806,-10.54936 0.47346,-20.69862 7.35521,-27.7871 7.57527,-7.822 17.15105,-3.57424 22.20567,-8.12874 5.04796,-4.5545 14.28365,-8.7489 23.39264,-3.12746 9.109,5.6281 16.06413,2.60066 22.05231,8.02204 6.61502,5.98153 4.10772,13.51679 9.56242,17.61117 5.0013,3.74762 2.9674,13.99691 -1.2469,22.3257 -3.0342,6.00153 3.961,11.62964 -8.05545,18.52474 -4.99463,2.87406 -3.91435,10.0959 -19.09155,11.34289 -6.84175,0.56015 -21.67887,-2.64067 -25.66656,0" />
      <path
         id="path344"
         style="fill:#b56f40;fill-opacity:1;fill-rule:nonzero;stroke:none;stroke-width:0.0666835"
         d="m 952.00342,-256.0637 c 0,0 -0.54014,16.74427 -2.68069,24.24619 l -16.96433,11.82968 63.84965,9.55578 -15.2239,-21.03871 c 0,0 -4.60117,-22.4524 -2.18722,-30.75452 2.41395,-8.30879 -26.79351,6.16158 -26.79351,6.16158" />
      <path
         id="path346"
         style="fill:#99592e;fill-opacity:1;fill-rule:nonzero;stroke:none;stroke-width:0.0666835"
         d="m 951.91006,-253.74978 c 0,-0.007 5.05462,12.14977 14.56372,11.88303 9.5091,-0.26673 11.67631,-11.02281 11.67631,-11.02281 l -26.24003,-0.86022" />
      <path
         id="path348"
         style="fill:#b56f40;fill-opacity:1;fill-rule:nonzero;stroke:none;stroke-width:0.0666835"
         d="m 965.38017,-246.56128 c -6.88843,-0.12003 -19.57167,-9.30237 -19.57167,-20.66528 v -17.73119 c 0,-4.14773 2.89407,-7.5486 6.42831,-7.5486 h 26.29338 c 3.53424,0 6.42828,3.40087 6.42828,7.5486 v 16.73093 c 0,11.91638 -11.66962,21.80558 -19.5783,21.66554" />
      <path
         id="path350"
         style="fill:#b64c41;fill-opacity:1;fill-rule:nonzero;stroke:none;stroke-width:0.0666835"
         d="m 1002.6964,-227.203 c 0,0 -0.01,0 -0.01,0 -7.72867,-1.94049 -14.99723,-3.48756 -21.70558,-4.26776 -5.93485,7.86868 -10.1826,9.96922 -15.60399,12.10976 -8.71556,-1.20697 -16.05743,-12.20978 -16.05743,-12.45651 -9.49576,0.96691 -15.89073,2.97409 -18.50473,3.78763 0,0 -0.007,0 -0.0267,0.007 -0.76019,0.10003 -17.73786,2.72736 -43.67115,41.46393 5.20133,4.56783 12.02307,7.3352 19.49832,7.3352 h 11.72299 9.46908 80.64729 c -0.01,-0.0867 -0.01,-0.17338 -0.014,-0.26673 h 12.0097 c 9.0557,0 17.1644,-4.07438 22.5858,-10.48268 -18.2246,-31.28799 -40.3436,-37.22951 -40.3436,-37.22951" />
      <path
         id="path352"
         style="fill:#2c3a64;fill-opacity:1;fill-rule:nonzero;stroke:none;stroke-width:0.0666835"
         d="m 945.8085,-277.76925 c 0,0 4.78122,-14.59706 20.45189,-12.32315 15.67731,2.28058 17.03101,5.62811 18.69808,9.5091 1.66713,3.88766 4.8813,-14.19696 4.8813,-14.19696 l -18.48475,-5.49474 c 0,0 -22.37237,2.54731 -23.97945,6.29494 -1.60708,3.7543 -1.60708,3.7543 -1.60708,3.7543 l 0.04,12.45651" />
      <path
         id="path354"
         style="fill:#2c3a64;fill-opacity:1;fill-rule:nonzero;stroke:none;stroke-width:0.0666835"
         d="m 983.51145,-272.28785 c -0.48677,2.41395 -2.30057,3.95434 -5.38803,4.58117 -2.35393,0.48679 -4.59451,0.22005 -4.61451,0.21339 h -0.0334 c -2.29391,0 -3.921,-1.33368 -5.11464,-4.20108 -0.16671,-0.38009 -0.50012,-1.28032 -0.58014,-2.22723 0,-0.007 0,-0.007 0,-0.007 0.16004,0.06 0.31341,0.13337 0.47345,0.22005 0.16004,0.08 0.36009,0.02 0.44011,-0.14003 0.0867,-0.16004 0.0267,-0.35342 -0.13336,-0.44011 -0.26007,-0.14004 -0.52014,-0.24007 -0.7802,-0.33342 0,-0.007 0,-0.007 0,-0.007 0.0334,-0.44678 0.1467,-0.87355 0.38676,-1.23365 0.48679,-0.74018 1.44037,-1.10695 2.82739,-1.10695 h 8.31546 c 1.47371,0 2.76736,0.54014 3.53425,1.48038 0.68683,0.83355 0.92024,1.94717 0.66682,3.20082 z m -20.51856,-1.58041 c -0.0934,0.92691 -0.42678,1.80046 -0.57348,2.17389 -1.2003,2.8674 -2.82739,4.20108 -5.12131,4.20108 h -0.0333 c -0.0267,0.007 -2.26058,0.2734 -4.61452,-0.21339 -3.08745,-0.62683 -4.90125,-2.16722 -5.38804,-4.58117 -0.24673,-1.25365 -0.0267,-2.36727 0.66684,-3.20082 0.76686,-0.94024 2.06052,-1.48038 3.53423,-1.48038 h 8.32213 c 1.38702,0 2.33393,0.36677 2.82739,1.10695 0.24673,0.37343 0.36009,0.82688 0.38677,1.287 v 0.007 c -0.42011,0.13337 -0.69352,0.2534 -0.72686,0.2734 -0.16671,0.0734 -0.24006,0.26674 -0.16671,0.43345 0.06,0.12003 0.18005,0.18671 0.30008,0.18671 0.0467,0 0.0934,-0.007 0.14003,-0.0267 0.007,-0.007 0.17338,-0.08 0.44678,-0.17338 0,0 0,0.007 0,0.007 z m 20.2785,-1.96716 c -0.88022,-1.07361 -2.32058,-1.68043 -3.961,-1.68043 h -8.31546 c -1.58707,0 -2.68735,0.44678 -3.2875,1.34701 -0.28007,0.41344 -0.42011,0.88689 -0.46679,1.38035 0,0 0,0 0,0 -1.39369,-0.34676 -2.75403,-0.16671 -3.70094,0.0667 v 0 -0.007 c -0.04,-0.50679 -0.18672,-1.00692 -0.47346,-1.44036 -0.59348,-0.90023 -1.70043,-1.34701 -3.28084,-1.34701 h -8.32212 c -1.64042,0 -3.08746,0.60682 -3.96101,1.68043 -0.79354,0.96691 -1.06027,2.2339 -0.77353,3.65426 0.9469,4.70787 6.36162,5.30802 9.06898,5.30802 0.83354,0 1.40703,-0.06 1.51372,-0.0734 2.53398,-0.007 4.31443,-1.44703 5.6081,-4.54116 0.22006,-0.53346 0.58015,-1.52039 0.63349,-2.55398 v 0 c 0.90023,-0.24006 2.28058,-0.46012 3.66761,-0.0734 v 0 c 0.04,1.06027 0.40677,2.08719 0.62682,2.62733 1.30034,3.09413 3.08079,4.53449 5.61477,4.54116 0.10669,0.0134 0.68018,0.0734 1.51372,0.0734 2.70736,0 8.12205,-0.60015 9.06899,-5.30135 0.28672,-1.42703 0.02,-2.69402 -0.77355,-3.66093" />
    </g>
    <path
       id="path6"
       fill="#d0cde1"
       transform="translate(-93.48517 -27.50272)"
       d="M830.054,88.4227l-266.71,32.09a278.22062,278.22062,0,0,1,28.45-27.97Z" />
    <g
       transform="translate(129.39756,588.06172)"
       id="g1744">
      <path
         id="path442"
         style="fill:#d2e4ff;fill-opacity:1;fill-rule:nonzero;stroke:none;stroke-width:0.0544064"
         d="m 766.45181,-237.8771 v 55.83926 l -11.28101,10.04697 -12.53952,9.56941 c -12.78705,9.7583 -13.77982,11.1725 -25.68104,17.12544 -5.34195,2.67202 -31.35067,3.63905 -33.18957,4.30802 -2.72577,0.89226 -20.6309,-1.47271 -21.93073,1.25879 l -17.83194,37.47278 h -13.17067 c -15.45144,0 -27.97581,-12.52437 -27.97581,-27.97418 V -237.8771 c 0,-15.44981 12.52437,-27.97418 27.97581,-27.97418 H 738.476 c 15.45144,0 27.97581,12.52437 27.97581,27.97418"
         sodipodi:nodetypes="cccsscscsssssc" />
      <path
         id="path444"
         style="fill:#233862;fill-opacity:1;fill-rule:nonzero;stroke:none;stroke-width:0.0544064"
         d="m 685.58202,-237.3178 v 0 c -3.00868,-0.72197 -6.51246,-0.8939 -10.5875,-0.30957 0,0 -7.29592,0.71816 -14.15657,5.35141 -5.45697,3.68387 -13.32959,11.63755 -4.52662,33.45401 l 4.17298,7.50265 c -1.39281,16.34425 -8.07937,16.34589 -8.07937,16.34589 0,0 2.92707,1.44122 4.3362,1.44122 0,0 2.06201,-0.78726 2.47005,-1.92762 0,0 -0.40804,1.79161 -0.93579,2.36179 0,0 11.3492,1.07507 17.01835,-3.2089 3.07941,-2.32968 6.45261,-7.79481 8.62887,-13.36549 l 8.58534,0.60391 c 0.0925,3.69202 -1.22959,7.91505 -5.35904,12.32579 0,0 10.58751,1.03862 14.17289,-1.89335 0,0 -0.70729,1.42926 -1.36016,2.0718 0,0 11.83885,0.42546 16.72455,-3.26656 4.89115,-3.69203 1.75189,-64.25787 -31.10418,-57.48698" />
      <path
         id="path446"
         style="fill:#d9935c;fill-opacity:1;fill-rule:nonzero;stroke:none;stroke-width:0.0544064"
         d="m 683.81656,-133.05748 -41.03068,30.80105 c -1.0174,-6.50158 -1.64308,-12.5679 -1.25135,-18.3883 0.4951,-7.31006 3.7214,-13.89161 7.52986,-19.23651 6.20778,-8.71646 13.95526,-14.15765 13.95526,-14.15765 0,0 0.19586,-0.0397 0.52774,-0.0963 0.59847,-0.10501 1.6322,-0.27095 2.73664,-0.37106 h 0.0164 c 1.03916,-0.55059 1.46353,-4.3449 1.5941,-8.79045 0.0326,-1.23666 0.0435,-2.52012 0.0435,-3.79921 -0.005,-1.10554 -0.0218,-2.21924 -0.0435,-3.31499 -0.0164,-0.51142 -0.0272,-1.0174 -0.0435,-1.51957 -0.005,-0.14418 -0.005,-0.28455 -0.0109,-0.42383 -0.005,-0.21436 -0.0164,-0.42383 -0.0218,-0.63328 -0.005,-0.16159 -0.0109,-0.32318 -0.0164,-0.48423 -0.005,-0.25353 -0.0218,-0.49836 -0.0272,-0.74264 -0.0163,-0.33189 -0.0272,-0.6556 -0.038,-0.97443 -0.005,-0.0691 -0.0109,-0.13547 -0.0109,-0.20457 -0.0109,-0.30141 -0.0272,-0.59411 -0.038,-0.88247 -0.0164,-0.34929 -0.038,-0.69041 -0.0544,-1.01304 l -0.0109,-0.24918 c -0.0272,-0.51958 -0.0544,-1.00435 -0.0816,-1.44069 -0.005,-0.11806 -0.0109,-0.23613 -0.0164,-0.34984 -0.005,-0.13547 -0.0109,-0.26169 -0.0217,-0.3841 -0.0109,-0.12241 -0.0109,-0.23994 -0.0218,-0.34929 -0.0218,-0.3667 -0.0435,-0.67682 -0.0599,-0.92601 0,-0.0566 -0.005,-0.10935 -0.0109,-0.16158 -0.005,-0.0609 -0.005,-0.11752 -0.0109,-0.16594 -0.0164,-0.23122 -0.0218,-0.35419 -0.0218,-0.35419 l 14.14568,-2.79866 h 0.005 l 9.68979,-1.9211 1.1371,-0.22361 0.2829,-0.0561 v 0.0174 c -0.0109,3.63272 0.19043,6.99613 0.54408,10.05269 0.29379,2.58974 0.70728,4.96567 1.18606,7.10494 v 0.004 c 1.76277,7.81713 4.51029,12.52546 6.49613,13.30185 v 0 c 0.0708,0.031 0.13601,0.0528 0.20131,0.0702"
         sodipodi:nodetypes="cccccccccccccccccccccccsccccccccccscccssc" />
      <path
         id="path448"
         style="fill:#cb7d45;fill-opacity:1;fill-rule:nonzero;stroke:none;stroke-width:0.0544064"
         d="m 667.37761,-181.66868 c 0,0 0.53862,7.50429 0.55494,14.57332 13.34591,-0.3754 20.39699,-12.5483 23.28598,-19.29471 l -23.84092,4.72139" />
      <path
         id="path450"
         style="fill:#d9935c;fill-opacity:1;fill-rule:nonzero;stroke:none;stroke-width:0.0544064"
         d="m 662.92172,-174.9745 c 0,0 31.56664,0.52067 31.5884,-19.14401 0.0217,-19.66522 4.11313,-32.84248 -16.04447,-34.00623 -20.15216,-1.1643 -24.08031,6.3351 -25.67986,12.8976 -1.60499,6.56142 1.92055,39.61009 10.13593,40.25264" />
      <path
         id="path452"
         style="fill:#233862;fill-opacity:1;fill-rule:nonzero;stroke:none;stroke-width:0.0544064"
         d="m 664.08602,-228.60678 c 0,0 8.64519,23.07053 21.90948,26.48235 13.26975,3.41074 19.02051,-0.14308 19.02051,-0.14308 0,0 -10.17401,-8.08317 -12.28498,-22.19296 0,0 -22.12168,-15.12717 -28.64501,-4.14631" />
      <path
         id="path454"
         style="fill:#233862;fill-opacity:1;fill-rule:nonzero;stroke:none;stroke-width:0.0544064"
         d="m 666.22963,-226.73411 c 0,0 -6.4526,5.15066 -8.0304,10.15824 -1.57235,5.00757 -2.27963,15.31705 -5.28287,14.96667 0,0 -6.51245,-15.68103 0.80522,-24.55256 7.75836,-9.40633 12.50805,-0.57235 12.50805,-0.57235" />
      <path
         id="path456"
         style="fill:#233862;fill-opacity:1;fill-rule:nonzero;stroke:none;stroke-width:0.0544064"
         d="m 665.03269,-225.95446 c 0,0 6.15881,24.15974 22.89425,31.89743 0,0 -16.73544,-14.84317 -18.16089,-30.7919 -1.42,-15.94817 -4.73336,-1.10553 -4.73336,-1.10553" />
      <path
         id="path458"
         style="fill:#f99746;fill-opacity:1;fill-rule:nonzero;stroke:none;stroke-width:0.0544064"
         d="m 728.85146,-151.24896 c -1.05882,-1.23455 0.13402,0.22655 0,0 -1.62676,-2.75079 -23.86269,-5.48037 -27.12164,-5.46295 -2.36668,0 -3.66156,-7.83018 -4.18386,-12.11796 -0.15233,-1.17953 -1.49074,-1.79976 -2.47549,-1.12676 -0.22851,0.15669 -0.4679,0.31448 -0.70185,0.46246 -0.2938,0.1877 -0.58214,0.3716 -0.8705,0.55494 -0.29379,0.179 -0.58759,0.35364 -0.88138,0.52394 -0.19587,0.11371 -0.39173,0.22687 -0.58759,0.33623 -0.22307,0.12677 -0.44614,0.24428 -0.66921,0.36235 -0.2013,0.10935 -0.40804,0.21381 -0.60934,0.31936 -0.20132,0.10392 -0.40262,0.20511 -0.60936,0.30522 -0.20674,0.10066 -0.40261,0.19695 -0.60391,0.29216 -0.16323,0.0746 -0.321,0.14908 -0.48422,0.22362 -0.29379,0.13492 -0.58759,0.26604 -0.88682,0.38791 -0.20675,0.092 -0.42438,0.17955 -0.63112,0.26659 -0.1469,0.0615 -0.29924,0.12242 -0.44613,0.17955 -0.81066,0.31827 -1.62675,0.61098 -2.42654,0.87268 -6.77904,2.2274 -13.1174,2.43741 -16.76808,1.57289 -0.0925,-0.0223 -0.17953,-0.044 -0.26658,-0.0658 -1.8607,-0.48041 -3.55819,1.17463 -3.15558,3.0571 0.48965,2.22739 0.61479,4.66372 -0.642,5.89494 -5.64739,1.25788 -19.39047,4.76491 -21.96389,9.65552 -1.84982,3.50704 -2.01848,24.14994 -3.01956,42.49853 h 2.15994 2.03063 l 25.78429,-14.01107"
         sodipodi:nodetypes="cccccccsccccccccccccccccccc" />
      <path
         id="path462"
         style="fill:#ed7d2b;fill-opacity:1;fill-rule:nonzero;stroke:none;stroke-width:0.0544064"
         d="m 701.72986,-156.71025 c 0,0 -16.64838,10.54289 -29.24348,8.04726 0,0 -3.01957,-1.90912 1.14797,-3.8313 3.91727,-1.79813 13.02491,-7.1218 11.02819,-12.37366 3.45482,-1.12731 7.02933,-2.78235 10.40797,-5.08864 0.98475,-0.67192 2.32316,-0.0528 2.47006,1.1273 0.52773,4.28723 1.82805,12.11904 4.18929,12.11904" />
    </g>
    <path
       id="path8"
       fill="#d0cde1"
       transform="translate(-93.48517 -27.50272)"
       d="M1027.704,386.7327a177.67758,177.67758,0,0,1-16.19,23.25l-228.46-27.48Z" />
    <g
       transform="translate(420.11982,404.51316)"
       id="g1819">
      <path
         id="path314"
         style="fill:#d2e4ff;fill-opacity:1;fill-rule:nonzero;stroke:none;stroke-width:0.0649301"
         d="m 480.56808,-286.59533 v 110.84204 c 0,2.5063 -0.32465,4.94118 -0.922,7.25918 -2.34398,9.00579 -8.92788,16.29743 -17.49799,19.60886 -0.32725,0.12986 -0.6558,0.24673 -0.98435,0.35712 -2.95107,1.02589 -6.10861,1.5778 -9.40186,1.5778 h -110.8375 c -1.45897,0 -2.89847,-0.11039 -4.29966,-0.32466 -8.97463,-1.34405 -16.59417,-6.82414 -20.85293,-14.44692 -2.32384,-4.14903 -3.64777,-8.93437 -3.64777,-14.03138 v -110.84204 c 0,-15.90785 12.89446,-28.80295 28.80036,-28.80295 h 110.8375 c 15.9111,0 28.8062,12.8951 28.8062,28.80295" />
      <path
         id="path316"
         style="fill:#ffb27d;fill-opacity:1;fill-rule:nonzero;stroke:none;stroke-width:0.0649301"
         d="m 386.91887,-245.04661 c 0,0 -0.48763,15.08974 -2.41865,21.84896 l -15.28582,10.6615 57.53838,8.60972 -13.72231,-18.95956 c 0,0 -4.14188,-20.2322 -1.96933,-27.71213 2.17257,-7.48643 -24.14227,5.55151 -24.14227,5.55151" />
      <path
         id="path318"
         style="fill:#ed985f;fill-opacity:1;fill-rule:nonzero;stroke:none;stroke-width:0.0649301"
         d="m 386.83575,-242.96235 c 0,-0.006 4.54965,10.95369 13.11976,10.71345 8.57077,-0.24673 10.52126,-9.93429 10.52126,-9.93429 l -23.64102,-0.77916" />
      <path
         id="path320"
         style="fill:#2c3a64;fill-opacity:1;fill-rule:nonzero;stroke:none;stroke-width:0.0649301"
         d="m 381.71992,-251.83179 c 0,0 -2.76862,-13.81711 -4.69964,-17.99861 -1.93101,-4.18798 -3.54063,-22.85536 17.86549,-23.82282 0,0 8.20781,0.96746 12.71461,-1.77259 0,0 0,2.74005 -1.12589,3.70101 0,0 7.40202,-1.76609 13.19702,4.66847 5.79436,6.44106 -3.86139,28.97178 -3.37895,34.28305 l -34.57264,0.94149" />
      <path
         id="path322"
         style="fill:#ffb27d;fill-opacity:1;fill-rule:nonzero;stroke:none;stroke-width:0.0649301"
         d="m 416.61266,-271.08355 v 15.07676 c 0,2.51928 -0.57917,4.94117 -1.55637,7.16827 h -0.006 c -1.69207,3.84386 -4.56977,7.10984 -7.71822,9.31096 -2.79394,1.96738 -5.79566,3.09068 -8.35844,3.04523 -2.23165,-0.0454 -5.13273,-1.13628 -7.94355,-2.99977 -3.78282,-2.5063 -7.38578,-6.4021 -8.92138,-10.98616 l -0.0227,-0.0714 -0.0565,-0.18829 c -0.44283,-1.40899 -0.69606,-2.86991 -0.69606,-4.37628 v -15.97929 c 0,-3.73996 2.60889,-6.79817 5.79566,-6.79817 h 23.6879 c 3.18741,0 5.79565,3.05821 5.79565,6.79817" />
      <path
         id="path324"
         style="fill:#f99746;fill-opacity:1;fill-rule:nonzero;stroke:none;stroke-width:0.0649301"
         d="m 432.59194,-219.26939 c 0,0 -13.51064,-2.90886 -19.56147,-3.6166 -5.34179,7.09685 -9.17461,8.9993 -14.0528,10.93421 -7.85978,-1.08433 -14.47745,-11.02511 -14.47745,-11.24587 -8.54739,0.87655 -14.31707,2.70109 -16.66819,3.43479 0,0 -0.005,0 -0.01,0 -0.54801,0.0714 -21.473,2.98029 -52.0505,58.30716 4.25875,7.61629 11.8783,13.10288 20.85292,14.44044 3.93996,-3.40234 12.40359,-10.75241 19.03814,-16.5182 -0.0727,1.86349 -0.0883,3.54518 -0.0461,5.0126 0.11363,3.96073 0.23894,7.89549 0.32789,11.83024 h 83.4234 c -0.16167,-1.99984 -0.29154,-3.92826 -0.38569,-5.76578 -0.28634,-5.73332 -0.5519,-10.97317 -0.79734,-15.75202 -0.005,-0.0389 -0.005,-0.0844 -0.0104,-0.12337 -0.002,-0.0519 -0.005,-0.0974 -0.008,-0.14933 0.006,0.006 0.0117,0.006 0.0181,0.013 1.209,1.04538 2.64785,2.29852 4.21656,3.66205 0.31231,0.26622 0.63047,0.54542 0.95382,0.82462 0.2753,0.24024 0.55775,0.48698 0.84344,0.7337 0.39153,0.33765 0.7876,0.68177 1.18432,1.03239 0.71294,0.61684 1.4369,1.24017 2.16736,1.87648 0.33309,0.29219 0.67268,0.58438 1.00577,0.87656 0.17726,0.15583 0.35452,0.31167 0.53633,0.4675 0.20388,0.17531 0.41165,0.35062 0.61553,0.53242 0.15064,0.12986 0.30712,0.25972 0.45906,0.39607 0.35971,0.31167 0.71358,0.62333 1.06745,0.9285 0.29283,0.25972 0.57917,0.50646 0.87071,0.75968 0.23959,0.20778 0.48437,0.41555 0.72462,0.62333 0.87525,0.76618 1.73558,1.51287 2.56928,2.23359 0.33309,0.28569 0.66163,0.57788 0.99018,0.85708 0.33829,0.29868 0.67787,0.59086 1.00576,0.87006 0.22921,0.20129 0.45906,0.40257 0.68827,0.59736 0.10389,0.0909 0.20322,0.17531 0.30257,0.25972 0.34867,0.30517 0.68241,0.60385 1.01096,0.87655 0.33829,0.29868 0.66683,0.58437 0.97915,0.85708 0.13115,0.11687 0.26102,0.22076 0.38568,0.33114 0.1357,0.12337 0.27141,0.23375 0.40191,0.34413 0.32855,-0.11038 0.6571,-0.22726 0.98435,-0.35711 8.57011,-3.31143 15.15401,-10.60307 17.49799,-19.60887 -28.63998,-49.30138 -47.05412,-50.77529 -47.05412,-50.77529" />
      <path
         id="path326"
         style="fill:#2c3a64;fill-opacity:1;fill-rule:nonzero;stroke:none;stroke-width:0.0649301"
         d="m 381.33293,-262.55174 c 0,0 0.0331,-9.59666 7.63772,-11.07707 7.60526,-1.4739 24.62537,4.68146 27.03946,-2.318 2.4141,-7.00594 -32.89939,-6.88258 -34.67718,-2.41539 -1.77778,4.46719 0,15.81046 0,15.81046" />
      <path
         id="path328"
         style="fill:#ed7d2b;fill-opacity:1;fill-rule:nonzero;stroke:none;stroke-width:0.0649301"
         d="m 365.83089,-146.95033 h -9.88625 c -0.089,-3.94125 -0.21426,-7.86952 -0.32789,-11.83025 -0.0422,-1.46742 -0.0266,-3.14911 0.0461,-5.0126 0.0156,-0.41555 0.0318,-0.8376 0.0519,-1.27263 0.0942,0.15584 0.26621,0.42205 0.49542,0.79864 1.47521,2.40891 5.50866,9.12916 9.62068,17.31684" />
      <path
         id="path330"
         style="fill:#2c3a64;fill-opacity:1;fill-rule:nonzero;stroke:none;stroke-width:0.0649301"
         d="m 407.33157,-246.1699 v 6.64234 c -2.79394,1.96738 -5.79566,3.09068 -8.35844,3.04523 -2.23165,-0.0454 -5.13273,-1.13628 -7.94355,-2.99977 v -6.6878 c 0,-3.7075 3.03548,-6.74623 6.74559,-6.74623 h 2.81017 c 3.71075,0 6.74623,3.03873 6.74623,6.74623" />
      <path
         id="path332"
         style="fill:#ed7d2b;fill-opacity:1;fill-rule:nonzero;stroke:none;stroke-width:0.0649301"
         d="m 462.14809,-148.88525 c -0.32725,0.12986 -0.6558,0.24673 -0.98435,0.35712 -0.1305,-0.11039 -0.26621,-0.22076 -0.40191,-0.34413 -0.12466,-0.11038 -0.25453,-0.21427 -0.38568,-0.33115 -0.31232,-0.2727 -0.64086,-0.55839 -0.97915,-0.85707 -0.32855,-0.27271 -0.66229,-0.57139 -1.01096,-0.87656 -0.0993,-0.0844 -0.19869,-0.16881 -0.30257,-0.25972 -0.22921,-0.19479 -0.45906,-0.39607 -0.68827,-0.59735 -0.32789,-0.2792 -0.66747,-0.57139 -1.00576,-0.87007 -0.32855,-0.2792 -0.65709,-0.57138 -0.99018,-0.85707 -0.8337,-0.72072 -1.69403,-1.46742 -2.56928,-2.23359 -0.24025,-0.20778 -0.48503,-0.41555 -0.72462,-0.62333 -0.29154,-0.25323 -0.57788,-0.49996 -0.87071,-0.75968 -0.35387,-0.30518 -0.70774,-0.61684 -1.06745,-0.9285 -0.15194,-0.13636 -0.30842,-0.26621 -0.45906,-0.39608 -0.20388,-0.1818 -0.41165,-0.35711 -0.61553,-0.53242 -0.18181,-0.15583 -0.35907,-0.31166 -0.53633,-0.4675 -0.33309,-0.29218 -0.67268,-0.58436 -1.00577,-0.87655 -0.73046,-0.63632 -1.45442,-1.25964 -2.16736,-1.87648 -0.39672,-0.35063 -0.79279,-0.69475 -1.18432,-1.03239 -0.28569,-0.24673 -0.56814,-0.49347 -0.84344,-0.73371 -0.32335,-0.2792 -0.64151,-0.55839 -0.95382,-0.82461 -1.56871,-1.36353 -3.00756,-2.61668 -4.21656,-3.66205 -0.0312,-0.0259 -0.0571,-0.0454 -0.0831,-0.0714 0,0 0.026,-0.0195 0.0727,-0.0519 0.79215,-0.55839 8.00457,-5.32426 12.56007,2.72706 3.21078,5.66839 8.33376,12.81719 11.4134,16.9792" />
      <path
         id="path334"
         style="fill:#2c3a64;fill-opacity:1;fill-rule:nonzero;stroke:none;stroke-width:0.0649301"
         d="m 415.04979,-248.83852 c -3.18676,7.25269 -10.62385,12.44708 -16.07666,12.35619 -5.23921,-0.0974 -14.19436,-5.99954 -16.86493,-13.98593 l -0.0227,-0.0714 -0.0565,-0.18829 c 0,0 5.62748,4.79833 9.34927,2.42189 h 15.6332 c 0,0 4.09254,2.33748 8.03833,-0.53243" />
      <path
         id="path336"
         style="fill:#ffb27d;fill-opacity:1;fill-rule:nonzero;stroke:none;stroke-width:0.0649301"
         d="m 400.86648,-246.98152 h -3.37181 c -0.77397,0 -1.75701,-1.26613 -1.75701,-2.03881 0,0 0.98304,-0.77266 1.75701,-0.77266 h 3.37181 c 0.77332,0 1.9031,0.6428 2.0849,1.10381 0,0 -0.46814,1.70766 -2.0849,1.70766" />
    </g>
    <path
       id="path10"
       fill="#d0cde1"
       transform="translate(-93.48517 -27.50272)"
       d="M1041.2439,228.72269l-387.18994-50.22,377.87,22.34A260.439,260.439,0,0,1,1041.2439,228.72269Z" />
  </g>
  <path
     d="M516.51853,99.50486c0,.69-.02,1.37-.08,2.04a27.99706,27.99706,0,1,1-52.68-15.11,25.73956,25.73956,0,0,1,2.06-3.31,27.9889,27.9889,0,0,1,50.6,14.1C516.4885,97.97483,516.51853,98.73484,516.51853,99.50486Z"
     transform="translate(-93.48517 -27.50272)"
     fill="#0072c6"
     id="path12" />
  <path
     d="M516.51853,99.50486c0,.69-.02,1.37-.08,2.04l-41.92-5.04,41.9.72C516.4885,97.97483,516.51853,98.73484,516.51853,99.50486Z"
     transform="translate(-93.48517 -27.50272)"
     fill="#d0cde1"
     id="path14" />
  <path
     d="M506.51853,113.61484l-38.78,4.67a28.05694,28.05694,0,0,1-2.96-3.95Z"
     transform="translate(-93.48517 -27.50272)"
     fill="#d0cde1"
     id="path16" />
  <path
     d="M495.51853,82.61484l-31.76,3.82a25.73956,25.73956,0,0,1,2.06-3.31Z"
     transform="translate(-93.48517 -27.50272)"
     fill="#d0cde1"
     id="path18" />
  <path
     d="M900.25143,603.63055c-.32346.60949-.65991,1.20075-1.027,1.76443a27.99706,27.99706,0,1,1-39.45-38.042,25.73938,25.73938,0,0,1,3.37127-1.9581,27.98891,27.98891,0,0,1,38.08621,36.17477C900.94214,602.265,900.61239,602.95037,900.25143,603.63055Z"
     transform="translate(-93.48517 -27.50272)"
     fill="#0072c6"
     id="path20" />
  <path
     d="M900.25143,603.63055c-.32346.60949-.65991,1.20075-1.027,1.76443L864.5584,581.29206l36.67354,20.27763C900.94214,602.265,900.61239,602.95037,900.25143,603.63055Z"
     transform="translate(-93.48517 -27.50272)"
     fill="#d0cde1"
     id="path22" />
  <path
     d="M884.80385,611.4064l-36.44426-14.054a28.05745,28.05745,0,0,1-.76292-4.87668Z"
     transform="translate(-93.48517 -27.50272)"
     fill="#d0cde1"
     id="path24" />
  <path
     d="M889.61936,578.867l-29.8449-11.514a25.73938,25.73938,0,0,1,3.37127-1.9581Z"
     transform="translate(-93.48517 -27.50272)"
     fill="#d0cde1"
     id="path26" />
  <path
     d="M1098.56381,120.95526c.48176.494.9422.99477,1.367,1.5163a27.99707,27.99707,0,1,1-48.26355,25.96387,25.73851,25.73851,0,0,1-.83628-3.80793,27.9889,27.9889,0,0,1,46.06931-25.23471C1097.47405,119.88088,1098.02619,120.404,1098.56381,120.95526Z"
     transform="translate(-93.48517 -27.50272)"
     fill="#0072c6"
     id="path28" />
  <path
     d="M1098.56381,120.95526c.48176.494.9422.99477,1.367,1.5163l-33.52955,25.66038,30.499-28.73915C1097.47405,119.88088,1098.02619,120.404,1098.56381,120.95526Z"
     transform="translate(-93.48517 -27.50272)"
     fill="#d0cde1"
     id="path30" />
  <path
     d="M1101.25637,138.03864l-24.50216,30.41946a28.0572,28.0572,0,0,1-4.87694-.76118Z"
     transform="translate(-93.48517 -27.50272)"
     fill="#d0cde1"
     id="path32" />
  <path
     d="M1071.73725,123.52584l-20.07,24.90959a25.73851,25.73851,0,0,1-.83628-3.80793Z"
     transform="translate(-93.48517 -27.50272)"
     fill="#d0cde1"
     id="path34" />
  <path
     d="M573.26553,636.95591s61.44557,2.56024,61.44557,17.92163-69.12627,0-69.12627,0Z"
     transform="translate(-93.48517 -27.50272)"
     fill="#a0616a"
     id="path36" />
  <path
     d="M481.09717,872.49728l-115.21045-7.6807L360.76625,803.371l-25.60232,53.76488-112.65022-15.3614c2.56023-97.28882,43.524-192.01741,46.08418-204.81858s8.67923-65.69564,8.67923-65.69564c11.1882-23.73325,69.81727-25.96064,115.77362-23.81013,19.04829.87055,35.94576,2.509,46.36577,3.68674,6.88688.768,10.95787,1.33137,10.95787,1.33137,18.35667,18.92015,30.18524,44.70155,37.45621,73.50417C514.04734,729.73871,481.09717,872.49728,481.09717,872.49728Z"
     transform="translate(-93.48517 -27.50272)"
     fill="#2f2e41"
     id="path38" />
  <circle
     cx="259.60038"
     cy="187.01487"
     r="64.00581"
     fill="#a0616a"
     id="circle40" />
  <path
     d="M309.56161,229.879S291.64,309.24619,263.47743,332.28828s110.09,0,110.09,0-30.72278-51.20465-7.68069-74.24674S309.56161,229.879,309.56161,229.879Z"
     transform="translate(-93.48517 -27.50272)"
     fill="#a0616a"
     id="path42" />
  <path
     d="M440.13345,557.58871,397.659,562.29945,278.83882,575.51034s-.56318-1.51061-1.5617-4.25007c-8.628-23.52854-50.18049-138.022-54.76341-172.406-5.12046-38.40349,48.64441-84.48767,48.64441-84.48767s51.20465-10.24093,66.566-10.24093,76.807,23.04209,76.807,23.04209l22.914,206.12433,1.97143,17.84474Z"
     transform="translate(-93.48517 -27.50272)"
     fill="#d0cde1"
     id="path44" />
  <path
     d="M487.83059,625.97242,401.73,575.51034s-1.51076-4.91576-4.071-13.21089c-1.28011-4.14756-2.8415-9.16551-4.60823-14.84931-9.93371-31.90055-26.60085-84.53892-39.96518-122.9935-20.48186-58.88534,79.36719,104.96952,79.36719,104.96952l4.99233,3.866,1.97143,17.84474c6.88688.768,10.95787,1.33137,10.95787,1.33137C468.73105,571.3884,480.55962,597.1698,487.83059,625.97242Z"
     transform="translate(-93.48517 -27.50272)"
     opacity="0.15"
     id="path46" />
  <path
     d="M373.56741,332.28828s-25.60232,33.283-5.12046,92.16836,48.64441,151.0537,48.64441,151.0537l148.49347,87.0479,20.48186-25.60233L447.81415,529.42616s-5.12047-194.57765-30.72279-202.25835S373.56741,332.28828,373.56741,332.28828Z"
     transform="translate(-93.48517 -27.50272)"
     fill="#d0cde1"
     id="path48" />
  <path
     d="M246.83592,556.3086s35.84325,74.24673,51.20464,66.566S259.63708,538.387,259.63708,538.387Z"
     transform="translate(-93.48517 -27.50272)"
     fill="#a0616a"
     id="path50" />
  <path
     d="M242.99557,352.77013,107.30326,465.42035s-51.20464,35.84326,43.524,61.44558S253.2365,567.82964,253.2365,567.82964s10.24093-33.283,23.04209-28.16255l-110.09-53.76488,89.60813-53.76488Z"
     transform="translate(-93.48517 -27.50272)"
     fill="#d0cde1"
     id="path52" />
  <path
     d="M188.45949,267.05154c7.12167-3.52691,22.84789-10.64479,36.24333-19.2202-.93932-27.89762,2.49607-53.22261,12.55222-66.64662,5.64462-12.81652,17.49793-25.6481,26.7814-35.75325,22.798-24.81537,73.20958-38.66708,82.15062-26.26844,67.62534,1.33509,74.74468,54.34307,74.74468,54.34307-.3518,22.17187-23.39557,22.87345-43.58176,22.0655,1.80765,15.13647-3.00971,30.86424-16.95952,37.83915-26.676,13.338-34.67888,30.67741-21.34081,42.68173s37.3465,44.01548,5.33523,52.01821-36.01275,24.00854-26.676,30.67752S296.36792,346.784,296.36792,346.784s-5.33512,32.01127-33.345,24.00842c-2.51013-.71721-5.01892-2.55489-7.48541-5.30331-7.56478,8.312-14.31345,13.22658-19.39967,13.25359-29.13026.15447-25.63705-32.10971-25.63705-32.10971s-34.57609,9.71049-23.7871,5.80578,11.25117-20.39647-17.4169-36.73375S172.37879,275.015,188.45949,267.05154Z"
     transform="translate(-93.48517 -27.50272)"
     fill="#2f2e41"
     id="path54" />
  <g
     id="g105"
     transform="matrix(0.2638434,0,0,0.2638434,536.46643,205.5333)">
    <path
       style="fill:#d0cde1;fill-opacity:1"
       transform="translate(-93.48517,-27.50272)"
       id="path56"
       fill="#3f3d56"
       d="m 545.869,350.68362 -0.46437,-0.0612 1.13287,4.30643 a 113.17562,113.17562 0 0 0 4.65,17.67685 l 33.22635,126.30782 a 21.40811,21.40811 0 0 0 17.43077,15.71007 l 67.75971,10.48261 a 21.408,21.408 0 0 0 22.1461,-11.05183 l 64.39386,-120.27626 a 113.00339,113.00339 0 0 0 5.50835,-10.28834 l 2.18627,-4.08367 -0.34094,-0.0449 a 113.84725,113.84725 0 1 0 -217.629,-28.67751 z" />
    <path
       id="path58"
       fill="#d0cde1"
       transform="translate(-93.48517,-27.50272)"
       d="m 673.7627,533.3584 a 23.29759,23.29759 0 0 1 -3.56446,-0.27442 l -70.82763,-10.958 A 23.3712,23.3712 0 0 1 580.33643,504.9707 L 545.606,372.94482 a 119.05567,119.05567 0 0 1 -4.87793,-18.55615 l -0.87842,-5.77588 A 120.02561,120.02561 0 0 1 677.24219,214.74951 l -0.30664,1.97656 a 118.0685,118.0685 0 0 0 -134.93116,132.9126 l 0.6753,4.32031 a 118.2809,118.2809 0 0 0 4.83691,18.39991 l 34.7544,132.103 a 21.36975,21.36975 0 0 0 17.40527,15.6875 l 70.82764,10.958 a 21.407,21.407 0 0 0 22.11425,-11.03613 l 1.76368,0.94336 A 23.42072,23.42072 0 0 1 673.7627,533.3584 Z" />
    <rect
       style="fill:#3f3d56;fill-opacity:1"
       id="rect60"
       fill="#d0cde1"
       transform="rotate(-69.88499,604.97197,491.81983)"
       height="2.58676"
       width="125.31395"
       y="437.37967"
       x="608.73853" />
    <rect
       style="fill:#3f3d56;fill-opacity:1"
       id="rect62"
       fill="#d0cde1"
       transform="rotate(-2.51583,-50.169732,2546.1069)"
       height="125.31395"
       width="2.58676"
       y="368.5015"
       x="621.52777" />
    <path
       style="fill:#d0cde1;fill-opacity:1"
       id="path64"
       fill="#3f3d56"
       transform="translate(-93.48517,-27.50272)"
       d="m 667.77507,593.21348 -90.75733,-14.04041 a 2.587,2.587 0 0 1 0.791,-5.11309 l 90.75733,14.04041 a 2.587,2.587 0 1 1 -0.791,5.11309 z" />
    <path
       style="fill:#d0cde1;fill-opacity:1"
       id="path66"
       fill="#3f3d56"
       transform="translate(-93.48517,-27.50272)"
       d="m 670.10222,573.94052 -90.75733,-14.04041 a 2.587,2.587 0 1 1 0.791,-5.11309 l 90.75734,14.04041 a 2.587,2.587 0 1 1 -0.791,5.11309 z" />
    <path
       style="fill:#d0cde1;fill-opacity:1"
       id="path68"
       fill="#3f3d56"
       transform="translate(-93.48517,-27.50272)"
       d="M 672.42937,554.66756 581.672,540.62715 a 2.587,2.587 0 0 1 0.791,-5.11309 l 90.75733,14.04041 a 2.587,2.587 0 0 1 -0.791,5.11309 z" />
    <path
       style="fill:#d0cde1;fill-opacity:1"
       id="path70"
       fill="#3f3d56"
       transform="translate(-93.48517,-27.50272)"
       d="m 619.57535,604.42863 c 18.00222,2.785 34.1481,-4.99048 36.06278,-17.367 l -65.19188,-10.08536 c -1.91469,12.37651 11.12687,24.66737 29.1291,27.45236 z" />
    <path
       style="fill:#3f3d56;fill-opacity:1"
       id="path72"
       fill="#d0cde1"
       transform="translate(-93.48517,-27.50272)"
       d="m 652.19879,354.60221 c -3.87236,-0.59843 -7.07617,-3.65939 -8.83264,-5.711 -0.57595,-0.67259 -1.1365,-1.37029 -1.69874,-2.06952 -2.04551,-2.54625 -3.97681,-4.95084 -6.66642,-6.20478 -5.93686,-2.76991 -12.93209,1.099 -18.98864,5.24984 l -1.46325,-2.13343 c 6.65876,-4.56514 14.42362,-8.78213 21.54579,-5.46138 3.23493,1.50894 5.44871,4.26464 7.58906,6.92909 0.545,0.67867 1.089,1.35527 1.64693,2.00782 1.82636,2.13272 5.46883,5.58876 9.37174,4.79166 a 12.5979,12.5979 0 0 0 4.49545,-2.37986 24.07683,24.07683 0 0 1 3.18135,-2.00734 12.66906,12.66906 0 0 1 13.90684,1.96545 25.02449,25.02449 0 0 1 1.88717,1.99578 c 1.16372,1.32656 2.26229,2.5785 3.69247,3.03366 2.11435,0.676 4.349,-0.53253 6.71686,-1.80932 2.442,-1.31774 4.96637,-2.68088 7.8299,-2.34462 0.0929,0.0112 0.18677,0.0238 0.27915,0.0381 5.09561,0.78831 7.44484,6.42363 8.77412,10.62937 l -2.46725,0.7789 c -1.80618,-5.71683 -4.00582,-8.55982 -6.889,-8.87675 -2.05123,-0.24128 -4.114,0.87246 -6.298,2.05116 -2.7378,1.4784 -5.57148,3.00651 -8.7311,1.99813 -2.11483,-0.67292 -3.5069,-2.2585 -4.852,-3.79208 a 22.79725,22.79725 0 0 0 -1.68845,-1.79311 10.16528,10.16528 0 0 0 -11.01236,-1.55665 21.837,21.837 0 0 0 -2.83631,1.80124 14.69665,14.69665 0 0 1 -5.46961,2.80242 8.504,8.504 0 0 1 -3.02306,0.0673 z" />
  </g>
  <g
     id="g1914"
     transform="translate(264.08074,510.64977)">
    <g
       id="g400"
       transform="matrix(0.07913911,0,0,-0.07913911,-916.65189,502.77317)">
      <path
         d="M 16300,8340.71 V 6911.93 c 0,-35.7 -5,-70.25 -14.4,-102.93 -43.1,-149.36 -177.3,-260.07 -338.7,-267.87 -6,-0.33 -12,-0.47 -18.2,-0.47 h -1428.8 c -2.6,0 -5.1,0 -7.7,0.14 -2.3,0 -4.8,0.06 -7.3,0.2 -161.9,6.39 -297.2,116.57 -341.1,265.79 -9.9,33.34 -15.1,68.63 -15.1,105.14 v 1428.78 c 0,205.09 166.2,371.33 371.2,371.33 h 1428.8 c 205.1,0 371.3,-166.24 371.3,-371.33"
         style="fill:#d2e4ff;fill-opacity:1;fill-rule:nonzero;stroke:none"
         id="path402" />
    </g>
    <g
       id="g404"
       transform="matrix(0.07608641,0,0,-0.07608641,-916.65189,502.77317)">
      <path
         d="m 15602.3,7986.79 c 0,0 -8.6,-264.3 -42.4,-382.7 l -267.7,-186.77 1007.8,-150.82 -240.3,332.09 c 0,0 -72.6,354.36 -34.5,485.45 38,131.08 -422.9,-97.25 -422.9,-97.25"
         style="fill:#ffb27d;fill-opacity:1;fill-rule:nonzero;stroke:none"
         id="path406" />
    </g>
    <g
       id="g408"
       transform="matrix(0.07475557,0,0,-0.07475557,-916.65189,502.77317)">
      <path
         d="m 15878.6,8091.81 c 0,0.09 81,-195.26 233.9,-190.96 152.7,4.3 187.5,177.09 187.5,177.09 l -421.4,13.87"
         style="fill:#ed985f;fill-opacity:1;fill-rule:nonzero;stroke:none"
         id="path410" />
    </g>
    <g
       id="g412"
       transform="matrix(0.07598103,0,0,-0.07598103,-916.65189,502.77317)">
      <path
         d="m 15532.7,8116.85 c 0,0 -48.5,242.35 -82.4,315.75 -33.8,73.39 -62.1,400.85 313.3,417.8 0,0 144,-16.95 223.1,31.05 0,0 0,-48 -19.7,-64.93 0,0 129.8,31.06 231.4,-81.87 101.6,-112.91 -67.7,-508.14 -59.2,-601.3 l -606.5,-16.5"
         style="fill:#2c3a64;fill-opacity:1;fill-rule:nonzero;stroke:none"
         id="path414" />
    </g>
    <g
       id="g416"
       transform="matrix(0.07525795,0,0,-0.07525795,-916.65189,502.77317)">
      <path
         d="m 15987.5,7923.09 c -109.9,1.94 -312.3,148.36 -312.3,329.7 v 282.97 c 0,66.22 46.2,120.4 102.6,120.4 h 419.5 c 56.5,0 102.7,-54.18 102.7,-120.4 v -266.95 c 0,-190.14 -186.3,-347.94 -312.5,-345.72"
         style="fill:#ffb27d;fill-opacity:1;fill-rule:nonzero;stroke:none"
         id="path418" />
    </g>
    <g
       id="g420"
       transform="matrix(0.07540574,0,0,-0.07540574,-916.65189,502.77317)">
      <path
         d="m 15644.4,8368.22 c 0,0 0.6,169.69 135,195.78 134.4,26.09 435.3,-82.7 477.9,41.03 42.7,123.73 -581.4,121.6 -612.9,42.67 -31.4,-78.94 0,-279.48 0,-279.48"
         style="fill:#2c3a64;fill-opacity:1;fill-rule:nonzero;stroke:none"
         id="path422" />
    </g>
    <g
       id="g424"
       transform="matrix(0.07698247,0,0,-0.07698247,-916.65189,502.77317)">
      <path
         d="m 16300,6723.86 h -1393.9 c -2.7,0 -5.3,0 -8,0.14 35.3,319.33 111,704.46 171.5,729.81 0,0 6.9,2.55 20.3,6.7 0.1,0.07 0.3,0.07 0.3,0.07 31.6,9.88 98.7,28.33 196.1,43.26 0.2,0 0.6,0.07 0.7,0.07 28.2,4.34 58.7,8.28 91.8,11.68 0,-3.88 114.6,-171.38 250.5,-190.18 84.6,33.45 151,61.91 243.4,184.71 30.5,-3.59 61.8,-7.73 93.7,-12.71 77.6,-11.95 159.5,-28.2 244.9,-49.76 10.2,-2.48 20.3,-5.11 30.6,-7.87 h 0.1 c 4,-0.97 8.1,-2.08 12.1,-3.18 0,0 1,-4.21 3.5,-29.23 0,0 0,0 0,-0.07 5.2,-56.73 17.7,-220.3 42.4,-683.44"
         style="fill:#739af0;fill-opacity:1;fill-rule:nonzero;stroke:none"
         id="path426" />
    </g>
    <g
       id="g428"
       transform="matrix(0.07219861,0,0,-0.07219861,-916.65189,502.77317)">
      <path
         d="m 16080,7953.03 c -0.4,-0.09 -0.8,-0.15 -1.1,-0.3 -5.6,-1.25 -13.2,-3.25 -22.7,-6.56 -0.6,-0.22 -1.2,-0.36 -1.7,-0.51 -0.4,-0.23 -0.9,-0.37 -1.3,-0.44 -0.5,-0.23 -0.9,-0.31 -0.9,-0.31 -78.4,-27.18 -274.7,-126.8 -548.9,-483.79 48.2,-163.57 196.4,-284.34 374,-291.35 2.6,-0.14 5.4,-0.22 7.9,-0.22 2.9,-0.14 5.6,-0.14 8.5,-0.14 h 147.8 246.7 c 4.4,251.48 7.4,470.24 9.3,620.19 0.7,66.23 1.4,118.99 1.8,155.31 0.4,36.41 0.6,56.23 0.6,56.23 -0.2,0 -0.6,-0.07 -0.7,-0.07 -77.8,-9.29 -173.2,-34.78 -219.3,-48.04"
         style="fill:#2b478b;fill-opacity:1;fill-rule:nonzero;stroke:none"
         id="path430" />
    </g>
    <g
       id="g432"
       transform="matrix(0.07906886,0,0,-0.07906886,-916.65189,502.77317)">
      <path
         d="m 15825.2,7240.38 c -18.2,6.79 -30.6,9.55 -36.8,10.63 -0.2,0 -0.3,0 -0.3,0.06 -47.9,12.12 -156.2,38.15 -243,48.58 0,0 0,0 0,-0.06 0,-1.96 0.3,-43.33 0.8,-114.72 v -0.06 c 0.5,-45.76 1,-103.89 1.6,-171.85 1.2,-126.54 2.9,-287.28 5.3,-466.51 h 257.3 132.7 c 6.2,0 12.2,0.13 18.2,0.47 161.5,7.8 295.9,118.61 339,268.11 -234.1,306.6 -401.3,398.23 -474.8,425.35"
         style="fill:#2b478b;fill-opacity:1;fill-rule:nonzero;stroke:none"
         id="path434" />
    </g>
    <g
       id="g436"
       transform="matrix(0.07511413,0,0,-0.07511413,-916.65189,502.77317)">
      <path
         d="m 16287.7,8361.75 c -7.2,-35.85 -34.2,-58.79 -80.1,-68.14 -35,-7.15 -68.3,-3.26 -68.6,-3.18 h -0.6 c -34,0 -58.2,19.89 -76.1,62.61 -2.3,5.59 -7.3,18.98 -8.6,33.13 0,0.02 0,0.03 0,0.03 2.4,-0.94 4.8,-2 7.1,-3.23 2.4,-1.26 5.3,-0.36 6.6,2.03 1.2,2.37 0.3,5.31 -2,6.58 -3.9,2.05 -7.9,3.63 -11.8,5.01 0,0.03 0,0.04 0,0.07 0.6,6.59 2.3,12.89 5.8,18.34 7.3,10.91 21.5,16.5 42.1,16.5 h 123.8 c 21.9,0 41.1,-8.07 52.6,-22.1 10.2,-12.46 13.6,-28.96 9.8,-47.65 z m -305.3,23.58 c -1.3,-13.82 -6.2,-26.84 -8.4,-32.29 -17.9,-42.72 -42.1,-62.61 -76.2,-62.61 h -0.5 c -0.4,-0.08 -33.7,-3.97 -68.6,3.18 -46,9.35 -72.9,32.29 -80.2,68.14 -3.8,18.69 -0.3,35.19 9.8,47.65 11.5,14.03 30.7,22.1 52.7,22.1 h 123.7 c 20.7,0 34.9,-5.59 42.1,-16.5 3.8,-5.6 5.5,-12.32 5.8,-19.19 0,-0.03 0,-0.06 0,-0.09 -6.2,-2 -10.3,-3.76 -10.8,-4.03 -2.5,-1.12 -3.6,-4.01 -2.4,-6.45 0.8,-1.79 2.5,-2.84 4.4,-2.84 0.7,0 1.4,0.14 2,0.43 0.1,0.06 2.6,1.13 6.6,2.54 0,-0.02 0,-0.04 0,-0.04 z m 301.8,29.24 c -13.1,15.95 -34.5,25.08 -58.9,25.08 h -123.8 c -23.5,0 -40,-6.8 -48.9,-20.11 -4.1,-6.24 -6.2,-13.25 -7,-20.48 0,-0.02 0,-0.05 0,-0.06 -20.7,5.15 -40.9,2.51 -54.9,-1 v 0 0.08 c -0.8,7.57 -2.8,14.93 -7.1,21.46 -8.9,13.31 -25.3,20.11 -48.9,20.11 H 15811 c -24.4,0 -45.9,-9.13 -58.9,-25.08 -11.9,-14.45 -15.8,-33.28 -11.6,-54.46 14.1,-69.9 94.7,-78.83 134.9,-78.83 12.4,0 21,0.86 22.6,1 37.7,0.07 64.2,21.59 83.5,67.63 3.2,7.8 8.5,22.6 9.3,37.97 v 0.01 c 13.3,3.57 33.9,6.77 54.6,1.15 v -0.02 c 0.6,-15.8 6,-31.1 9.4,-39.11 19.3,-46.04 45.8,-67.56 83.5,-67.63 1.6,-0.14 10.1,-1 22.6,-1 40.2,0 120.7,8.93 134.9,78.83 4.2,21.18 0.2,40.01 -11.6,54.46"
         style="fill:#b64c41;fill-opacity:1;fill-rule:nonzero;stroke:none"
         id="path438" />
    </g>
  </g>
</svg>
