<?xml version="1.0" encoding="UTF-8" standalone="no"?>
<svg
   xmlns:dc="http://purl.org/dc/elements/1.1/"
   xmlns:cc="http://creativecommons.org/ns#"
   xmlns:rdf="http://www.w3.org/1999/02/22-rdf-syntax-ns#"
   xmlns:svg="http://www.w3.org/2000/svg"
   xmlns="http://www.w3.org/2000/svg"
   xmlns:sodipodi="http://sodipodi.sourceforge.net/DTD/sodipodi-0.dtd"
   xmlns:inkscape="http://www.inkscape.org/namespaces/inkscape"
   id="Layer_1"
   enable-background="new 0 0 256 256"
   height="512"
   viewBox="0 0 256 256"
   width="512"
   version="1.1"
   sodipodi:docname="_healthy.svg"
   inkscape:version="1.0 (1.0+r73+1)">
  <metadata
     id="metadata51">
    <rdf:RDF>
      <cc:Work
         rdf:about="">
        <dc:format>image/svg+xml</dc:format>
        <dc:type
           rdf:resource="http://purl.org/dc/dcmitype/StillImage" />
        <dc:title />
      </cc:Work>
    </rdf:RDF>
  </metadata>
  <defs
     id="defs49" />
  <sodipodi:namedview
     inkscape:document-rotation="0"
     pagecolor="#ffffff"
     bordercolor="#666666"
     borderopacity="1"
     objecttolerance="10"
     gridtolerance="10"
     guidetolerance="10"
     inkscape:pageopacity="0"
     inkscape:pageshadow="2"
     inkscape:window-width="1366"
     inkscape:window-height="742"
     id="namedview47"
     showgrid="false"
     inkscape:zoom="2.25"
     inkscape:cx="407.87651"
     inkscape:cy="117.44767"
     inkscape:window-x="0"
     inkscape:window-y="0"
     inkscape:window-maximized="1"
     inkscape:current-layer="Layer_1" />
  <g
     id="g933"
     transform="translate(8.979126,-2.3008084)">
    <path
       id="path2"
       fill="#6bdddd"
       d="m 162.11534,250.91547 h -149.053 v -20.956 c 0,-19.208 15.571,-34.779 34.779,-34.779 h 79.495 c 19.208,0 34.779,15.571 34.779,34.779 z" />
    <path
       id="path4"
       fill="#f9cfcf"
       d="m 152.61234,104.02247 c -0.138,0 -0.271,0.018 -0.408,0.02 v -6.042004 c 0,-35.316 -28.929,-63.945 -64.615,-63.945 -35.686,0 -64.615,28.629 -64.615,63.945 v 6.042004 c -0.137,-0.003 -0.271,-0.02 -0.408,-0.02 -10.887,0 -19.7129995,8.734 -19.7129995,19.509 0,10.774 8.8259995,19.509 19.7129995,19.509 0.715,0 1.42,-0.042 2.115,-0.116 6.668,28.289 32.292,49.369 62.908,49.369 30.616,0 56.24,-21.08 62.908,-49.369 0.695,0.073 1.4,0.116 2.115,0.116 10.887,0 19.713,-8.734 19.713,-19.509 -0.001,-10.775 -8.826,-19.509 -19.713,-19.509 z" />
    <path
       id="path6"
       fill="#3762cc"
       d="m 75.12756,150.38133 c 1.10398,0.007 1.99427,0.90867 1.98727,2.01265 -0.0101,1.58896 0.68117,3.12838 2.00081,4.45078 1.16263,1.16639 2.75386,2.08051 4.59932,2.64522 1.11186,0.34006 2.37181,0.51006 3.85078,0.51944 1.47997,0.009 2.74197,-0.14461 3.85706,-0.47055 1.85347,-0.54125 3.45518,-1.43611 4.6345,-2.58665 1.33531,-1.30556 2.04603,-2.83608 2.05611,-4.42505 0.007,-1.10398 0.90867,-1.99428 2.01264,-1.98728 1.10398,0.007 1.99428,0.90867 1.98728,2.01265 -0.0168,2.64195 -1.17513,5.21965 -3.26011,7.25947 -1.64624,1.60959 -3.82811,2.84277 -6.30975,3.56605 -1.49279,0.43554 -3.13013,0.64216 -5.0041,0.63027 -1.87296,-0.0119 -3.50755,-0.23925 -4.99569,-0.6947 -2.47126,-0.75469 -4.63631,-2.01545 -6.26201,-3.64479 -2.05994,-2.06511 -3.18552,-4.6583 -3.16876,-7.30025 0.009,-1.10396 0.91067,-1.99426 2.01465,-1.98726 z" />
    <path
       id="path8"
       fill="#3762cc"
       d="m 55.61734,137.40947 c -4.086,0 -7.411,-3.319 -7.411,-7.399 v -12.333 c 0,-4.08 3.324,-7.4 7.411,-7.4 4.085,0 7.409,3.32 7.409,7.4 v 12.333 c 0.001,4.08 -3.323,7.399 -7.409,7.399 z" />
    <path
       id="path10"
       fill="#3762cc"
       d="m 119.52934,137.40947 c -4.086,0 -7.411,-3.319 -7.411,-7.399 v -12.333 c 0,-4.08 3.324,-7.4 7.411,-7.4 4.085,0 7.409,3.32 7.409,7.4 v 12.333 c 0.001,4.08 -3.323,7.399 -7.409,7.399 z" />
    <path
       id="path12"
       fill="#f9cfcf"
       d="m 92.36434,192.09947 c -0.261,0.02 -0.521,0.042 -0.783,0.06 -0.405,0.025 -0.811,0.046 -1.219,0.063 -0.92,0.041 -1.844,0.07 -2.774,0.07 -0.931,0 -1.855,-0.029 -2.775,-0.07 -0.408,-0.017 -0.814,-0.039 -1.219,-0.063 -0.261,-0.017 -0.52,-0.039 -0.78,-0.059 -9.516,-0.689 -18.461,-3.402 -26.384,-7.733 v 7.425 c 0,17.262 13.501,31.256 30.156,31.256 h 2.005 c 16.655,0 30.156,-13.994 30.156,-31.256 v -7.425 c -7.923,4.33 -16.868,7.043 -26.383,7.732 z" />
    <path
       id="path14"
       fill="#3762cc"
       d="m 162.11534,252.91547 h -149.053 c -1.104,0 -2,-0.896 -2,-2 v -20.957 c 0,-20.28 16.499,-36.779 36.779,-36.779 h 6.619 c -0.02,-0.467 -0.029,-0.931 -0.029,-1.389 v -7.424 c 0,-0.706 0.373,-1.36 0.98,-1.72 0.607,-0.361 1.361,-0.373 1.979,-0.035 7.894,4.314 16.497,6.835 25.57,7.493 l 0.766,0.059 c 0.383,0.023 0.777,0.044 1.173,0.061 1.793,0.08 3.592,0.08 5.375,0 0.401,-0.017 0.795,-0.038 1.188,-0.062 l 0.745,-0.057 c 9.085,-0.658 17.687,-3.18 25.581,-7.494 0.619,-0.338 1.372,-0.326 1.979,0.035 0.607,0.361 0.979,1.014 0.979,1.72 v 7.425 c 0,0.458 -0.01,0.922 -0.029,1.389 h 6.618 c 20.28,0 36.779,16.499 36.779,36.779 v 20.956 c 0.001,1.104 -0.895,2 -1.999,2 z m -147.053,-4 h 145.053 v -18.957 c 0,-18.074 -14.705,-32.779 -32.779,-32.779 h -8.769 c -0.566,0 -1.106,-0.24 -1.485,-0.661 -0.38,-0.421 -0.563,-0.983 -0.504,-1.546 0.112,-1.074 0.169,-2.145 0.169,-3.181 v -4.146 c -7.575,3.665 -15.712,5.832 -24.238,6.449 l -0.797,0.061 c -0.427,0.026 -0.846,0.048 -1.265,0.065 -1.889,0.086 -3.822,0.086 -5.724,0 -0.413,-0.018 -0.832,-0.04 -1.25,-0.064 l -0.816,-0.063 c -8.516,-0.617 -16.652,-2.783 -24.227,-6.448 v 4.146 c 0,1.035 0.057,2.106 0.168,3.182 0.059,0.563 -0.125,1.125 -0.504,1.546 -0.379,0.42 -0.919,0.661 -1.485,0.661 h -8.769 c -18.075,0 -32.779,14.705 -32.779,32.779 v 18.956 z" />
    <path
       id="path16"
       fill="#3762cc"
       d="m 87.58834,194.29247 c -30.546,0 -56.805,-20.17 -64.444,-49.262 -0.195,0.005 -0.388,0.008 -0.579,0.008 -11.973,0 -21.71299951,-9.648 -21.71299951,-21.508 0,-11.33 8.88900001,-20.642 20.12199951,-21.452 v -4.078004 c 0,-36.362 29.883,-65.945 66.615,-65.945 36.732,0 66.614,29.583 66.614,65.945 v 4.078004 c 11.232,0.81 20.122,10.122 20.122,21.452 0,12.05 -10.076,21.858 -22.292,21.5 -7.64,29.092 -33.898,49.262 -64.445,49.262 z m -62.906,-53.369 c 0.917,0 1.73,0.63 1.945,1.541 6.638,28.161 31.706,47.828 60.961,47.828 29.256,0 54.324,-19.667 60.962,-47.828 0.23,-0.981 1.155,-1.643 2.157,-1.53 0.663,0.07 1.286,0.104 1.904,0.104 9.767,0 17.713,-7.854 17.713,-17.508 0,-9.653 -7.943,-17.506 -17.707,-17.509 -0.182,0.012 -0.28,0.019 -0.38,0.02 -0.544,0.007 -1.055,-0.197 -1.437,-0.573 -0.383,-0.376 -0.599,-0.89 -0.599,-1.427 v -6.042004 c 0,-34.157 -28.089,-61.945 -62.614,-61.945 -34.526,0 -62.615,27.788 -62.615,61.945 v 6.042004 c 0,0.537 -0.216,1.051 -0.599,1.427 -0.382,0.376 -0.872,0.608 -1.437,0.573 -0.1,-0.001 -0.198,-0.008 -0.296,-0.015 -0.003,0 -0.007,0 -0.01,0 -9.839,0 -17.7799995,7.852 -17.7799995,17.503 0,9.654 7.9459995,17.508 17.7129995,17.508 0.618,0 1.24,-0.034 1.904,-0.104 0.074,-0.007 0.144,-0.01 0.215,-0.01 z" />
    <path
       id="path18"
       fill="#4671c6"
       d="m 1.7453405,81.386466 c -2.924,-7.829 -3.132,-16.414 -0.59,-24.376 l 0.218,-0.684 c 4.158,-13.024 15.1129995,-22.727 28.5439995,-25.282 6.34,-1.206 12.884,-0.745 18.992,1.337 l 0.713,0.243 c 0.041,0.37 0.103,0.742 0.194,1.111 2.933,11.989 8.317,23.038 15.632,32.533 -6.349,17.689 -14.117,27.773 -20.039,33.357 v 0.002 l -7.773,7.889004 -15.072,-3.494 c -4.118,0 -7.939,1.253 -11.101,3.39 z" />
    <path
       id="path20"
       fill="#4671c6"
       d="m 164.16234,54.574466 c -5.07,-15.73 -16.649,-28.23 -31.454,-34.392 l 0.001,-0.008 c -52.045,-25.6189997 -80.51,5.289 -80.51,5.289 -2.142,2.062 -3.136,5.197 -2.384,8.273 5.975,24.423 22.073,44.985 44.102,56.333 l 0.031,0.016 c 4.756,2.45 9.721,4.45 14.835,5.976 1.272,0.38 2.297,-1.093 1.527,-2.192 l -10.701,-15.271 c -0.933,-1.331 0.706,-2.956 1.978,-1.959 11.833,9.266 34.824,24.616004 58.08,25.387004 l 3.787,-10.371004 c 4.354,-11.921 4.603,-24.997 0.708,-37.081 z" />
    <path
       id="path22"
       fill="#3762cc"
       d="m 37.63734,109.51647 c -0.15,0 -0.302,-0.017 -0.452,-0.052 l -14.843,-3.441 c -3.5,0.042 -6.869,1.094 -9.758,3.046 -0.508,0.343 -1.146,0.435 -1.729,0.248 -0.584,-0.187 -1.0499995,-0.631 -1.2639995,-1.205 L -0.12765951,82.085466 c -3.06699999,-8.212 -3.28799999,-17.333 -0.622,-25.684 l 0.219,-0.685 c 4.38500001,-13.735 15.90899951,-23.943 30.07499951,-26.637 6.667,-1.268 13.585,-0.781 20.011,1.409 l 0.713,0.243 c 0.734,0.25 1.257,0.902 1.343,1.673 0.033,0.301 0.083,0.589 0.149,0.858 2.845,11.63 7.984,22.325 15.274,31.786 0.416,0.54 0.528,1.255 0.298,1.896 -6.619,18.441 -14.828,28.742 -20.549,34.136004 l -7.72,7.839 c -0.382,0.387 -0.897,0.597 -1.426,0.597 z m -15.072,-7.495 c 0.152,0 0.304,0.018 0.452,0.052 l 13.98,3.242 6.987,-7.092004 c 5.351,-5.047 12.931,-14.559 19.211,-31.612 -7.279,-9.688 -12.431,-20.582 -15.323,-32.4 -0.006,-0.024 -0.012,-0.049 -0.018,-0.073 -5.654,-1.852 -11.718,-2.242 -17.565,-1.129 -12.722,2.42 -23.0719995,11.587 -27.0099995,23.925 l -0.219,0.685 c -2.39400001,7.499 -2.19500001,15.691 0.559,23.067 L 12.50134,104.47147 c 3.094,-1.609 6.528,-2.45 10.064,-2.45 z" />
    <path
       id="path24"
       fill="#3762cc"
       d="m 159.66834,104.02647 c -0.021,0 -0.044,0 -0.066,-0.001 -21.966,-0.728 -43.603,-14.088004 -56.174,-23.463004 l 8.521,12.159 c 0.854,1.218 0.843,2.784 -0.027,3.989 -0.856,1.188 -2.314,1.684 -3.709,1.268 -5.218,-1.557 -10.325,-3.614 -15.179,-6.115 -22.593,-11.638 -39.042,-32.646 -45.16,-57.652 -0.895,-3.657 0.216,-7.54 2.899,-10.15 0.688,-0.731 7.984,-8.247 21.535,-12.748 12.783,-4.2469997 33.793,-6.4669997 61.285,7.066 0.018,0.008 0.034,0.017 0.051,0.026 15.41,6.472 27.223,19.422 32.423,35.555 4.016,12.458 3.755,26.089 -0.732,38.38 l -3.787,10.371004 c -0.291,0.792 -1.043,1.315 -1.88,1.315 z m -58.936,-29.700004 c 0.727,0 1.458,0.245 2.089,0.738 11.25,8.809 33.216,23.569 55.472,24.896 l 3.283,-8.991 c 4.184,-11.459 4.427,-24.166 0.684,-35.782 -4.859,-15.076 -15.91,-27.162 -30.319,-33.16 -0.095,-0.039 -0.185,-0.085 -0.271,-0.137 -20.655,-10.129 -40.669,-12.4989997 -57.891,-6.851 -13.048,4.279 -20.041,11.706 -20.11,11.781 -0.026,0.028 -0.055,0.058 -0.082,0.084 -1.689,1.625 -2.389,4.061 -1.828,6.356 5.842,23.88 21.542,43.938 43.076,55.031 4.146,2.136 8.461,3.925 12.868,5.341 l -9.731,-13.886 c -0.988,-1.41 -0.8,-3.292 0.448,-4.475 0.661,-0.627 1.484,-0.945 2.312,-0.945 z" />
  </g>
  <g
     transform="matrix(1.6924845,0,0,1.6924845,-166.82575,-208.004)"
     id="g875">
    <circle
       style="fill:#6bdddd;fill-opacity:1;stroke:none;stroke-width:0.724565"
       id="path867"
       cx="216.35475"
       cy="156.82489"
       r="29.687803" />
    <circle
       style="stroke-width:0.523322"
       cx="216.52156"
       cy="156.79805"
       fill="#e0ebfc"
       r="23.157001"
       id="circle16" />
    <path
       style="stroke-width:0.523322"
       d="m 227.35645,146.64457 c -0.7044,0 -1.27535,-0.57094 -1.27535,-1.27533 v -2.2058 c 0,-0.46942 -0.38045,-0.8504 -0.85039,-0.8504 h -17.7469 c -0.46942,0 -0.84987,0.38045 -0.84987,0.8504 v 2.2058 c 0,0.70439 -0.57095,1.27533 -1.27534,1.27533 h -2.24924 c -0.46942,0 -0.8504,0.38046 -0.8504,0.85041 v 10.07342 c 0,3.40683 1.05869,6.7294 3.03004,9.50824 1.81488,2.55799 4.32368,4.54348 7.23074,5.72148 l 3.83752,1.55531 3.83752,-1.55531 c 2.90705,-1.178 5.41586,-3.16349 7.23074,-5.72148 1.97136,-2.77884 3.03004,-6.10141 3.03004,-9.50824 v -10.07342 c 0,-0.46942 -0.38046,-0.85041 -0.8504,-0.85041 z"
       fill="#4671c6"
       id="path18-3" />
    <path
       style="stroke-width:0.523322"
       d="m 213.90288,169.00455 c -2.1519,-0.87237 -4.00027,-2.33453 -5.34417,-4.22843 -1.46477,-2.06504 -2.23929,-4.49482 -2.23929,-7.02717 v -7.17318 h 0.11199 c 2.11527,0 3.83647,-1.72068 3.83647,-3.83647 v -0.0727 h 12.18033 v 0.0727 c 0,2.11527 1.72068,3.83647 3.83647,3.83647 h 0.11199 v 7.17318 c 0,2.53235 -0.77451,4.96213 -2.23929,7.02717 -1.3439,1.89442 -3.19175,3.35658 -5.34417,4.22843 l -2.45438,0.99484 z"
       fill="#a4c9ff"
       id="path20-5" />
    <g
       transform="matrix(0.52332205,0,0,0.52332205,128.0723,86.542078)"
       id="g24">
      <path
         d="m 163.187,149.623 c -0.073,0 -0.146,-0.003 -0.219,-0.008 -0.89,-0.063 -1.709,-0.51 -2.245,-1.224 l -7.695,-10.267 c -1.019,-1.36 -0.743,-3.29 0.617,-4.309 1.36,-1.02 3.289,-0.744 4.31,0.617 l 5.565,7.426 16.214,-16.214 c 1.201,-1.202 3.152,-1.202 4.352,0 1.202,1.202 1.202,3.151 0,4.353 l -18.724,18.724 c -0.577,0.58 -1.362,0.902 -2.175,0.902 z"
         fill="#4671c6"
         id="path22-6" />
    </g>
  </g>
</svg>
