<?xml version="1.0" encoding="UTF-8" standalone="no"?>
<svg
   xmlns:dc="http://purl.org/dc/elements/1.1/"
   xmlns:cc="http://creativecommons.org/ns#"
   xmlns:rdf="http://www.w3.org/1999/02/22-rdf-syntax-ns#"
   xmlns:svg="http://www.w3.org/2000/svg"
   xmlns="http://www.w3.org/2000/svg"
   xmlns:xlink="http://www.w3.org/1999/xlink"
   xmlns:sodipodi="http://sodipodi.sourceforge.net/DTD/sodipodi-0.dtd"
   xmlns:inkscape="http://www.inkscape.org/namespaces/inkscape"
   inkscape:version="1.0 (1.0+r73+1)"
   sodipodi:docname="documents.svg"
   version="1.1"
   viewBox="0 0 814 778.22"
   height="778.22"
   width="814"
   data-name="Layer 1"
   id="cc774093-8b64-45c7-8077-699a43d4914b">
  <metadata
     id="metadata83">
    <rdf:RDF>
      <cc:Work
         rdf:about="">
        <dc:format>image/svg+xml</dc:format>
        <dc:type
           rdf:resource="http://purl.org/dc/dcmitype/StillImage" />
      </cc:Work>
    </rdf:RDF>
  </metadata>
  <sodipodi:namedview
     inkscape:current-layer="cc774093-8b64-45c7-8077-699a43d4914b"
     inkscape:window-maximized="1"
     inkscape:window-y="0"
     inkscape:window-x="0"
     inkscape:cy="389.10999"
     inkscape:cx="407"
     inkscape:zoom="0.74015063"
     showgrid="false"
     id="namedview81"
     inkscape:window-height="742"
     inkscape:window-width="1366"
     inkscape:pageshadow="2"
     inkscape:pageopacity="0"
     guidetolerance="10"
     gridtolerance="10"
     objecttolerance="10"
     borderopacity="1"
     bordercolor="#666666"
     pagecolor="#ffffff" />
  <defs
     id="defs20">
    <linearGradient
       gradientUnits="userSpaceOnUse"
       y2="105.1"
       x2="253.26"
       y1="778.22"
       x1="253.26"
       id="29b91a8c-5031-4728-9934-4de601869dbd">
      <stop
         id="stop2"
         stop-opacity="0.25"
         stop-color="gray"
         offset="0.01" />
      <stop
         id="stop4"
         stop-opacity="0.12"
         stop-color="gray"
         offset="0.54" />
      <stop
         id="stop6"
         stop-opacity="0.1"
         stop-color="gray"
         offset="1" />
    </linearGradient>
    <linearGradient
       gradientUnits="userSpaceOnUse"
       y2="112.93"
       x2="49.76"
       y1="202.38"
       x1="49.76"
       id="1256144c-81fa-4390-be21-e94fb20836e2">
      <stop
         id="stop9"
         stop-opacity="0.25"
         stop-color="#b3b3b3"
         offset="0" />
      <stop
         id="stop11"
         stop-opacity="0.1"
         stop-color="#b3b3b3"
         offset="0.54" />
      <stop
         id="stop13"
         stop-opacity="0.05"
         stop-color="#b3b3b3"
         offset="1" />
    </linearGradient>
    <linearGradient
       xlink:href="#29b91a8c-5031-4728-9934-4de601869dbd"
       y2="49.2"
       x2="408.68"
       y1="722.31"
       x1="408.68"
       id="8f0ddb95-6166-4bb1-9b4d-46cd9e3d30e6" />
    <linearGradient
       xlink:href="#1256144c-81fa-4390-be21-e94fb20836e2"
       y2="57.02"
       x2="205.18"
       y1="146.48"
       x1="205.18"
       id="2acd927f-116a-42d0-926b-2e100ad401a0" />
    <linearGradient
       xlink:href="#29b91a8c-5031-4728-9934-4de601869dbd"
       y2="0"
       x2="560.74"
       y1="673.12"
       x1="560.74"
       id="dd98f1d5-faf2-451f-bb12-7f13808eec29" />
    <linearGradient
       xlink:href="#1256144c-81fa-4390-be21-e94fb20836e2"
       y2="7.83"
       x2="357.24"
       y1="97.28"
       x1="357.24"
       id="523444de-12f9-4e88-a28a-f69f2aefc1da" />
  </defs>
  <title
     id="title22">files1</title>
  <polygon
     id="polygon24"
     fill="url(#29b91a8c-5031-4728-9934-4de601869dbd)"
     points="506.51 778.22 0 778.22 0 189.97 76.53 105.1 506.51 105.1 506.51 778.22" />
  <polygon
     id="polygon26"
     fill="#fafafa"
     points="498.69 760.33 8.95 760.33 8.95 194.56 82.94 112.93 498.69 112.93 498.69 760.33" />
  <rect
     style="fill:#0072c6;fill-opacity:1"
     id="rect28"
     fill="#e0e0e0"
     height="40.25"
     width="238.59"
     y="182.81"
     x="56.76" />
  <rect
     id="rect30"
     fill="#e0e0e0"
     height="40.25"
     width="174.84"
     y="292.95"
     x="57.24" />
  <rect
     style="fill:#e0e0e0;fill-opacity:1"
     id="rect32"
     fill="#0072c6"
     height="147.59"
     width="392.18"
     y="458.43"
     x="57.24" />
  <rect
     id="rect34"
     fill="#f5f5f5"
     height="40.25"
     width="88.87"
     y="183.37"
     x="360.55" />
  <rect
     id="rect36"
     fill="#f5f5f5"
     height="40.25"
     width="88.87"
     y="245.99"
     x="360.55" />
  <polygon
     id="polygon38"
     fill="url(#1256144c-81fa-4390-be21-e94fb20836e2)"
     points="90.57 112.93 90.57 202.38 8.95 202.38 8.95 194.56 82.74 112.93 90.57 112.93" />
  <polygon
     id="polygon40"
     fill="#eee"
     points="8.75 194.56 82.74 112.93 82.74 194.56 8.75 194.56" />
  <polygon
     id="polygon42"
     fill="url(#8f0ddb95-6166-4bb1-9b4d-46cd9e3d30e6)"
     points="661.93 722.31 155.42 722.31 155.42 134.06 231.95 49.2 661.93 49.2 661.93 722.31" />
  <polygon
     id="polygon44"
     fill="#fafafa"
     points="654.11 704.42 164.37 704.42 164.37 138.65 238.36 57.02 654.11 57.02 654.11 704.42" />
  <rect
     style="fill:#0072c6;fill-opacity:1"
     id="rect46"
     fill="#e0e0e0"
     height="40.25"
     width="238.59"
     y="126.91"
     x="212.18" />
  <rect
     id="rect48"
     fill="#e0e0e0"
     height="40.25"
     width="174.84"
     y="237.04"
     x="212.66" />
  <rect
     style="fill:#e0e0e0;fill-opacity:1"
     id="rect50"
     fill="#0072c6"
     height="147.59"
     width="392.18"
     y="402.53"
     x="212.66" />
  <rect
     id="rect52"
     fill="#f5f5f5"
     height="40.25"
     width="88.87"
     y="127.47"
     x="515.97" />
  <rect
     id="rect54"
     fill="#f5f5f5"
     height="40.25"
     width="88.87"
     y="190.08"
     x="515.97" />
  <polygon
     id="polygon56"
     fill="url(#2acd927f-116a-42d0-926b-2e100ad401a0)"
     points="245.99 57.02 245.99 146.47 164.37 146.47 164.37 138.65 238.16 57.02 245.99 57.02" />
  <polygon
     id="polygon58"
     fill="#eee"
     points="164.17 138.65 238.16 57.02 238.16 138.65 164.17 138.65" />
  <polygon
     id="polygon60"
     fill="url(#dd98f1d5-faf2-451f-bb12-7f13808eec29)"
     points="814 673.12 307.49 673.12 307.49 84.87 384.01 0 814 0 814 673.12" />
  <polygon
     id="polygon62"
     fill="#fff"
     points="806.17 655.23 316.43 655.23 316.43 89.45 390.43 7.83 806.17 7.83 806.17 655.23" />
  <rect
     style="fill:#0072c6;fill-opacity:1"
     id="rect64"
     fill="#e0e0e0"
     height="40.25"
     width="238.59"
     y="77.71"
     x="364.25" />
  <rect
     id="rect66"
     fill="#e0e0e0"
     height="40.25"
     width="174.84"
     y="187.85"
     x="364.73" />
  <rect
     style="fill:#e0e0e0;fill-opacity:1"
     id="rect68"
     fill="#0072c6"
     height="147.59"
     width="392.18"
     y="353.33"
     x="364.73" />
  <rect
     id="rect70"
     fill="#e0e0e0"
     height="40.25"
     width="88.87"
     y="78.27"
     x="668.04" />
  <rect
     id="rect72"
     fill="#e0e0e0"
     height="40.25"
     width="88.87"
     y="140.88"
     x="668.04" />
  <rect
     id="rect74"
     fill="#e0e0e0"
     height="40.25"
     width="88.87"
     y="203.5"
     x="668.04" />
  <polygon
     id="polygon76"
     fill="url(#523444de-12f9-4e88-a28a-f69f2aefc1da)"
     points="398.06 7.83 398.06 97.28 316.43 97.28 316.43 89.45 390.23 7.83 398.06 7.83" />
  <polygon
     id="polygon78"
     fill="#eee"
     points="316.23 89.45 390.23 7.83 390.23 89.45 316.23 89.45" />
</svg>
